<?xml version="1.0" encoding="utf-8" ?>
<svg xmlns="http://www.w3.org/2000/svg" xmlns:xlink="http://www.w3.org/1999/xlink" width="1024" height="1024">
	<defs>
		<linearGradient id="gradient_0" gradientUnits="userSpaceOnUse" x1="474.90579" y1="1055.6693" x2="548.59418" y2="-32.169342">
			<stop offset="0" stop-color="#00131D"/>
			<stop offset="1" stop-color="#04364A"/>
		</linearGradient>
	</defs>
	<path fill="url(#gradient_0)" d="M0 0L495.918 0L516.582 0L520.418 0L614.082 0L1024 0L1024 1024L0 1024L0 0ZM431.918 592.793C432.279 601.345 430.603 638.001 432.019 642.758L431.806 674.312C431.791 678.915 432.381 684.286 431.754 688.771C431.658 689.463 431.358 689.954 430.993 690.519C435.777 689.926 440.415 688.625 445.182 688.021L442.166 693.031L445.033 691.153C445.567 691.202 446.098 691.273 446.63 691.341C446.823 691.366 447.018 691.383 447.211 691.41C453.128 692.235 460 696.253 465.529 698.646C471.568 701.259 478.232 703.989 484.524 705.89C489.612 707.427 494.45 707.244 499.523 708.125C501.627 708.491 503.185 710.036 505.111 710.404C506.456 710.662 507.944 710.376 509.311 710.466C513.554 710.747 517.668 712.098 521.412 714.024C523.533 715.114 539.485 716.026 544.095 717.12C546.201 717.62 548.233 717.018 550.356 717.156Q566.974 718.231 583.62 717.724Q600.265 717.217 616.787 715.133C620.771 714.665 626.799 709.481 630.423 710.336C634.82 711.374 645.603 723.612 650.096 726.948L649.966 727.738L675.002 750.514C680.906 755.803 687.097 760.82 692.686 766.432C692.8 766.547 692.936 766.637 693.061 766.739Q693.201 760.195 693.096 753.65C693.597 748.229 693.337 742.551 693.345 737.104L693.36 709.184L693.419 621.199L693.474 479.593C693.513 453.286 694.31 426.744 693.414 400.462C693.928 377.914 693.497 355.206 693.347 332.645L693.516 287.597C693.526 278.733 694.09 269.449 692.926 260.664C692.214 255.285 690.8 250.103 688.333 245.26Q688.033 244.42 687.672 243.605C677.595 221.097 657.556 217.01 636.516 208.809C636.188 211.425 635.808 213.991 634.926 216.492C633.302 221.098 630.373 225.068 625.789 227.03C618.609 230.103 611.323 226.443 604.617 223.848C604.489 223.779 604.363 223.709 604.235 223.642C595.999 219.338 586.378 216.5 577.644 213.187L523.781 192.901C513.824 189.159 502.131 185.94 493.591 179.468C486.965 174.445 482.113 167.145 479.614 159.259C478.809 156.718 478.369 154.058 477.828 151.452C467.442 147.435 453.101 139.793 442.033 144.645C437.698 146.546 433.87 150.333 432.321 154.835C429.547 162.9 431.02 202.899 431.041 213.76Q430.833 268.132 431.441 322.5L431.918 592.793ZM444.207 130.1C435.765 133.282 427.633 137.389 423.553 145.964C421.767 149.718 420.903 153.822 420.476 157.936C419.535 167.01 420.004 176.38 420.013 185.504L420.081 230.953C420.088 236.029 420.593 241.718 419.964 246.726C420.004 256.918 419.651 267.24 420.01 277.411L420.725 634.208C420.924 652.702 420.433 671.252 420.803 689.733C422.039 690.63 425.525 689.859 427.132 689.591C428.342 689.389 429.645 689.255 430.698 688.61C430.824 665.285 430.666 641.996 431.211 618.679C431.41 610.151 430.972 601.249 431.918 592.793L431.441 322.5Q430.833 268.131 431.041 213.76C431.02 202.899 429.547 162.9 432.321 154.835C433.87 150.333 437.698 146.546 442.033 144.645C453.101 139.793 467.442 147.435 477.828 151.452C478.369 154.058 478.809 156.718 479.614 159.259C482.113 167.145 486.965 174.445 493.591 179.468C502.131 185.94 513.824 189.159 523.781 192.901L577.644 213.187C586.378 216.5 595.999 219.338 604.235 223.642C604.363 223.709 604.489 223.779 604.617 223.848C611.323 226.443 618.609 230.103 625.789 227.03C630.373 225.068 633.302 221.098 634.926 216.492C635.808 213.991 636.188 211.425 636.516 208.809C657.556 217.01 677.595 221.097 687.672 243.605Q688.033 244.42 688.333 245.26C690.8 250.103 692.214 255.285 692.926 260.664C694.09 269.449 693.526 278.733 693.516 287.597L693.347 332.645C693.497 355.206 693.928 377.914 693.414 400.462C694.31 426.744 693.513 453.286 693.474 479.593L693.419 621.199L693.36 709.184L693.345 737.104C693.337 742.551 693.597 748.229 693.096 753.65Q693.201 760.195 693.061 766.739C692.936 766.637 692.8 766.547 692.686 766.432C687.097 760.82 680.906 755.803 675.002 750.514L649.966 727.738L650.096 726.948C645.603 723.612 634.82 711.374 630.423 710.336C626.799 709.481 620.771 714.665 616.787 715.133Q600.265 717.217 583.62 717.724Q566.974 718.231 550.356 717.156C548.233 717.018 546.201 717.62 544.095 717.12C539.485 716.026 523.533 715.114 521.412 714.024C517.668 712.098 513.554 710.747 509.311 710.466C507.944 710.376 506.456 710.662 505.111 710.404C503.185 710.036 501.627 708.491 499.523 708.125C494.45 707.244 489.612 707.427 484.524 705.89C478.232 703.989 471.568 701.259 465.529 698.646C460 696.253 453.128 692.235 447.211 691.41C447.018 691.383 446.823 691.366 446.63 691.341C446.098 691.273 445.567 691.202 445.033 691.153L442.166 693.031C440.131 695.613 437.572 698.995 436.301 701.988C437.826 705.666 436.879 712.459 436.865 716.515L436.762 744.152C436.721 752.93 436.165 761.537 438.09 770.174L438.659 772.058C437.811 772.88 437.737 773.08 437.686 774.329C437.519 778.493 440.798 783.65 442.377 787.417L441.977 788.101C450.535 804.082 468.083 809.871 484.047 815.544C486.05 816.256 489.808 817.031 491.263 818.566L492.443 818.766C491.743 819.488 492.157 819.307 491.054 819.322C488.498 819.356 485.711 818.567 483.198 818.085C475.728 816.653 469.102 810.408 461.375 810.198L460.774 810.366C469.504 814.293 478.862 817.216 487.81 820.652C486.853 821.691 485.746 822.738 484.914 823.872C501.242 828.627 517.19 835.458 533.3 840.973C563.119 851.172 592.592 862.531 622.192 873.355L646.109 881.928C649.987 883.291 654.61 884.375 658.206 886.303C664.101 887.99 669.245 889.128 675.379 889.249C682.563 888.737 688.033 886.024 693.926 882.119C694.721 880.868 696.425 879.576 697.438 878.386C701.505 873.613 703.928 869.301 705.782 863.298C706.288 863.649 706.939 864.189 707.577 864.246C710.19 864.478 721.916 857.855 724.335 856.001C729.095 845.996 732.004 842.686 733.125 831.079C734.413 828.258 733.973 823.018 734.088 819.832Q733.233 702.825 733.603 585.822L733.974 485.912C733.993 470.031 734.432 454.04 733.93 438.173C734.624 419.02 733.965 399.679 734.124 380.5L734.954 251.812C735.067 245.876 735.795 238.688 734.544 232.915C734.397 229.156 733.005 224.862 731.603 221.395C727.246 210.614 718.449 199.378 707.503 194.74C701.329 190.267 691.915 187.137 684.618 184.846C685.615 186.319 687.944 186.729 689.624 187.338C684.595 188.837 679.635 190.763 674.506 191.872C663.147 194.328 649.698 193.889 638.161 192.819C636.47 192.663 634.639 192.622 632.982 192.267C630.328 191.698 628.223 190.017 625.42 190.253C613.081 186.627 600.853 181.676 588.688 177.436C574.612 172.529 560.292 168.142 546.258 163.208C543.698 162.308 540.173 160.205 537.394 160.46L536.922 161.372C532.29 160.256 527.347 157.822 522.865 156.094Q503.173 148.521 483.578 140.7C474.964 137.286 466.039 133.176 457.009 131.038C452.638 130.002 448.681 129.737 444.207 130.1ZM436.301 701.988C434.977 703.92 433.609 705.796 432.6 707.917C428.345 712.229 424.436 721.408 421.54 726.864C415.409 729.309 409.058 731.103 402.697 732.848C396.825 734.163 390.802 734.719 384.958 736.035L384.261 736.119C372.638 737.467 353.728 735.463 343.466 739.037C332.286 742.931 326.613 752.844 313.971 756.332C312.087 756.041 310.119 755.993 308.215 755.848L307.936 755.612C306.323 755.249 304.779 754.633 303.223 754.078C301.057 751.013 300.909 749.248 301.035 745.574L300.518 745.449C300.442 746.553 300.41 747.595 300.482 748.7C300.224 748.56 299.969 748.415 299.709 748.281C299.401 748.121 299.084 747.982 298.77 747.835C295.728 750.997 293.633 755.278 290.818 758.739C275.534 777.528 261.479 793.814 261.989 819.537L262.019 820.852C248.426 827.463 226.417 833.545 220.789 849.214C219.232 853.546 220.111 857.922 222.14 861.941C229.486 876.491 250.857 883.843 265.483 888.325C272.627 890.514 280.304 891.919 287.22 894.668L284.262 894.347C292.534 897.161 301.363 898.332 309.955 899.812Q338.537 905.008 367.486 907.444C374.603 908.091 382.034 909.181 389.17 909.042C403.785 909.145 418.574 910.79 433.202 911.461Q471.506 913.013 509.841 913.163Q552.93 913.478 595.952 911.045C610.525 910.246 625.1 908.576 639.669 908.012C643.114 908.065 663.959 906.107 666.361 905.151C662.826 903.818 657.967 906.262 654.277 905.452C656.001 904.786 656.873 905.203 658.519 904.869C662.457 904.069 666.565 903.877 670.564 903.367C680.476 902.102 690.438 900.965 700.325 899.547C723.263 896.259 757.481 887.776 774.931 872.5C781.514 866.737 783.336 861.856 783.943 853.23C784.9 852.925 784.473 853.135 785.24 852.632C785.182 851.506 785.018 850.951 784.446 849.98L783.249 850.063Q782.399 848.046 781.347 846.126C774.404 833.229 747.587 823.786 734.088 819.832C733.973 823.018 734.413 828.258 733.125 831.079C732.004 842.686 729.095 845.996 724.335 856.001C721.916 857.855 710.19 864.478 707.577 864.246C706.939 864.189 706.288 863.649 705.782 863.298C703.928 869.301 701.505 873.613 697.438 878.386C696.425 879.576 694.721 880.868 693.926 882.119C688.033 886.024 682.563 888.737 675.379 889.249C669.245 889.128 664.101 887.99 658.206 886.303C654.61 884.375 649.987 883.291 646.109 881.928L622.192 873.355C592.592 862.531 563.119 851.172 533.3 840.973C517.19 835.458 501.242 828.627 484.914 823.872C485.746 822.738 486.853 821.691 487.81 820.652C478.862 817.216 469.504 814.293 460.774 810.366L461.375 810.198C469.102 810.408 475.728 816.653 483.198 818.085C485.711 818.567 488.498 819.356 491.054 819.322C492.157 819.307 491.743 819.488 492.443 818.766L491.263 818.566C489.808 817.031 486.05 816.256 484.047 815.544C468.083 809.871 450.535 804.082 441.977 788.101L442.377 787.417C440.798 783.65 437.519 778.493 437.686 774.329C437.737 773.08 437.811 772.88 438.659 772.058L438.09 770.174C436.165 761.537 436.721 752.93 436.762 744.152L436.865 716.515C436.879 712.459 437.826 705.666 436.301 701.988ZM105.991 75.043C104.737 76.5152 103.599 78.0268 103.853 80.0837C104.035 81.5576 104.492 82.3049 105.663 83.2089C107.232 84.4188 109.105 84.1847 110.923 83.927C112.195 82.4455 113.192 81.1141 113.088 79.0342C113.022 77.7245 112.413 76.7486 111.397 75.9701C109.671 74.647 108.021 74.8563 105.991 75.043ZM89.2681 909.987C87.6768 911.285 86.269 912.365 86.0045 914.554C85.8466 915.861 86.2108 917 87.1675 917.917C88.6019 919.293 90.3146 919.411 92.1901 919.418C93.6451 918.142 94.9704 916.757 95.0701 914.699C95.1356 913.348 94.9074 912.237 93.9349 911.237C92.5452 909.808 91.0825 909.887 89.2681 909.987ZM947.668 789.903C946.216 791.321 944.896 792.608 945.054 794.826C945.152 796.192 945.553 797.22 946.703 798.037C947.921 798.903 949.259 798.987 950.689 798.85C952.183 797.393 953.251 796.223 953.252 794.003C953.252 792.663 952.727 791.559 951.643 790.741C950.415 789.816 949.128 789.817 947.668 789.903ZM208.483 196.64C207.797 198.04 207.306 198.657 207.419 200.234C208.422 201.361 209.164 201.491 210.567 201.872C211.354 200.56 211.87 199.818 211.677 198.215C210.619 197.091 209.983 196.898 208.483 196.64ZM807.352 737.699C806.708 738.919 806.357 739.287 806.475 740.689C807.398 741.562 808.067 741.921 809.262 742.347C809.977 741.032 810.304 740.675 810.227 739.146C809.27 738.102 808.677 738.004 807.352 737.699ZM800.833 183.161C800.005 184.258 799.605 184.625 799.408 186.011C800.052 187.277 800.589 187.495 801.803 188.107C802.613 186.744 802.938 186.427 802.898 184.802C802.226 184.008 801.78 183.597 800.833 183.161ZM851.74 70.8102C851.457 72.3543 851.216 72.7888 851.86 74.2607C852.887 74.752 853.551 74.9213 854.689 74.9657C854.835 73.5319 855.043 72.9579 854.405 71.6378C853.464 71.1765 852.784 70.9226 851.74 70.8102ZM102.107 610.817C102.142 612.298 102.045 612.835 102.829 614.126C103.682 614.503 104.355 614.788 105.288 614.877C105.467 613.366 105.708 612.711 105.071 611.303C104.009 610.905 103.239 610.822 102.107 610.817ZM883.809 911.688C882.998 912.773 882.588 913.093 882.479 914.469C883.251 915.379 883.791 915.741 884.884 916.216C885.67 915.03 886.069 914.735 886.027 913.282C885.291 912.5 884.809 912.09 883.809 911.688ZM853.519 297.14C852.607 298.407 852.107 298.703 852.181 300.298C852.928 300.927 853.548 301.4 854.443 301.798C855.134 300.719 855.701 300.093 855.603 298.758C854.954 297.811 854.589 297.55 853.519 297.14ZM395.253 338.712C394.669 340.081 394.455 340.406 394.644 341.858C395.487 342.55 395.953 342.774 397.028 342.96C397.742 341.712 397.881 341.534 397.814 340.115C396.928 339.241 396.47 338.975 395.253 338.712ZM964.793 146.197C963.951 147.323 963.706 147.453 963.684 148.834C964.385 149.645 964.958 150.186 965.876 150.743C966.624 149.569 967.013 149.185 967.061 147.768C966.328 146.903 965.848 146.606 964.793 146.197Z"/>
	<path fill="#06192A" d="M815.326 547.86C815.768 548.272 816.046 548.754 816.38 549.254C816.297 550.524 816.126 550.745 815.411 551.817L813.853 550.681L813.743 549.787L815.326 547.86Z"/>
	<path fill="#05E5EE" fill-opacity="0.98823529" d="M964.793 146.197C965.848 146.606 966.328 146.903 967.061 147.768C967.013 149.185 966.624 149.569 965.876 150.743C964.958 150.186 964.385 149.645 963.684 148.834C963.706 147.453 963.951 147.323 964.793 146.197Z"/>
	<path fill="#05E5EE" d="M42.5424 235.246C43.4123 235.691 43.7348 236.139 44.2801 236.939C44.1969 238.521 43.8719 238.805 42.9921 240.074C42.1972 239.604 41.8842 239.236 41.3026 238.54C41.3069 236.934 41.7018 236.574 42.5424 235.246Z"/>
	<path fill="#029BB8" d="M775.014 271.818C775.84 272.108 776.388 272.492 777.109 272.979C777.533 274.492 777.22 274.873 776.713 276.323C775.478 275.935 774.903 275.704 774.05 274.717C774.024 273.352 774.326 273.024 775.014 271.818Z"/>
	<path fill="#05E5EE" fill-opacity="0.98823529" d="M395.253 338.712C396.47 338.975 396.928 339.241 397.814 340.115C397.881 341.534 397.742 341.712 397.028 342.96C395.953 342.774 395.487 342.55 394.644 341.858C394.455 340.406 394.669 340.081 395.253 338.712Z"/>
	<path fill="#05E5EE" d="M661.264 50.1942C662.338 50.3376 662.902 50.6109 663.81 51.1961C664.186 52.6858 663.913 53.1748 663.486 54.6201C662.382 54.3092 661.742 53.9923 660.839 53.2852C660.562 51.8847 660.767 51.5585 661.264 50.1942Z"/>
	<path fill="#05E5EE" fill-opacity="0.98823529" d="M853.519 297.14C854.589 297.55 854.954 297.811 855.603 298.758C855.701 300.093 855.134 300.719 854.443 301.798C853.548 301.4 852.928 300.927 852.181 300.298C852.107 298.703 852.607 298.407 853.519 297.14Z"/>
	<path fill="#05E5EE" d="M936.055 190.762C937.109 190.826 937.942 191.009 938.946 191.334C939.614 192.7 939.384 193.182 939.184 194.657C938.193 194.657 937.468 194.485 936.526 194.187C935.792 192.822 935.965 192.28 936.055 190.762Z"/>
	<path fill="#05E5EE" fill-opacity="0.98823529" d="M883.809 911.688C884.809 912.09 885.291 912.5 886.027 913.282C886.069 914.735 885.67 915.03 884.884 916.216C883.791 915.741 883.251 915.379 882.479 914.469C882.588 913.093 882.998 912.773 883.809 911.688Z"/>
	<path fill="#05E5EE" fill-opacity="0.98823529" d="M102.107 610.817C103.239 610.822 104.009 610.905 105.071 611.303C105.708 612.711 105.467 613.366 105.288 614.877C104.355 614.788 103.682 614.503 102.829 614.126C102.045 612.835 102.142 612.298 102.107 610.817Z"/>
	<path fill="#05E5EE" fill-opacity="0.98823529" d="M851.74 70.8102C852.784 70.9226 853.464 71.1765 854.405 71.6378C855.043 72.9579 854.835 73.5319 854.689 74.9657C853.551 74.9213 852.887 74.752 851.86 74.2607C851.216 72.7888 851.457 72.3543 851.74 70.8102Z"/>
	<path fill="#05E5EE" fill-opacity="0.98823529" d="M800.833 183.161C801.78 183.597 802.226 184.008 802.898 184.802C802.938 186.427 802.613 186.744 801.803 188.107C800.589 187.495 800.052 187.277 799.408 186.011C799.605 184.625 800.005 184.258 800.833 183.161Z"/>
	<path fill="#029BB8" d="M965.18 501.689C966.239 501.846 966.974 502.129 967.932 502.604C968.545 503.962 968.309 504.484 968.094 505.93C967.143 506.017 966.507 505.9 965.59 505.643C964.777 504.199 965.073 503.317 965.18 501.689Z"/>
	<path fill="#05E5EE" d="M374.169 223.72C375.414 223.737 376.014 223.873 377.099 224.488C377.537 225.975 377.246 226.353 376.775 227.793C375.698 227.668 375.026 227.389 374.07 226.886C373.539 225.517 373.817 225.112 374.169 223.72Z"/>
	<path fill="#05E5EE" d="M169.908 588.164C170.851 588.456 171.315 588.864 172.034 589.529C172.27 591.06 171.875 591.624 171.305 593.038C169.884 592.525 169.455 592.517 168.541 591.266C168.522 589.924 169.167 589.203 169.908 588.164Z"/>
	<path fill="#05E5EE" fill-opacity="0.98823529" d="M807.352 737.699C808.677 738.004 809.27 738.102 810.227 739.146C810.304 740.675 809.977 741.032 809.262 742.347C808.067 741.921 807.398 741.562 806.475 740.689C806.357 739.287 806.708 738.919 807.352 737.699Z"/>
	<path fill="#02C8D4" d="M482.986 18.7169C484.093 19.1231 484.596 19.4707 485.392 20.3383C485.427 21.9828 484.972 22.4099 484.134 23.7893C483.113 23.3125 482.576 22.857 481.82 22.0251C481.747 20.4319 482.177 20.0542 482.986 18.7169Z"/>
	<path fill="#029BB8" d="M670.688 934.173C671.921 934.601 672.58 934.792 673.456 935.817C673.458 937.404 673.057 937.867 672.289 939.223C670.99 938.566 670.259 938.245 669.426 936.996C669.475 935.562 669.816 935.345 670.688 934.173Z"/>
	<path fill="#014961" d="M495.918 0L516.582 0C516.327 0.144491 515.902 0.408353 515.597 0.510988C513.017 1.38046 498.113 1.24542 495.918 0Z"/>
	<path fill="#05E5EE" fill-opacity="0.98823529" d="M208.483 196.64C209.983 196.898 210.619 197.091 211.677 198.215C211.87 199.818 211.354 200.56 210.567 201.872C209.164 201.491 208.422 201.361 207.419 200.234C207.306 198.657 207.797 198.04 208.483 196.64Z"/>
	<path fill="#06192A" d="M963.28 631.463C964.942 631.444 966.093 631.331 967.338 632.483C967.508 634.2 966.507 635.679 965.768 637.173C965.374 637.149 964.834 637.134 964.463 637.023C963.184 636.64 962.977 636.157 962.33 635.089C962.269 633.533 962.621 632.822 963.28 631.463Z"/>
	<path fill="#014961" d="M286.559 180.348C287.097 179.544 287.637 178.73 288.217 177.956C290.212 175.295 293.681 173.965 296.912 173.603C300.887 173.157 304.451 174.41 307.5 176.92L306.722 177.539L306.127 177.251C302.12 175.352 297.586 174.5 293.267 175.986C290.745 176.855 289.337 178.587 287.74 180.625L286.559 180.348Z"/>
	<path fill="#05E5EE" fill-opacity="0.98823529" d="M947.668 789.903C949.128 789.817 950.415 789.816 951.643 790.741C952.727 791.559 953.252 792.663 953.252 794.003C953.251 796.223 952.183 797.393 950.689 798.85C949.259 798.987 947.921 798.903 946.703 798.037C945.553 797.22 945.152 796.192 945.054 794.826C944.896 792.608 946.216 791.321 947.668 789.903Z"/>
	<path fill="#05E5EE" fill-opacity="0.98823529" d="M89.2681 909.987C91.0825 909.887 92.5452 909.808 93.9349 911.237C94.9074 912.237 95.1356 913.348 95.0701 914.699C94.9704 916.757 93.6451 918.142 92.1901 919.418C90.3146 919.411 88.6019 919.293 87.1675 917.917C86.2108 917 85.8466 915.861 86.0045 914.554C86.269 912.365 87.6768 911.285 89.2681 909.987Z"/>
	<path fill="#05E5EE" fill-opacity="0.98823529" d="M105.991 75.043C108.021 74.8563 109.671 74.647 111.397 75.9701C112.413 76.7486 113.022 77.7245 113.088 79.0342C113.192 81.1141 112.195 82.4455 110.923 83.927C109.105 84.1847 107.232 84.4188 105.663 83.2089C104.492 82.3049 104.035 81.5576 103.853 80.0837C103.599 78.0268 104.737 76.5152 105.991 75.043Z"/>
	<path fill="#05E5EE" d="M155.242 400.994C155.409 400.97 155.576 400.938 155.744 400.921C157.803 400.704 159.787 400.796 161.324 402.4C162.277 403.394 162.621 404.701 162.476 406.043C162.23 408.332 160.934 409.571 159.275 411.015C157.145 411.077 155.525 410.933 153.873 409.468C152.696 408.424 152.063 407.018 152.181 405.421C152.342 403.247 153.668 402.224 155.242 400.994Z"/>
	<path fill="#05E5EE" d="M155.191 783.03C155.746 783.092 156.302 783.156 156.85 783.266C158.387 783.576 159.915 784.61 160.662 786.02C161.491 787.584 161.442 789.042 160.782 790.661C159.963 792.67 158.066 793.567 156.19 794.339C154.285 793.844 152.808 793.037 151.795 791.305C150.891 789.76 150.737 788.068 151.352 786.378C151.994 784.614 153.541 783.663 155.191 783.03Z"/>
	<path fill="#014961" d="M520.418 0L614.082 0C614.042 0.0592857 613.995 0.114004 613.963 0.177857C613.587 0.933504 613.972 0.530246 613.185 1.05971C601.519 1.053 589.849 1.31659 578.176 1.26076C572.292 1.23261 566.401 0.812415 560.523 0.869247C551.346 0.957979 542.216 0.967894 533.037 0.87613C529.535 0.84112 525.431 1.2185 522.009 0.68389C521.393 0.587509 520.946 0.306993 520.418 0Z"/>
	<path fill="#05E5EE" d="M826.52 639.339C829.114 639.298 830.853 639.363 832.817 641.263C833.991 642.4 834.485 643.824 834.465 645.454C834.431 648.252 832.587 649.987 830.594 651.647C829.629 651.7 828.607 651.739 827.643 651.649C826.002 651.495 824.179 650.4 823.261 649.019C822.372 647.684 822.092 646.298 822.378 644.717C822.865 642.025 824.367 640.835 826.52 639.339Z"/>
	<path fill="#02C8D4" d="M328.462 410.096C329.491 410.246 330.526 410.43 331.489 410.839C333.051 411.502 334.323 412.945 334.936 414.512C335.576 416.148 335.477 417.947 334.723 419.525C333.603 421.868 331.969 422.776 329.604 423.604C328.551 423.51 327.414 423.441 326.427 423.037C324.701 422.33 323.286 420.787 322.679 419.032Q322.565 418.694 322.487 418.346Q322.409 417.998 322.368 417.643Q322.328 417.289 322.325 416.932Q322.323 416.575 322.358 416.22Q322.393 415.865 322.466 415.516Q322.539 415.167 322.649 414.827Q322.759 414.488 322.904 414.162Q323.049 413.836 323.228 413.527C324.432 411.414 326.22 410.704 328.462 410.096Z"/>
	<path fill="#05E5EE" d="M328.723 413.72C330.178 414.327 330.958 414.81 331.719 416.183C331.323 417.821 330.909 418.127 329.78 419.324C328.309 418.896 327.455 418.508 326.67 417.201C326.834 415.634 327.724 414.839 328.723 413.72Z"/>
	<path fill="#036F88" d="M420.01 277.411C418.884 278.194 418.678 278.082 417.282 278.047C415.756 277.183 415.016 276.117 414.197 274.575C411.129 268.794 410.942 261.133 413.094 255.053C414.384 251.408 416.426 248.449 419.964 246.726C420.004 256.918 419.651 267.24 420.01 277.411Z"/>
	<path fill="#014961" d="M876.834 418.116C880.795 418.589 886.039 418.637 888.972 421.718C890.063 422.864 890.483 424.209 890.395 425.771C890.201 429.222 887.548 431.523 885.25 433.745C884.427 433.775 883.586 433.777 882.766 433.706C880.138 433.478 876.128 430.6 874.573 428.592C873.372 427.041 872.689 425.263 873.015 423.287C873.37 421.131 875.174 419.369 876.834 418.116Z"/>
	<path fill="#05E5EE" d="M876.927 420.344C878.712 420.303 880.394 420.386 881.803 421.646C882.782 422.52 883.198 423.642 883.07 424.942C882.863 427.044 881.605 428.122 880.094 429.38C878.704 429.41 877.024 429.293 875.906 428.351C874.894 427.5 874.259 426.521 874.255 425.157C874.248 422.979 875.479 421.752 876.927 420.344Z"/>
	<path fill="#015B77" d="M287.74 180.625C289.337 178.587 290.745 176.855 293.267 175.986C297.586 174.5 302.12 175.352 306.127 177.251L306.722 177.539L307.5 176.92C308.365 177.459 309.212 177.972 310.115 178.446C310.854 178.835 310.51 178.608 311.079 179.421C311.175 179.559 311.281 179.688 311.38 179.823C313.712 183.004 313.421 188.68 312.839 192.437C312.226 196.398 310.203 200.549 306.781 202.813C303.814 204.776 300.148 205.198 296.721 204.442C292.209 203.447 287.929 200.593 285.542 196.605C283.745 193.601 282.736 187.68 283.464 184.228C283.628 183.45 283.705 183.397 284.038 182.799L284.144 183.096L285.43 181.53C286.322 185.215 285.823 189.387 286.907 193.037C287.356 194.55 289.156 196.562 290.516 197.344C291.94 198.163 293.135 199.203 294.395 200.25C295.014 200.289 295.634 200.316 296.252 200.359C296.679 200.389 297.106 200.43 297.534 200.452C300.211 200.59 303.439 200.17 305.457 198.235C308.181 195.625 309.16 191.123 309.073 187.487C308.999 184.416 307.883 181.264 305.56 179.174C302.282 176.225 297.059 177.115 293.009 177.25C291.764 178.685 291.256 180.343 289.606 181.425L287.74 180.625Z"/>
	<path fill="#036F88" d="M293.009 177.25C297.059 177.115 302.282 176.225 305.56 179.174C307.883 181.264 308.999 184.416 309.073 187.487C309.16 191.123 308.181 195.625 305.457 198.235C303.439 200.17 300.211 200.59 297.534 200.452C297.106 200.43 296.679 200.389 296.252 200.359C295.634 200.316 295.014 200.289 294.395 200.25C293.135 199.203 291.94 198.163 290.516 197.344C289.156 196.562 287.356 194.55 286.907 193.037C285.823 189.387 286.322 185.215 285.43 181.53L286.559 180.348L287.74 180.625L289.606 181.425C291.256 180.343 291.764 178.685 293.009 177.25Z"/>
	<path fill="#05E5EE" d="M296.197 181.988C297.092 181.845 298.03 181.792 298.934 181.874C300.53 182.019 302.055 182.996 302.975 184.296C303.945 185.667 304.214 187.404 303.89 189.034C303.41 191.454 302.092 192.794 300.144 194.173C299.286 194.244 298.376 194.336 297.517 194.246C296.128 194.1 294.69 193.136 293.81 192.087C292.731 190.801 292.395 189.073 292.576 187.434C292.859 184.863 294.257 183.521 296.197 181.988Z"/>
	<path fill="#015B77" d="M951.516 79.3663C950.533 81.4462 948.263 83.5807 946.208 84.607C943.023 86.1977 938.952 86.12 935.672 84.8511C932.792 83.7373 930.678 81.5619 929.533 78.7048C927.933 74.7163 928.217 70.1149 929.951 66.2199C931.297 63.1961 933.757 60.3355 936.985 59.2707C939.671 58.3848 943.426 58.6058 945.918 59.92C948.177 60.362 950.041 62.0117 951.278 63.9251C953.465 67.3087 953.737 72.1713 952.774 76.0002C952.481 77.1645 952.001 78.2715 951.516 79.3663Z"/>
	<path fill="#014961" d="M945.918 59.92C948.177 60.362 950.041 62.0117 951.278 63.9251C953.465 67.3087 953.737 72.1713 952.774 76.0002C952.481 77.1645 952.001 78.2715 951.516 79.3663Q949.954 80.345 948.372 81.2905C950.846 78.485 952.428 74.404 952.228 70.6348C952.037 67.0589 949.304 63.7387 946.73 61.4879C946.139 60.9702 946.156 60.6536 945.918 59.92Z"/>
	<path fill="#05E5EE" d="M941.124 66.1102C942.55 66.3265 943.726 66.4993 944.959 67.3316C946.343 68.2659 947.379 69.9203 947.645 71.5594Q947.695 71.878 947.713 72.1998Q947.731 72.5217 947.717 72.8438Q947.703 73.1659 947.658 73.4851Q947.612 73.8043 947.536 74.1175Q947.46 74.4307 947.353 74.7348Q947.246 75.039 947.11 75.3312Q946.973 75.6234 946.809 75.9007Q946.645 76.1781 946.454 76.438C945.029 78.41 943.222 78.9527 940.934 79.4191C940.013 79.2516 939.09 79.1128 938.236 78.7079C936.594 77.9295 935.148 76.4851 934.611 74.7234C934.081 72.9838 934.403 71.098 935.382 69.5825C936.779 67.4171 938.711 66.6676 941.124 66.1102Z"/>
	<path fill="#014961" d="M389.17 909.042C403.785 909.145 418.574 910.79 433.202 911.461Q471.506 913.013 509.841 913.163Q552.93 913.478 595.952 911.045C610.525 910.246 625.1 908.576 639.669 908.012C629.163 910.296 616.996 910.465 606.215 911.065C602.349 911.28 598.116 911.103 594.311 911.79C592.764 912.069 591.513 912.7 590.139 913.417C572.106 922.827 548.305 922.142 528.561 922.406C511.425 922.635 494.025 922.63 477.001 920.379C472.73 919.814 468.64 918.307 464.447 917.369C461.616 916.736 458.588 916.437 455.827 915.565C454.67 915.199 453.701 914.44 452.761 913.7C452.194 913.254 451.627 912.79 450.892 912.67C447.397 912.099 443.211 912.551 439.64 912.392C434.391 912.157 390.54 910.142 389.17 909.042Z"/>
	<path fill="#014961" d="M445.368 930.076C445.218 930.043 445.067 930.009 444.916 929.978C438.916 928.742 432.6 929.461 426.516 928.984C422.167 928.642 417.847 927.882 413.493 927.635C406.378 927.232 399.196 927.316 392.067 927.027C385.156 926.746 378.266 926.12 371.36 925.737C361.207 925.173 350.933 925.128 340.918 923.129C336.771 922.301 332.289 923.516 328.3 921.718L327.999 921.178L328.24 921.008L328.203 921.447L329.069 921.908L329.659 921.029C339.622 921.2 349.564 923.692 359.544 924.184C372.465 924.822 385.483 924.933 398.417 925.21C407.491 925.404 417.115 924.97 426.045 926.733C430.078 927.53 435.144 926.68 439.315 926.775C449.6 927.011 459.938 927.626 470.249 927.892Q505.671 928.627 541.098 928.245C556.801 928.231 572.558 928.493 588.255 928.09C600.73 927.77 613.267 926.869 625.748 926.381C638.669 925.876 651.609 925.751 664.508 924.749C678.237 923.682 691.796 921.868 705.448 920.168C707.775 919.879 723.263 916.998 724.222 917.402C724.704 917.605 724.955 918.148 725.322 918.522L725.531 918.345L725.393 917.437L725.923 917.79C723.661 918.674 719.885 918.647 717.394 919.024C704.768 920.938 692.092 922.449 679.464 924.287C675.865 924.811 672.253 926.081 668.692 926.461C665.634 926.787 661.205 925.869 658.481 926.897C657.238 927.366 656.797 928.381 656.202 929.505C652.753 930.51 647.363 929.397 643.654 929.356Q637.855 929.249 632.144 930.262L632.644 930.363C630.812 930.928 629.063 931.042 627.238 931.466L631.202 931.952C631.121 931.998 631.037 932.038 630.959 932.088C626.689 934.807 619.741 932.762 614.92 932.486C615.435 933.195 615.13 932.935 616.054 933.383C616.292 933.499 616.535 933.603 616.775 933.713L615.797 934.268C614.007 933.217 593.647 933.283 590.022 933.166C574.507 932.666 559.032 931.508 543.525 931.034C523.199 930.414 502.758 930.613 482.428 930.848C456.351 931.149 430.347 933.165 404.239 933.395C398.234 933.448 378.893 934.364 373.871 931.842C375.099 931.352 376.427 931.26 377.739 931.254C382.907 931.23 388.13 931.694 393.316 931.734C403.142 931.81 412.974 931.25 422.791 930.922C430.351 930.668 437.821 930.745 445.368 930.076Z"/>
	<path fill="#000102" d="M329.407 619.199C328.492 614.099 327.35 608.092 330.528 603.507C332.915 600.062 337.26 597.794 341.346 597.201C347.903 596.25 355.123 598.873 360.267 602.895C369.653 610.235 372.082 621.908 373.248 633.127C374.194 642.24 374.383 674.247 369.248 681.254L368.433 680.166C367.817 676.388 367.403 671.787 365.598 668.368C362.319 662.155 353.972 660.786 347.768 659.038C347.651 655.65 347.872 652.385 348.189 649.012C347.399 649.04 346.513 649.113 345.732 648.994C342.505 648.504 340.073 644.9 338.125 642.56C337.437 648.17 336.461 652.666 334.06 657.791C326.986 658.814 319.254 660.576 313.155 664.505C310.537 655.103 313.236 640.846 318.044 632.407C320.965 627.279 324.601 622.67 329.407 619.199Z"/>
	<path fill="#05E5EE" d="M360.075 613.972C363.878 619.771 365.865 625.958 364.529 632.954C363.739 637.092 361.73 640.889 358.083 643.164C356.446 644.184 354.85 644.73 352.972 645.093C351.165 645.877 349.057 646.461 348.331 648.487C348.27 648.658 348.237 648.837 348.189 649.012C347.399 649.04 346.513 649.113 345.732 648.994C342.505 648.504 340.073 644.9 338.125 642.56C337.929 640.044 338.248 637.518 338.458 635.009L338.211 633.254L337.512 632.968C336.964 633.305 336.268 633.99 335.601 633.852C333.794 633.477 331.733 631.162 330.95 629.563C330.427 628.494 330.21 627.425 330.557 626.254C330.932 624.992 331.881 624.053 332.994 623.437C336.213 623.78 337.059 626.752 339.785 627.87C342.431 628.956 350.599 624.075 352.747 622.369C355.668 620.049 358.064 617.098 360.075 613.972Z"/>
	<defs>
		<linearGradient id="gradient_1" gradientUnits="userSpaceOnUse" x1="339.40997" y1="643.56134" x2="348.96356" y2="641.05286">
			<stop offset="0" stop-color="#023D5D"/>
			<stop offset="1" stop-color="#0C607A"/>
		</linearGradient>
	</defs>
	<path fill="url(#gradient_1)" d="M338.458 635.009C341.931 639.816 347.517 643 352.972 645.093C351.165 645.877 349.057 646.461 348.331 648.487C348.27 648.658 348.237 648.837 348.189 649.012C347.399 649.04 346.513 649.113 345.732 648.994C342.505 648.504 340.073 644.9 338.125 642.56C337.929 640.044 338.248 637.518 338.458 635.009Z"/>
	<defs>
		<linearGradient id="gradient_2" gradientUnits="userSpaceOnUse" x1="567.93109" y1="111.99374" x2="568.95758" y2="194.55115">
			<stop offset="0" stop-color="#03637D"/>
			<stop offset="1" stop-color="#0096C3"/>
		</linearGradient>
	</defs>
	<path fill="url(#gradient_2)" d="M444.207 130.1C447.29 127.746 485.613 112.02 488.317 112.321C494.078 112.962 519.424 123.298 527.018 126.111L638.549 167.761L669.876 179.269C674.631 181.001 680.209 182.442 684.618 184.846C685.615 186.319 687.944 186.729 689.624 187.338C684.595 188.837 679.635 190.763 674.506 191.872C663.147 194.328 649.698 193.889 638.161 192.819C636.47 192.663 634.639 192.622 632.982 192.267C630.328 191.698 628.223 190.017 625.42 190.253C613.081 186.627 600.853 181.676 588.688 177.436C574.612 172.529 560.292 168.142 546.258 163.208C543.698 162.308 540.173 160.205 537.394 160.46L536.922 161.372C532.29 160.256 527.347 157.822 522.865 156.094Q503.173 148.521 483.578 140.7C474.964 137.286 466.039 133.176 457.009 131.038C452.638 130.002 448.681 129.737 444.207 130.1Z"/>
	<path fill="#05E5EE" d="M338.125 642.56C340.073 644.9 342.505 648.504 345.732 648.994C346.513 649.113 347.399 649.04 348.189 649.012C347.872 652.385 347.651 655.65 347.768 659.038C353.972 660.786 362.319 662.155 365.598 668.368C367.403 671.787 367.817 676.388 368.433 680.166L369.248 681.254C375.884 695.484 387.749 710.167 400.63 719.108C402.937 710.54 408.004 700.912 412.33 693.155C417.764 691.561 425.323 690.547 430.993 690.519C435.777 689.926 440.415 688.625 445.182 688.021L442.166 693.031C440.131 695.613 437.572 698.995 436.301 701.988C434.977 703.92 433.609 705.796 432.6 707.917C428.345 712.229 424.436 721.408 421.54 726.864C415.409 729.309 409.058 731.103 402.697 732.848C396.825 734.163 390.802 734.719 384.958 736.035L384.261 736.119C372.638 737.467 353.728 735.463 343.466 739.037C332.286 742.931 326.613 752.844 313.971 756.332C312.087 756.041 310.119 755.993 308.215 755.848L307.936 755.612C306.323 755.249 304.779 754.633 303.223 754.078C301.057 751.013 300.909 749.248 301.035 745.574C302.405 743.41 303.257 740.334 304.415 737.975C306.097 734.55 308.264 731.364 310.192 728.074C315.267 719.418 316.769 712.87 314.206 702.905C311.403 694.998 307.075 685.608 307.1 677.097C307.116 671.616 309.441 668.19 313.155 664.505C319.254 660.576 326.986 658.814 334.06 657.791C336.461 652.666 337.437 648.17 338.125 642.56Z"/>
	<path fill="#029BB8" d="M365.307 718.84C358.717 717.617 345.277 714.189 340.795 709.405C337.946 706.364 332.273 696.173 332.324 692.152C335.88 697.067 336.847 703.807 341.428 708.06C345.029 708.565 348.689 708.5 352.312 708.283C357.772 707.957 360.698 706.476 364.191 702.517C363.771 704.622 363.111 706.888 363.031 709.025C363.215 712.481 364.132 715.607 365.307 718.84Z"/>
	<path fill="#029BB8" d="M314.206 702.905C320.402 709.264 323.491 717.477 329.294 724.175L328.652 723.873L329.75 724.795C328.612 724.75 327.827 723.966 327.077 723.112C325.004 720.75 324.133 717.851 321.728 715.64C321.855 717.431 323.353 719.609 322.914 721.11L321.32 720.573C320.435 721.074 320.342 721.556 319.958 722.448C319.467 723.587 318.959 724.391 318.207 725.371C314.403 730.333 312.425 736.423 308.968 741.566C306.767 743.007 304.718 743.851 302.254 744.679C302.17 747.168 301.598 750.165 303.337 752.165C304.183 753.138 305.519 753.768 306.605 754.428C307.219 754.802 307.523 755.035 307.936 755.612C306.323 755.249 304.779 754.633 303.223 754.078C301.057 751.013 300.909 749.248 301.035 745.574C302.405 743.41 303.257 740.334 304.415 737.975C306.097 734.55 308.264 731.364 310.192 728.074C315.267 719.418 316.769 712.87 314.206 702.905Z"/>
	<path fill="#036F88" d="M366.564 693.48C372.266 701.376 371.695 707.786 380.345 716.476C381.891 718.029 388.253 722.291 388.581 723.921L388.127 724.201C383.798 723.666 379.251 723.208 375.128 721.722C371.8 720.927 368.442 720.246 365.307 718.84C364.132 715.607 363.215 712.481 363.031 709.025C363.111 706.888 363.771 704.622 364.191 702.517Q365.43 698.012 366.564 693.48Z"/>
	<path fill="#000102" d="M363.031 709.025C365.54 710.38 366.79 714.269 368.807 716.347C370.666 718.263 373.355 719.26 375.369 721.02L375.128 721.722C371.8 720.927 368.442 720.246 365.307 718.84C364.132 715.607 363.215 712.481 363.031 709.025Z"/>
	<path fill="#02C8D4" d="M368.433 680.166L369.248 681.254C375.884 695.484 387.749 710.167 400.63 719.108C399.621 721.372 398.68 723.676 397.387 725.795C395.128 725.475 389.876 725.351 388.127 724.201L388.581 723.921C388.253 722.291 381.891 718.029 380.345 716.476C371.695 707.786 372.266 701.376 366.564 693.48C367.246 689.067 367.284 684.493 368.433 680.166Z"/>
	<path fill="#E9ECF1" d="M430.993 690.519C435.777 689.926 440.415 688.625 445.182 688.021L442.166 693.031C440.131 695.613 437.572 698.995 436.301 701.988C434.977 703.92 433.609 705.796 432.6 707.917C428.345 712.229 424.436 721.408 421.54 726.864C415.409 729.309 409.058 731.103 402.697 732.848L400.016 727.931C405.114 716.812 408.532 704.787 414.47 694.064C419.64 693.356 426.446 693.081 430.993 690.519Z"/>
	<path fill="#015B77" d="M631.202 931.952C636.99 930.85 657.852 930.708 663.303 932.44C664.52 932.827 665.026 933.091 665.619 934.212C665.556 934.392 665.514 934.582 665.429 934.752C663.115 939.395 648.827 944.561 644.04 945.781C643.937 945.807 642.956 946.027 642.804 946.099C639.142 947.839 635.806 947.665 632.11 948.895C627.172 950.539 622.58 953.085 617.546 954.621C609.461 957.09 600.22 957.72 591.816 958.855C527.072 967.594 448.801 967.399 385.971 948.586C376.698 945.81 365.243 943.766 357.661 937.28C356.728 936.481 356.472 935.949 356.408 934.758C358.015 932.099 360.708 932.624 363.255 931.615C366.29 930.413 369.774 930.509 372.908 931.51C373.232 931.614 373.55 931.731 373.871 931.842C378.893 934.364 398.234 933.448 404.239 933.395C430.347 933.165 456.351 931.149 482.428 930.848C502.758 930.613 523.199 930.414 543.525 931.034C559.032 931.508 574.507 932.666 590.022 933.166C593.647 933.283 614.007 933.217 615.797 934.268L616.775 933.713C616.535 933.603 616.292 933.499 616.054 933.383C615.13 932.935 615.435 933.195 614.92 932.486C619.741 932.762 626.689 934.807 630.959 932.088C631.037 932.038 631.121 931.998 631.202 931.952Z"/>
	<path fill="#029BB8" d="M504.694 933.757C526.882 933.233 549.322 934.993 571.455 936.536C580.531 937.168 590.493 937.098 599.376 938.809C596.78 939.667 593.107 938.489 590.723 940.048C590.078 940.47 590.186 941.814 590.104 942.551C588.964 944.06 587.14 944.559 585.442 945.232L585.551 945.493C590.797 945.606 595.917 943.97 601.14 944.182C596.553 946.594 589.55 946.395 584.534 948.171C576.229 951.113 550.204 955.473 541.033 955.76C534.436 957.544 513.54 957.456 505.631 957.156C499.052 956.906 492.13 956.773 485.62 955.872C481.391 955.287 477.274 953.483 473.048 952.724C468.37 951.885 447.983 951.062 445.028 947.882L445.376 947.263C446.974 946.728 448.227 946.571 449.914 946.541L450.491 946.535C448.242 945.441 445.626 944.627 444.498 942.248C445.25 940.596 446.945 940.876 447.798 939.484C445.495 939.185 443.787 938.599 441.706 937.577C462.517 935.214 483.771 934.628 504.694 933.757Z"/>
	<path fill="#05E5EE" d="M503.831 938.247Q525.534 937.656 547.184 939.273C556.225 940.003 565.313 941.335 574.349 942.285L574.736 943.066C574.663 943.18 574.605 943.305 574.517 943.409C570.644 947.968 538.475 949.729 531.165 950.04C514.283 950.275 497.166 950.249 480.347 948.649C474.135 948.058 468.341 943.99 461.963 944.431C460.15 944.556 458.877 944.488 457.137 943.852L457.244 942.939C459.253 941.761 464.004 942.503 466.425 942.239C471.213 941.717 475.974 940.281 480.747 939.533C488.424 938.331 496.085 938.297 503.831 938.247Z"/>
	<defs>
		<linearGradient id="gradient_3" gradientUnits="userSpaceOnUse" x1="495.79831" y1="702.05499" x2="504.38928" y2="913.92401">
			<stop offset="0" stop-color="#010715"/>
			<stop offset="1" stop-color="#011E30"/>
		</linearGradient>
	</defs>
	<path fill="url(#gradient_3)" d="M436.301 701.988C437.826 705.666 436.879 712.459 436.865 716.515L436.762 744.152C436.721 752.93 436.165 761.537 438.09 770.174L438.659 772.058C437.811 772.88 437.737 773.08 437.686 774.329C437.519 778.493 440.798 783.65 442.377 787.417L441.977 788.101C450.535 804.082 468.083 809.871 484.047 815.544C486.05 816.256 489.808 817.031 491.263 818.566L492.443 818.766C491.743 819.488 492.157 819.307 491.054 819.322C488.498 819.356 485.711 818.567 483.198 818.085C475.728 816.653 469.102 810.408 461.375 810.198L460.774 810.366C469.504 814.293 478.862 817.216 487.81 820.652C486.853 821.691 485.746 822.738 484.914 823.872C501.242 828.627 517.19 835.458 533.3 840.973C563.119 851.172 592.592 862.531 622.192 873.355L646.109 881.928C649.987 883.291 654.61 884.375 658.206 886.303C664.101 887.99 669.245 889.128 675.379 889.249C682.563 888.737 688.033 886.024 693.926 882.119C694.721 880.868 696.425 879.576 697.438 878.386C701.505 873.613 703.928 869.301 705.782 863.298C706.288 863.649 706.939 864.189 707.577 864.246C710.19 864.478 721.916 857.855 724.335 856.001C729.095 845.996 732.004 842.686 733.125 831.079C734.413 828.258 733.973 823.018 734.088 819.832C747.587 823.786 774.404 833.229 781.347 846.126Q782.399 848.046 783.249 850.063L784.446 849.98C785.018 850.951 785.182 851.506 785.24 852.632C784.473 853.135 784.9 852.925 783.943 853.23C783.336 861.856 781.514 866.737 774.931 872.5C757.481 887.776 723.263 896.259 700.325 899.547C690.438 900.965 680.476 902.102 670.564 903.367C666.565 903.877 662.457 904.069 658.519 904.869C656.873 905.203 656.001 904.786 654.277 905.452C657.967 906.262 662.826 903.818 666.361 905.151C663.959 906.107 643.114 908.065 639.669 908.012C625.1 908.576 610.525 910.246 595.952 911.045Q552.93 913.478 509.841 913.163Q471.506 913.013 433.202 911.461C418.574 910.79 403.785 909.145 389.17 909.042C382.034 909.181 374.603 908.091 367.486 907.444Q338.537 905.008 309.955 899.812C301.363 898.332 292.534 897.161 284.262 894.347L287.22 894.668C280.304 891.919 272.627 890.514 265.483 888.325C250.857 883.843 229.486 876.491 222.14 861.941C220.111 857.922 219.232 853.546 220.789 849.214C226.417 833.545 248.426 827.463 262.019 820.852L261.989 819.537C261.479 793.814 275.534 777.528 290.818 758.739C293.633 755.278 295.728 750.997 298.77 747.835C299.084 747.982 299.401 748.121 299.709 748.281C299.969 748.415 300.224 748.56 300.482 748.7C300.41 747.595 300.442 746.553 300.518 745.449L301.035 745.574C300.909 749.248 301.057 751.013 303.223 754.078C304.779 754.633 306.323 755.249 307.936 755.612L308.215 755.848C310.119 755.993 312.087 756.041 313.971 756.332C326.613 752.844 332.286 742.931 343.466 739.037C353.728 735.463 372.638 737.467 384.261 736.119L384.958 736.035C390.802 734.719 396.825 734.163 402.697 732.848C409.058 731.103 415.409 729.309 421.54 726.864C424.436 721.408 428.345 712.229 432.6 707.917C433.609 705.796 434.977 703.92 436.301 701.988ZM419.372 831.934L418.434 832.014C416.081 832.567 412.529 833.212 411.236 835.592C410.903 836.206 410.756 836.953 410.59 837.619L411.767 840.572C409.167 842.492 406.073 844.994 402.731 845.161L402.05 845.702C407.425 850.208 413.102 854.294 418.542 858.706C422.495 854.947 433.675 852.862 435.246 851.109C435.61 850.703 435.777 850.157 436.042 849.681C437.543 850.05 439.051 850.4 440.536 850.83C443.689 851.495 446.869 852.002 450.047 852.53C443.152 844.924 433.866 839.341 426.42 832.174C424.112 831.91 421.698 831.99 419.372 831.934Z"/>
	<path fill="#06192A" d="M436.042 849.681C437.543 850.05 439.051 850.4 440.536 850.83C439.955 851.378 439.395 851.997 438.807 852.525C436.219 854.846 429.492 855.711 426.058 857.043C424.002 857.84 422.134 859.078 420.324 860.319L418.542 858.706C422.495 854.947 433.675 852.862 435.246 851.109C435.61 850.703 435.777 850.157 436.042 849.681Z"/>
	<path fill="#06192A" d="M526.68 904.938C528.644 904.042 531.29 906.435 533.308 906.763C535.382 907.1 537.653 906.997 539.755 907.028L539.854 907.423C536.782 908.231 533.238 908.194 530.064 908.414L531.29 908.497C527.751 908.954 524.118 909.714 520.569 909.106C517.524 909.866 513.972 909.5 510.881 909.134L510.622 908.707L513.631 908.581C520.511 903.405 523.289 908.605 528.325 908.248L526.523 906.797C527.444 906.446 527.111 906.533 527.984 906.335C528.173 906.292 528.363 906.254 528.553 906.213C528.309 906.122 527.471 905.828 527.288 905.678C527.042 905.475 526.882 905.185 526.68 904.938Z"/>
	<path fill="#000102" d="M724.335 856.001C724.717 857.89 723.095 859.755 722.022 861.341C717.084 868.636 708.908 875.48 701.465 880.065C699.578 880.046 697.943 879.303 696.521 880.709C696.037 881.187 695.588 881.853 695.178 882.384L694.402 882.514L693.926 882.119C694.721 880.868 696.425 879.576 697.438 878.386C701.505 873.613 703.928 869.301 705.782 863.298C706.288 863.649 706.939 864.189 707.577 864.246C710.19 864.478 721.916 857.855 724.335 856.001Z"/>
	<path fill="#014961" d="M452.053 810.112C450.572 807.911 446.01 804.933 443.903 802.81C441.374 800.262 439.342 796.822 437.302 793.861C440.086 796.137 441.608 799.976 444.5 802.104C446.515 803.586 448.89 802.347 450.964 803.196C452.388 803.778 459.83 809.002 461.375 810.198L460.774 810.366C469.504 814.293 478.862 817.216 487.81 820.652C486.853 821.691 485.746 822.738 484.914 823.872C473.463 821.688 463.171 815.596 452.908 810.528L452.053 810.112Z"/>
	<path fill="#014961" d="M303.223 754.078C304.779 754.633 306.323 755.249 307.936 755.612L308.215 755.848C310.119 755.993 312.087 756.041 313.971 756.332C312.558 756.548 311.164 756.729 309.74 756.861C310.044 760.785 316.733 767.893 319.683 770.404C329.859 779.067 343.278 782.781 356.506 783.227C360.443 783.359 369.245 782.343 372.508 783.238C373.526 783.517 373.345 783.499 373.5 784.295C362.343 786.025 334.001 786.092 324.536 779.797C323.156 779.295 321.863 778.692 320.59 777.962C310.782 772.335 306.097 764.809 303.223 754.078Z"/>
	<path fill="#015B77" d="M303.223 754.078C304.779 754.633 306.323 755.249 307.936 755.612L308.215 755.848L306.916 756.255C307.256 760.732 313.691 768.649 317.1 771.594C318.43 772.742 325.489 777.193 325.725 778.362C322.771 777.896 318.88 774.534 316.013 773.231C316.179 774.141 318.085 775.286 318.898 775.855C320.791 777.179 322.83 778.222 324.536 779.797C323.156 779.295 321.863 778.692 320.59 777.962C310.782 772.335 306.097 764.809 303.223 754.078Z"/>
	<path fill="#014961" d="M421.54 726.864C424.436 721.408 428.345 712.229 432.6 707.917C432.89 710.428 429.228 715.027 427.788 717.143C427.066 726.628 427.525 736.448 427.638 745.965C427.681 749.644 428.211 753.225 427.696 756.903C427.061 761.431 428.654 771.354 426.823 774.691C425.718 765.622 427.405 756.549 422.67 748.172C419.98 743.414 415.912 740.621 410.687 739.257C409.465 738.793 408.162 738.576 406.886 738.294C405.994 737.99 404.819 737.932 403.876 737.775C399.323 737.04 392.246 736.232 387.941 737.905L384.958 736.035C390.802 734.719 396.825 734.163 402.697 732.848C409.058 731.103 415.409 729.309 421.54 726.864Z"/>
	<path fill="#05E5EE" d="M387.457 844.052C389.83 843.38 392.52 843.87 394.956 844.057C396.674 844.276 398.381 844.527 400.115 844.564L402.05 845.702C407.425 850.208 413.102 854.294 418.542 858.706L420.324 860.319C422.725 862.301 424.526 864.434 426.222 867.019C418.789 865.456 411.287 863.984 403.789 862.774C399.328 862.053 394.611 861.846 390.246 860.7C388.612 860.271 386.937 859.595 385.582 858.569C384.069 857.422 382.926 855.85 382.768 853.914C382.474 850.31 385.231 846.627 387.457 844.052Z"/>
	<path fill="#014961" d="M398.37 896.117C412.514 897.205 426.571 896.87 440.727 897.536C453.519 898.138 466.287 898.959 479.091 899.238C483.645 899.337 488.383 899.684 492.923 899.419C510.837 899.67 528.685 900.011 546.579 900.877C550.564 901.07 554.715 900.559 558.658 900.974C560.103 901.126 561.418 901.664 562.721 902.277L562.222 902.437C561.982 902.512 561.74 902.579 561.501 902.658C561.166 902.768 560.708 902.959 560.339 903.038C555.522 904.073 547.047 903.502 541.953 903.624C513.051 904.32 484.258 902.786 455.401 901.487C440.543 900.818 425.684 900.803 410.838 899.754C406.322 899.435 401.951 897.742 397.429 897.351C394.952 897.137 390.064 898.316 388.088 896.939L388.267 896.493C390.798 896.434 395.793 897.097 397.983 896.311C398.119 896.262 398.241 896.181 398.37 896.117Z"/>
	<path fill="#05E5EE" fill-opacity="0.98823529" d="M419.372 831.934C421.698 831.99 424.112 831.91 426.42 832.174C433.866 839.341 443.152 844.924 450.047 852.53C446.869 852.002 443.689 851.495 440.536 850.83C439.051 850.4 437.543 850.05 436.042 849.681C435.777 850.157 435.61 850.703 435.246 851.109C433.675 852.862 422.495 854.947 418.542 858.706C413.102 854.294 407.425 850.208 402.05 845.702L402.731 845.161C406.073 844.994 409.167 842.492 411.767 840.572L410.59 837.619C410.756 836.953 410.903 836.206 411.236 835.592C412.529 833.212 416.081 832.567 418.434 832.014L419.372 831.934Z"/>
	<path fill="#000102" d="M411.767 840.572C417.911 846.794 428.072 847.011 436.042 849.681C435.777 850.157 435.61 850.703 435.246 851.109C433.675 852.862 422.495 854.947 418.542 858.706C413.102 854.294 407.425 850.208 402.05 845.702L402.731 845.161C406.073 844.994 409.167 842.492 411.767 840.572Z"/>
	<defs>
		<linearGradient id="gradient_4" gradientUnits="userSpaceOnUse" x1="572.48291" y1="903.76605" x2="572.17303" y2="899.08789">
			<stop offset="0" stop-color="#02354C"/>
			<stop offset="1" stop-color="#054E65"/>
		</linearGradient>
	</defs>
	<path fill="url(#gradient_4)" d="M658.206 886.303C664.101 887.99 669.245 889.128 675.379 889.249C673.297 890.138 670.951 889.327 668.752 889.994C660.562 892.479 652.146 895.354 643.523 896.03C639.759 896.325 635.55 895.257 631.809 894.772C626.606 894.098 618.595 895.673 613.637 897.281L613.843 896.99L613.264 898.38C613.417 898.338 613.569 898.288 613.724 898.254C614.546 898.076 614.284 898.147 615.312 898.338L615.392 898.88Q613.752 899.248 612.133 899.701L613.214 900.365C611.745 901.927 608.093 902.3 605.977 902.357C604.343 902.401 603.153 902.071 601.63 901.558C600.243 901.091 599.504 901.201 598.094 901.43C597.899 902.117 597.957 901.679 598.209 902.749C596.74 903.666 594.352 903.41 592.66 903.322L591.708 904.155C592.601 905.024 592.145 904.639 593.064 905.325C592.216 905.813 592.746 905.67 591.611 905.484C590.362 905.28 589.349 905.536 588.131 905.771C586.994 905.99 588.048 905.83 586.828 905.761C586.65 905.751 585.991 905.841 585.791 905.866L585.588 906.726C585.431 906.686 585.274 906.643 585.115 906.607C584.148 906.386 583.365 906.475 582.406 906.588C577.81 907.13 564.855 906.07 561.83 907.103C561.569 906.975 561.317 906.826 561.046 906.719C560.169 906.371 559.21 906.315 558.285 906.188L558.48 905.587C560 904.826 564.145 905.329 564.776 904.802L564.784 904.521C565.499 904.249 566.011 904.202 566.5 903.596C565.161 903.345 563.969 902.802 562.721 902.277C561.418 901.664 560.103 901.126 558.658 900.974C554.715 900.559 550.564 901.07 546.579 900.877C528.685 900.011 510.837 899.67 492.923 899.419C499.135 898.682 505.553 898.782 511.812 898.659L545.968 898.095C553.733 897.905 561.525 897.858 569.277 897.36C580.85 896.617 592.379 895.303 603.948 894.553C609.393 894.199 624.679 894.046 629.076 892.496C637.454 889.542 645.856 888.183 654.716 888.237C655.826 887.693 656.971 887.506 658.07 886.959L658.206 886.303Z"/>
	<path fill="#014961" d="M566.5 903.596L566.552 902.76C567.058 902.963 567.545 903.104 567.975 903.446L568.524 904.262L566.5 903.596Z"/>
	<path fill="#014961" d="M658.206 886.303C664.101 887.99 669.245 889.128 675.379 889.249C673.297 890.138 670.951 889.327 668.752 889.994C660.562 892.479 652.146 895.354 643.523 896.03C639.759 896.325 635.55 895.257 631.809 894.772C626.606 894.098 618.595 895.673 613.637 897.281L613.843 896.99L613.264 898.38C613.417 898.338 613.569 898.288 613.724 898.254C614.546 898.076 614.284 898.147 615.312 898.338L615.392 898.88Q613.752 899.248 612.133 899.701C605.068 898.063 597.093 901.397 589.839 900.505L589.641 900.026C591.371 899.184 593.772 899.594 595.695 899.131C601.485 897.737 607.509 895.987 613.404 895.179C627.058 893.307 641.829 893.669 654.716 888.237C655.826 887.693 656.971 887.506 658.07 886.959L658.206 886.303Z"/>
	<path fill="#036F88" d="M403.876 737.775C404.819 737.932 405.994 737.99 406.886 738.294C408.162 738.576 409.465 738.793 410.687 739.257C415.912 740.621 419.98 743.414 422.67 748.172C427.405 756.549 425.718 765.622 426.823 774.691C427.406 783.122 427.092 791.726 427.036 800.185C426.98 808.783 427.167 817.669 426.479 826.228L426.42 832.174C424.112 831.91 421.698 831.99 419.372 831.934L418.434 832.014C416.522 818.495 416.85 804.999 417.169 791.363C417.427 780.313 418.947 767.232 415.999 756.538C413.844 748.721 406.259 745.061 404.146 738.669C404.048 738.374 403.966 738.073 403.876 737.775Z"/>
	<path fill="#0183A2" d="M406.886 738.294C408.162 738.576 409.465 738.793 410.687 739.257L410.546 739.991C411.333 740.714 412.107 741.437 412.923 742.128C419.324 747.546 421.842 758.194 422.384 766.211C422.825 772.727 424.511 798.735 423.231 803.721L424.037 803.779C425.803 808.789 424.694 823.457 424.761 829.75L425.583 829.805C426.037 828.606 426.046 827.428 426.479 826.228L426.42 832.174C424.112 831.91 421.698 831.99 419.372 831.934L423.603 831.145C423.971 828.33 422.097 823.887 421.965 820.801C421.285 804.962 422.773 765.969 417.665 752.723C415.094 746.056 410.124 743.879 407.296 739.04C407.153 738.795 407.023 738.543 406.886 738.294Z"/>
	<path fill="#029BB8" d="M410.687 739.257C415.912 740.621 419.98 743.414 422.67 748.172C427.405 756.549 425.718 765.622 426.823 774.691C427.406 783.122 427.092 791.726 427.036 800.185C426.98 808.783 427.167 817.669 426.479 826.228C426.046 827.428 426.037 828.606 425.583 829.805L424.761 829.75C424.694 823.457 425.803 808.789 424.037 803.779L423.231 803.721C424.511 798.735 422.825 772.727 422.384 766.211C421.842 758.194 419.324 747.546 412.923 742.128C412.107 741.437 411.333 740.714 410.546 739.991L410.687 739.257Z"/>
	<defs>
		<linearGradient id="gradient_5" gradientUnits="userSpaceOnUse" x1="345.91861" y1="806.47223" x2="406.37006" y2="760.87897">
			<stop offset="0" stop-color="#012236"/>
			<stop offset="1" stop-color="#026887"/>
		</linearGradient>
	</defs>
	<path fill="url(#gradient_5)" d="M313.971 756.332C326.613 752.844 332.286 742.931 343.466 739.037C353.728 735.463 372.638 737.467 384.261 736.119L384.958 736.035L387.941 737.905C392.246 736.232 399.323 737.04 403.876 737.775C403.966 738.073 404.048 738.374 404.146 738.669C406.259 745.061 413.844 748.721 415.999 756.538C418.947 767.232 417.427 780.313 417.169 791.363C416.85 804.999 416.522 818.495 418.434 832.014C416.081 832.567 412.529 833.212 411.236 835.592C410.903 836.206 410.756 836.953 410.59 837.619L411.767 840.572C409.167 842.492 406.073 844.994 402.731 845.161L402.05 845.702L400.115 844.564C398.381 844.527 396.674 844.276 394.956 844.057C392.52 843.87 389.83 843.38 387.457 844.052Q384.747 842.833 382.013 841.671C380.666 822.044 379.857 802.798 380.059 783.122C377.901 783.699 375.707 783.975 373.5 784.295C373.345 783.499 373.526 783.517 372.508 783.238C369.245 782.343 360.443 783.359 356.506 783.227C343.278 782.781 329.859 779.067 319.683 770.404C316.733 767.893 310.044 760.785 309.74 756.861C311.164 756.729 312.558 756.548 313.971 756.332Z"/>
	<path fill="#0183A2" d="M402.811 783.152C404.091 780.26 404.204 776.95 405.51 774.101C405.977 773.082 406.043 772.808 407.128 772.452L408.379 773.418C407.606 782.337 405.457 793.53 407.799 802.197C407.406 804.714 406.623 807.471 406.478 809.966C410.675 816.206 409.252 830.031 410.59 837.619L411.767 840.572C409.167 842.492 406.073 844.994 402.731 845.161L402.05 845.702L400.115 844.564C398.381 844.527 396.674 844.276 394.956 844.057C396.384 844.001 397.573 844.061 398.819 843.255C401.271 839.585 400.404 836.062 400.937 831.94C401.166 830.168 402.026 828.806 402.559 827.145C403.289 824.869 402.828 821.749 402.69 819.375C402.56 820.323 402.45 820.785 402.032 821.677C400.587 818.364 403.128 815.095 402.937 811.839L401.75 811.043L401.842 811.963C400.421 812.566 401.288 819.84 400.455 821.775L400.216 819.047L399.07 822.212L398.424 822.114C397.859 815.157 400.775 803.044 401.619 795.494C402.058 791.565 401.734 786.914 402.811 783.152Z"/>
	<path fill="#06192A" d="M406.478 809.966C410.675 816.206 409.252 830.031 410.59 837.619L411.767 840.572C409.167 842.492 406.073 844.994 402.731 845.161L402.05 845.702L400.115 844.564C401.892 833.012 403.963 821.381 406.478 809.966Z"/>
	<defs>
		<linearGradient id="gradient_6" gradientUnits="userSpaceOnUse" x1="392.96512" y1="788.81952" x2="424.0798" y2="775.41394">
			<stop offset="0" stop-color="#012B41"/>
			<stop offset="1" stop-color="#016982"/>
		</linearGradient>
	</defs>
	<path fill="url(#gradient_6)" d="M387.941 737.905C392.246 736.232 399.323 737.04 403.876 737.775C403.966 738.073 404.048 738.374 404.146 738.669C406.259 745.061 413.844 748.721 415.999 756.538C418.947 767.232 417.427 780.313 417.169 791.363C416.85 804.999 416.522 818.495 418.434 832.014C416.081 832.567 412.529 833.212 411.236 835.592C410.903 836.206 410.756 836.953 410.59 837.619C409.252 830.031 410.675 816.206 406.478 809.966C406.623 807.471 407.406 804.714 407.799 802.197C405.457 793.53 407.606 782.337 408.379 773.418L407.128 772.452C406.043 772.808 405.977 773.082 405.51 774.101C404.204 776.95 404.091 780.26 402.811 783.152C402.808 783.038 402.807 782.923 402.803 782.809C402.625 777.853 404.265 773.395 404.136 768.609C403.886 759.303 394.897 750.525 391.477 742.074C391.182 741.347 391.019 740.745 390.507 740.144C389.985 739.53 390.294 740.054 389.85 739.211C389.769 739.057 389.697 738.899 389.621 738.743C389.131 738.388 388.49 738.161 387.941 737.905Z"/>
	<path fill="#029BB8" d="M410.336 764.804L410.532 763.193L411.142 762.936C412.395 764.646 412.924 767.387 412.545 769.469C412.24 771.149 411.616 772.56 412.018 774.283C413.483 771.918 411.856 769.141 413.894 766.724C413.31 774.25 412.246 782.334 410.321 789.65C409.655 793.875 408.733 798.026 407.799 802.197C405.457 793.53 407.606 782.337 408.379 773.418C408.991 770.535 409.6 767.658 410.336 764.804Z"/>
	<path fill="#029BB8" d="M410.336 764.804L410.532 763.193L411.142 762.936C412.395 764.646 412.924 767.387 412.545 769.469C412.24 771.149 411.616 772.56 412.018 774.283C413.483 771.918 411.856 769.141 413.894 766.724C413.31 774.25 412.246 782.334 410.321 789.65C408.94 786.119 411.17 771.103 410.336 764.804Z"/>
	<defs>
		<linearGradient id="gradient_7" gradientUnits="userSpaceOnUse" x1="397.74643" y1="758.97339" x2="410.66113" y2="754.22058">
			<stop offset="0" stop-color="#026D8B"/>
			<stop offset="1" stop-color="#08A9C0"/>
		</linearGradient>
	</defs>
	<path fill="url(#gradient_7)" d="M389.621 738.743C398.346 742.517 408.909 747.343 412.637 756.834C413.898 760.046 414.031 763.331 413.894 766.724C411.856 769.141 413.483 771.918 412.018 774.283C411.616 772.56 412.24 771.149 412.545 769.469C412.924 767.387 412.395 764.646 411.142 762.936L410.532 763.193L410.336 764.804C409.6 767.658 408.991 770.535 408.379 773.418L407.128 772.452C406.043 772.808 405.977 773.082 405.51 774.101C404.204 776.95 404.091 780.26 402.811 783.152C402.808 783.038 402.807 782.923 402.803 782.809C402.625 777.853 404.265 773.395 404.136 768.609C403.886 759.303 394.897 750.525 391.477 742.074C391.182 741.347 391.019 740.745 390.507 740.144C389.985 739.53 390.294 740.054 389.85 739.211C389.769 739.057 389.697 738.899 389.621 738.743Z"/>
	<defs>
		<linearGradient id="gradient_8" gradientUnits="userSpaceOnUse" x1="507.25079" y1="833.94324" x2="531.08856" y2="921.57184">
			<stop offset="0" stop-color="#024A62"/>
			<stop offset="1" stop-color="#01779A"/>
		</linearGradient>
	</defs>
	<path fill="url(#gradient_8)" d="M452.053 810.112L452.908 810.528C463.171 815.596 473.463 821.688 484.914 823.872C501.242 828.627 517.19 835.458 533.3 840.973C563.119 851.172 592.592 862.531 622.192 873.355L646.109 881.928C649.987 883.291 654.61 884.375 658.206 886.303L658.07 886.959C656.971 887.506 655.826 887.693 654.716 888.237C645.856 888.183 637.454 889.542 629.076 892.496C624.679 894.046 609.393 894.199 603.948 894.553C592.379 895.303 580.85 896.617 569.277 897.36C561.525 897.858 553.733 897.905 545.968 898.095L511.812 898.659C505.553 898.782 499.135 898.682 492.923 899.419C488.383 899.684 483.645 899.337 479.091 899.238C466.287 898.959 453.519 898.138 440.727 897.536C426.571 896.87 412.514 897.205 398.37 896.117C395.463 894.345 389.075 896.016 386.813 892.951C387.825 891.616 389.855 890.754 391.497 890.463C396.343 889.605 401.123 887.8 405.908 886.596C415.134 884.273 424.484 882.623 433.534 879.59C438.153 878.042 442.501 875.434 447.168 874.126C449.831 873.38 451.471 871.791 453.805 870.442C462.073 865.661 467.899 860.349 473.942 852.949C476.539 849.769 479.033 846.363 482.137 843.649C493.121 834.049 508.343 837.535 521.618 838.261C521.506 837.511 521.691 837.878 520.65 837.505C514.868 835.434 509.148 833.176 503.347 831.163C493.475 827.737 457.734 817.752 452.537 810.806C452.368 810.58 452.214 810.343 452.053 810.112Z"/>
	<path fill="#000102" d="M444.207 130.1C448.681 129.737 452.638 130.002 457.009 131.038C466.039 133.176 474.964 137.286 483.578 140.7Q503.173 148.521 522.865 156.094C527.347 157.822 532.29 160.256 536.922 161.372L537.394 160.46C540.173 160.205 543.698 162.308 546.258 163.208C560.292 168.142 574.612 172.529 588.688 177.436C600.853 181.676 613.081 186.627 625.42 190.253C628.223 190.017 630.328 191.698 632.982 192.267C634.639 192.622 636.47 192.663 638.161 192.819C649.698 193.889 663.147 194.328 674.506 191.872C679.635 190.763 684.595 188.837 689.624 187.338C687.944 186.729 685.615 186.319 684.618 184.846C691.915 187.137 701.329 190.267 707.503 194.74C718.449 199.378 727.246 210.614 731.603 221.395C733.005 224.862 734.397 229.156 734.544 232.915C735.795 238.688 735.067 245.876 734.954 251.812L734.124 380.5C733.965 399.679 734.624 419.02 733.93 438.173C734.432 454.04 733.993 470.031 733.974 485.912L733.603 585.822Q733.234 702.829 734.088 819.832C733.973 823.018 734.413 828.258 733.125 831.079C732.004 842.686 729.095 845.996 724.335 856.001C721.916 857.855 710.19 864.478 707.577 864.246C706.939 864.189 706.288 863.649 705.782 863.298C703.928 869.301 701.505 873.613 697.438 878.386C696.425 879.576 694.721 880.868 693.926 882.119C688.033 886.024 682.563 888.737 675.379 889.249C669.245 889.128 664.101 887.99 658.206 886.303C654.61 884.375 649.987 883.291 646.109 881.928L622.192 873.355C592.592 862.531 563.119 851.172 533.3 840.973C517.19 835.458 501.242 828.627 484.914 823.872C485.746 822.738 486.853 821.691 487.81 820.652C478.862 817.216 469.504 814.293 460.774 810.366L461.375 810.198C469.102 810.408 475.728 816.653 483.198 818.085C485.711 818.567 488.498 819.356 491.054 819.322C492.157 819.307 491.743 819.488 492.443 818.766L491.263 818.566C489.808 817.031 486.05 816.256 484.047 815.544C468.083 809.871 450.535 804.082 441.977 788.101L442.377 787.417C440.798 783.65 437.519 778.493 437.686 774.329C437.737 773.08 437.811 772.88 438.659 772.058L438.09 770.174C436.165 761.537 436.721 752.93 436.762 744.152L436.865 716.515C436.879 712.459 437.826 705.666 436.301 701.988C437.572 698.995 440.131 695.613 442.166 693.031L445.033 691.153C445.567 691.202 446.098 691.273 446.63 691.341C446.823 691.366 447.018 691.383 447.211 691.41C453.128 692.235 460 696.253 465.529 698.646C471.568 701.259 478.232 703.989 484.524 705.89C489.612 707.427 494.45 707.244 499.523 708.125C501.627 708.491 503.185 710.036 505.111 710.404C506.456 710.662 507.944 710.376 509.311 710.466C513.554 710.747 517.668 712.098 521.412 714.024C523.533 715.114 539.485 716.026 544.095 717.12C546.201 717.62 548.233 717.018 550.356 717.156Q566.974 718.231 583.62 717.724Q600.265 717.217 616.787 715.133C620.771 714.665 626.799 709.481 630.423 710.336C634.82 711.374 645.603 723.612 650.096 726.948L649.966 727.738L675.002 750.514C680.906 755.803 687.097 760.82 692.686 766.432C692.8 766.547 692.936 766.637 693.061 766.739Q693.201 760.195 693.096 753.65C693.597 748.229 693.337 742.551 693.345 737.104L693.36 709.184L693.419 621.199L693.474 479.593C693.513 453.286 694.31 426.744 693.414 400.462C693.928 377.914 693.497 355.206 693.347 332.645L693.516 287.597C693.526 278.733 694.09 269.449 692.926 260.664C692.214 255.285 690.8 250.103 688.333 245.26Q688.033 244.42 687.672 243.605C677.595 221.097 657.556 217.01 636.516 208.809C636.188 211.425 635.808 213.991 634.926 216.492C633.302 221.098 630.373 225.068 625.789 227.03C618.609 230.103 611.323 226.443 604.617 223.848C604.489 223.779 604.363 223.709 604.235 223.642C595.999 219.338 586.378 216.5 577.644 213.187L523.781 192.901C513.824 189.159 502.131 185.94 493.591 179.468C486.965 174.445 482.113 167.145 479.614 159.259C478.809 156.718 478.369 154.058 477.828 151.452C467.442 147.435 453.101 139.793 442.033 144.645C437.698 146.546 433.87 150.333 432.321 154.835C429.547 162.9 431.02 202.899 431.041 213.76Q430.833 268.132 431.441 322.5L431.918 592.793C430.972 601.249 431.41 610.151 431.211 618.679C430.666 641.996 430.824 665.285 430.698 688.61C429.645 689.255 428.342 689.389 427.132 689.591C425.525 689.859 422.039 690.63 420.803 689.733C420.433 671.252 420.924 652.702 420.725 634.208L420.01 277.411C419.651 267.24 420.004 256.918 419.964 246.726C420.593 241.718 420.088 236.029 420.081 230.953L420.013 185.504C420.004 176.38 419.535 167.01 420.476 157.936C420.903 153.822 421.767 149.718 423.553 145.964C427.633 137.389 435.765 133.282 444.207 130.1ZM536.922 161.372Q581.699 178.67 626.719 195.324C639.281 200.035 666.226 208.652 676.182 215.632C685.677 222.29 692.661 232.664 697.149 243.194C699.451 248.598 700.436 253.628 700.74 259.471C701.846 280.738 700.952 304.237 700.965 325.73L701.182 462.257L701.347 712.141L701.142 803.633C701.114 819.253 701.521 834.973 701.075 850.582C700.932 855.612 700.428 861.083 698.49 865.775C695.499 873.013 690.419 878.512 683.064 881.517C681.466 882.169 679.787 882.655 678.136 883.153C675.341 883.831 672.068 884.869 669.183 884.479C658.027 882.968 636.689 873.866 625.197 869.733C610.479 864.441 592.049 858.854 578.025 852.415C573.394 851.582 568.198 849.061 563.742 847.412Q550.261 842.313 536.603 837.708C535.891 839.28 534.654 840.003 533.3 840.973C563.119 851.172 592.592 862.531 622.192 873.355L646.109 881.928C649.987 883.291 654.61 884.375 658.206 886.303C664.101 887.99 669.245 889.128 675.379 889.249C682.563 888.737 688.033 886.024 693.926 882.119C694.721 880.868 696.425 879.576 697.438 878.386C701.505 873.613 703.928 869.301 705.782 863.298C708.574 851.714 707.157 830.45 707.125 817.716L706.979 747.388C706.959 734.72 706.518 721.895 707.113 709.245C707.429 702.463 707.122 695.529 707.114 688.734L707.124 646.55L707.67 495.361C707.186 485.775 707.72 475.891 707.807 466.279L707.993 417.05L708.043 262.242C708.494 262.291 709.533 262.479 709.967 262.423C713.986 261.186 732.391 255.165 734.462 252.04L734.954 251.812C735.067 245.876 735.795 238.688 734.544 232.915C734.397 229.156 733.005 224.862 731.603 221.395C727.246 210.614 718.449 199.378 707.503 194.74C701.329 190.267 691.915 187.137 684.618 184.846C685.615 186.319 687.944 186.729 689.624 187.338C684.595 188.837 679.635 190.763 674.506 191.872C663.147 194.328 649.698 193.889 638.161 192.819C636.47 192.663 634.639 192.622 632.982 192.267C630.328 191.698 628.223 190.017 625.42 190.253C613.081 186.627 600.853 181.676 588.688 177.436C574.612 172.529 560.292 168.142 546.258 163.208C543.698 162.308 540.173 160.205 537.394 160.46L536.922 161.372ZM542.938 181.096C542.495 182.836 542.151 183.367 542.781 185.089C547.207 189.188 579.976 201.525 586.982 203.291C587.419 201.602 587.848 200.797 587.332 199.105C582.748 195.483 549.742 183.032 542.938 181.096Z"/>
	<path fill="#05E5EE" fill-opacity="0.98823529" d="M542.938 181.096C549.742 183.032 582.748 195.483 587.332 199.105C587.848 200.797 587.419 201.602 586.982 203.291C579.976 201.525 547.207 189.188 542.781 185.089C542.151 183.367 542.495 182.836 542.938 181.096Z"/>
	<path fill="#0183A2" d="M578.025 852.415L578.79 852.152C578.11 851.634 578.294 851.669 577.645 851.458C574.252 850.359 560.711 845.997 558.462 844.111C562.998 842.901 571.831 849.163 577.189 849.225C577.475 849.229 577.762 849.214 578.048 849.208C598.088 855.464 617.798 863.836 637.483 871.175C650.897 876.175 663.784 881.634 678.136 883.153C675.341 883.831 672.068 884.869 669.183 884.479C658.027 882.968 636.689 873.866 625.197 869.733C610.479 864.441 592.049 858.854 578.025 852.415Z"/>
	<defs>
		<linearGradient id="gradient_9" gradientUnits="userSpaceOnUse" x1="523.79663" y1="819.78369" x2="523.20538" y2="842.63879">
			<stop offset="0" stop-color="#00435F"/>
			<stop offset="1" stop-color="#076C81"/>
		</linearGradient>
	</defs>
	<path fill="url(#gradient_9)" d="M442.377 787.417C445.537 792.197 449.814 797.782 454.514 801.119C465.922 809.218 480.285 813.409 493.33 818.15L545.903 837.344C556.457 841.125 567.933 844.445 578.048 849.208C577.762 849.214 577.475 849.229 577.189 849.225C571.831 849.163 562.998 842.901 558.462 844.111C560.711 845.997 574.252 850.359 577.645 851.458C578.294 851.669 578.11 851.634 578.79 852.152L578.025 852.415C573.394 851.582 568.198 849.061 563.742 847.412Q550.261 842.313 536.603 837.708C535.891 839.28 534.654 840.003 533.3 840.973C517.19 835.458 501.242 828.627 484.914 823.872C485.746 822.738 486.853 821.691 487.81 820.652C478.862 817.216 469.504 814.293 460.774 810.366L461.375 810.198C469.102 810.408 475.728 816.653 483.198 818.085C485.711 818.567 488.498 819.356 491.054 819.322C492.157 819.307 491.743 819.488 492.443 818.766L491.263 818.566C489.808 817.031 486.05 816.256 484.047 815.544C468.083 809.871 450.535 804.082 441.977 788.101L442.377 787.417Z"/>
	<path fill="#029BB8" d="M487.81 820.652C491.991 822.739 496.902 824.031 501.344 825.5Q514.152 829.638 526.877 834.024C530.018 835.134 533.697 836.111 536.603 837.708C535.891 839.28 534.654 840.003 533.3 840.973C517.19 835.458 501.242 828.627 484.914 823.872C485.746 822.738 486.853 821.691 487.81 820.652Z"/>
	<defs>
		<linearGradient id="gradient_10" gradientUnits="userSpaceOnUse" x1="528.56909" y1="521.21863" x2="729.74847" y2="536.2301">
			<stop offset="0" stop-color="#03C6E0"/>
			<stop offset="1" stop-color="#02FBFD" stop-opacity="0.98823529"/>
		</linearGradient>
	</defs>
	<path fill="url(#gradient_10)" d="M536.922 161.372L537.394 160.46C540.173 160.205 543.698 162.308 546.258 163.208C560.292 168.142 574.612 172.529 588.688 177.436C600.853 181.676 613.081 186.627 625.42 190.253C628.223 190.017 630.328 191.698 632.982 192.267C634.639 192.622 636.47 192.663 638.161 192.819C649.698 193.889 663.147 194.328 674.506 191.872C679.635 190.763 684.595 188.837 689.624 187.338C687.944 186.729 685.615 186.319 684.618 184.846C691.915 187.137 701.329 190.267 707.503 194.74C718.449 199.378 727.246 210.614 731.603 221.395C733.005 224.862 734.397 229.156 734.544 232.915C735.795 238.688 735.067 245.876 734.954 251.812L734.462 252.04C732.391 255.165 713.986 261.186 709.967 262.423C709.533 262.479 708.494 262.291 708.043 262.242L707.993 417.05L707.807 466.279C707.72 475.891 707.186 485.775 707.67 495.361L707.124 646.55L707.114 688.734C707.122 695.529 707.429 702.463 707.113 709.245C706.518 721.895 706.959 734.72 706.979 747.388L707.125 817.716C707.157 830.45 708.574 851.714 705.782 863.298C703.928 869.301 701.505 873.613 697.438 878.386C696.425 879.576 694.721 880.868 693.926 882.119C688.033 886.024 682.563 888.737 675.379 889.249C669.245 889.128 664.101 887.99 658.206 886.303C654.61 884.375 649.987 883.291 646.109 881.928L622.192 873.355C592.592 862.531 563.119 851.172 533.3 840.973C534.654 840.003 535.891 839.28 536.603 837.708Q550.261 842.313 563.742 847.412C568.198 849.061 573.394 851.582 578.025 852.415C592.049 858.854 610.479 864.441 625.197 869.733C636.689 873.866 658.027 882.968 669.183 884.479C672.068 884.869 675.341 883.831 678.136 883.153C679.787 882.655 681.466 882.169 683.064 881.517C690.419 878.512 695.499 873.013 698.49 865.775C700.428 861.083 700.932 855.612 701.075 850.582C701.521 834.973 701.114 819.253 701.142 803.633L701.347 712.141L701.182 462.257L700.965 325.73C700.952 304.237 701.846 280.738 700.74 259.471C700.436 253.628 699.451 248.598 697.149 243.194C692.661 232.664 685.677 222.29 676.182 215.632C666.226 208.652 639.281 200.035 626.719 195.324Q581.699 178.671 536.922 161.372Z"/>
	<path fill="#02C8D4" d="M734.544 232.915C735.795 238.688 735.067 245.876 734.954 251.812L734.462 252.04L734.567 243.942C726.153 247.297 717.69 250.979 708.914 253.272C708.978 255.878 708.483 260.25 709.967 262.423C709.533 262.479 708.494 262.291 708.043 262.242C708.113 257.439 707.664 253.174 706.69 248.46C715.477 246.142 725.838 241.523 733.905 237.261C734.752 236.057 734.521 234.335 734.544 232.915Z"/>
	<path fill="#05E5EE" d="M708.914 253.272C717.69 250.979 726.153 247.297 734.567 243.942L734.462 252.04C732.391 255.165 713.986 261.186 709.967 262.423C708.483 260.25 708.978 255.878 708.914 253.272Z"/>
	<path fill="#029BB8" d="M684.618 184.846C691.915 187.137 701.329 190.267 707.503 194.74C704.532 194.92 700.267 191.938 697.364 190.8C690.78 195.879 683.619 196.864 675.744 198.542C673.635 198.991 671.546 199.755 669.393 199.939C664.963 200.317 660.243 199.785 655.898 200.687C660.071 202.282 667.753 204.014 671.255 206.147C664.772 205.469 632.414 193.328 625.42 190.253C628.223 190.017 630.328 191.698 632.982 192.267C634.639 192.622 636.47 192.663 638.161 192.819C649.698 193.889 663.147 194.328 674.506 191.872C679.635 190.763 684.595 188.837 689.624 187.338C687.944 186.729 685.615 186.319 684.618 184.846Z"/>
	<defs>
		<linearGradient id="gradient_11" gradientUnits="userSpaceOnUse" x1="779.24078" y1="827.60565" x2="651.57898" y2="415.11655">
			<stop offset="0" stop-color="#001F35"/>
			<stop offset="1" stop-color="#036A94"/>
		</linearGradient>
	</defs>
	<path fill="url(#gradient_11)" d="M734.462 252.04L734.954 251.812L734.124 380.5C733.965 399.679 734.624 419.02 733.93 438.173C734.432 454.04 733.993 470.031 733.974 485.912L733.603 585.822Q733.234 702.829 734.088 819.832C733.973 823.018 734.413 828.258 733.125 831.079C732.004 842.686 729.095 845.996 724.335 856.001C721.916 857.855 710.19 864.478 707.577 864.246C706.939 864.189 706.288 863.649 705.782 863.298C708.574 851.714 707.157 830.45 707.125 817.716L706.979 747.388C706.959 734.72 706.518 721.895 707.113 709.245C707.429 702.463 707.122 695.529 707.114 688.734L707.124 646.55L707.67 495.361C707.186 485.775 707.72 475.891 707.807 466.279L707.993 417.05L708.043 262.242C708.494 262.291 709.533 262.479 709.967 262.423C713.986 261.186 732.391 255.165 734.462 252.04Z"/>
	<defs>
		<linearGradient id="gradient_12" gradientUnits="userSpaceOnUse" x1="712.83051" y1="864.3114" x2="719.29547" y2="838.03284">
			<stop offset="0" stop-color="#020F25"/>
			<stop offset="1" stop-color="#022947"/>
		</linearGradient>
	</defs>
	<path fill="url(#gradient_12)" d="M707.113 709.245L707.16 709.875C707.956 721.554 707.421 733.614 707.448 745.336C707.518 775.169 706.912 805.238 708.125 835.037L708.665 835.33L708.363 836.818L708.351 836.821L709.117 835.951C713.313 837.257 726.735 843.922 730.387 842.461C731.279 839.118 732.208 835.418 732.471 831.978C732.499 831.607 732.56 831.239 732.613 830.87L733.125 831.079C732.004 842.686 729.095 845.996 724.335 856.001C721.916 857.855 710.19 864.478 707.577 864.246C706.939 864.189 706.288 863.649 705.782 863.298C708.574 851.714 707.157 830.45 707.125 817.716L706.979 747.388C706.959 734.72 706.518 721.895 707.113 709.245Z"/>
	<defs>
		<linearGradient id="gradient_13" gradientUnits="userSpaceOnUse" x1="771.67126" y1="412.15268" x2="686.08075" y2="277.22113">
			<stop offset="0" stop-color="#026DA1"/>
			<stop offset="1" stop-color="#02AFCC"/>
		</linearGradient>
	</defs>
	<path fill="url(#gradient_13)" d="M734.462 252.04L734.954 251.812L734.124 380.5C733.965 399.679 734.624 419.02 733.93 438.173L733.838 439.037C733.149 445.987 734.005 453.104 733.349 460.116C732.277 452.639 733.23 444.625 732.562 437.04C730.59 443.141 732.561 451.358 731.719 457.787C731.447 455.986 731.599 453.299 731.067 451.673C730.836 457.503 731.239 463.385 730.903 469.193L731.181 481.548C729.838 482.802 728.366 483.943 726.919 485.074C724.516 486.952 721.561 489.338 718.35 488.935C714.662 485.185 716.694 456.536 716.44 449.674L716.334 450.438C715.076 460.187 716.531 470.356 715.805 480.155C714.671 467.885 715.293 455.328 715.737 443.012C715.948 437.174 716.388 431.257 715.947 425.425C715.535 419.975 713.385 413.599 711.609 408.404C710.621 405.515 709.424 403.403 709.257 400.273C709.222 399.599 709.172 398.933 709.146 398.258L708.792 397.84C708.747 408.53 709.812 491.794 707.67 495.361C707.186 485.775 707.72 475.891 707.807 466.279L707.993 417.05L708.043 262.242C708.494 262.291 709.533 262.479 709.967 262.423C713.986 261.186 732.391 255.165 734.462 252.04Z"/>
	<path fill="#06192A" d="M729.42 372.179L731.025 372.367L731.019 426.977C731.04 435.172 730.729 443.493 731.067 451.673C730.836 457.503 731.239 463.385 730.903 469.193L730.294 469.989C730.199 472.478 731.123 477.709 730.301 479.717C729.069 476.944 730.313 472.008 729.51 468.759C728.659 463.154 729.389 456.403 729.417 450.683C729.496 434.515 730.17 418.109 729.442 401.961C729.497 392.046 729.743 382.089 729.42 372.179Z"/>
	<path fill="#0183A2" d="M716.991 373.203C719.616 371.132 723.585 368.507 726.835 367.738C728.303 367.391 729.154 367.554 730.447 368.279C731.354 369.721 731.168 370.757 731.025 372.367L729.42 372.179C729.743 382.089 729.497 392.046 729.442 401.961C730.17 418.109 729.496 434.515 729.417 450.683C729.389 456.403 728.659 463.154 729.51 468.759C730.313 472.008 729.069 476.944 730.301 479.717C731.123 477.709 730.199 472.478 730.294 469.989L730.903 469.193L731.181 481.548C729.838 482.802 728.366 483.943 726.919 485.074C724.516 486.952 721.561 489.338 718.35 488.935C714.662 485.185 716.694 456.536 716.44 449.674C717.644 424.256 715.796 398.634 716.991 373.203Z"/>
	<path fill="#02C8D4" d="M729.42 372.179C729.743 382.089 729.497 392.046 729.442 401.961C728.79 409.6 728.965 417.366 728.886 425.03C728.856 427.956 729.223 431.392 728.62 434.215L728.058 426.667C726.231 425.854 724.395 425.147 722.511 424.478L722.395 435.075C721.806 424.79 722.779 414.133 721.582 403.935C721.3 394.72 721.505 385.439 721.483 376.216C723.94 374.535 726.517 372.93 729.42 372.179Z"/>
	<defs>
		<linearGradient id="gradient_14" gradientUnits="userSpaceOnUse" x1="755.5755" y1="404.68921" x2="691.6839" y2="450.47507">
			<stop offset="0" stop-color="black"/>
			<stop offset="1" stop-color="#071426"/>
		</linearGradient>
	</defs>
	<path fill="url(#gradient_14)" d="M716.991 373.203C719.616 371.132 723.585 368.507 726.835 367.738C728.303 367.391 729.154 367.554 730.447 368.279C731.354 369.721 731.168 370.757 731.025 372.367L729.42 372.179C726.517 372.93 723.94 374.535 721.483 376.216C721.505 385.439 721.3 394.72 721.582 403.935C720.966 430.728 721.84 457.58 721.554 484.381C724.215 482.937 726.819 481.511 729.306 479.777L729.51 468.759C730.313 472.008 729.069 476.944 730.301 479.717C731.123 477.709 730.199 472.478 730.294 469.989L730.903 469.193L731.181 481.548C729.838 482.802 728.366 483.943 726.919 485.074C724.516 486.952 721.561 489.338 718.35 488.935C714.662 485.185 716.694 456.536 716.44 449.674C717.644 424.256 715.796 398.634 716.991 373.203Z"/>
	<defs>
		<linearGradient id="gradient_15" gradientUnits="userSpaceOnUse" x1="575.39752" y1="762.49036" x2="565.32654" y2="860.27051">
			<stop offset="0" stop-color="#046D7F"/>
			<stop offset="1" stop-color="#05C9D8"/>
		</linearGradient>
	</defs>
	<path fill="url(#gradient_15)" d="M445.033 691.153C445.567 691.202 446.098 691.273 446.63 691.341C446.823 691.366 447.018 691.383 447.211 691.41C453.128 692.235 460 696.253 465.529 698.646C471.568 701.259 478.232 703.989 484.524 705.89C489.612 707.427 494.45 707.244 499.523 708.125C501.627 708.491 503.185 710.036 505.111 710.404C506.456 710.662 507.944 710.376 509.311 710.466C513.554 710.747 517.668 712.098 521.412 714.024C523.533 715.114 539.485 716.026 544.095 717.12C546.201 717.62 548.233 717.018 550.356 717.156Q566.974 718.231 583.62 717.724Q600.265 717.217 616.787 715.133C620.771 714.665 626.799 709.481 630.423 710.336C634.82 711.374 645.603 723.612 650.096 726.948L649.966 727.738L675.002 750.514C680.906 755.803 687.097 760.82 692.686 766.432C692.8 766.547 692.936 766.637 693.061 766.739C693.36 777.274 693.51 788.143 692.974 798.666C693.528 805.689 693.058 813.117 693.062 820.179C693.068 829.943 693.422 839.861 692.961 849.609C692.642 856.337 690.498 864.111 685.2 868.624C681.703 871.603 676.224 872.559 671.774 872.262C661.684 871.589 651.269 866.262 641.871 862.758L613.316 852.294L502.631 812.715Q490.906 808.436 479.09 804.418C472.633 802.254 465.875 800.39 459.698 797.528C454.126 794.946 449.72 790.28 445.774 785.706C442.651 781.286 440.502 777.148 438.659 772.058L438.09 770.174C436.165 761.537 436.721 752.93 436.762 744.152L436.865 716.515C436.879 712.459 437.826 705.666 436.301 701.988C437.572 698.995 440.131 695.613 442.166 693.031L445.033 691.153Z"/>
	<path fill="#E9ECF1" d="M546.967 772.235C547.794 772.396 548.789 772.578 549.507 773.055C550.682 773.837 550.708 774.443 550.895 775.708C550.446 777.393 549.597 778.113 548.374 779.253C547.75 779.052 547.316 778.936 546.713 778.626C545.503 778.004 545.168 777.245 544.792 776.022C545.088 774.321 545.881 773.491 546.967 772.235Z"/>
	<path fill="#E9ECF1" d="M657.081 791.829C657.757 791.938 658.6 792.018 659.249 792.279C660.549 792.803 660.917 793.5 661.432 794.72C661.264 796.49 660.639 797.198 659.492 798.516C658.764 798.393 657.929 798.291 657.247 798.005C655.961 797.467 655.625 796.751 655.138 795.53C655.346 793.797 655.935 793.111 657.081 791.829Z"/>
	<defs>
		<linearGradient id="gradient_16" gradientUnits="userSpaceOnUse" x1="596.06476" y1="708.57971" x2="590.21649" y2="777.54126">
			<stop offset="0" stop-color="#014B5C"/>
			<stop offset="1" stop-color="#047B8C"/>
		</linearGradient>
	</defs>
	<path fill="url(#gradient_16)" d="M488.05 768.651C506.167 760.65 524.864 753.617 543.229 746.166L630.491 710.547C636.833 716.263 643.124 722.647 649.966 727.738L675.002 750.514C680.906 755.803 687.097 760.82 692.686 766.432C692.8 766.547 692.936 766.637 693.061 766.739C693.36 777.274 693.51 788.143 692.974 798.666C690.775 791.573 692.95 782.423 692.244 774.951C691.832 775.251 691.411 775.539 691.01 775.854C688.724 777.655 683.79 780.58 680.855 780.408C668.811 779.7 656.266 778.217 644.374 776.1C637.345 774.85 630.45 773.036 623.376 771.986C594.843 767.751 566.726 766.166 537.878 766.738C529.642 766.901 492.783 771.556 488.05 768.651Z"/>
	<defs>
		<linearGradient id="gradient_17" gradientUnits="userSpaceOnUse" x1="527.633" y1="700.12628" x2="513.71857" y2="781.85846">
			<stop offset="0" stop-color="#026579"/>
			<stop offset="1" stop-color="#05A1B5"/>
		</linearGradient>
	</defs>
	<path fill="url(#gradient_17)" d="M445.033 691.153C445.567 691.202 446.098 691.273 446.63 691.341C446.823 691.366 447.018 691.383 447.211 691.41C453.128 692.235 460 696.253 465.529 698.646C471.568 701.259 478.232 703.989 484.524 705.89C489.612 707.427 494.45 707.244 499.523 708.125C501.627 708.491 503.185 710.036 505.111 710.404C506.456 710.662 507.944 710.376 509.311 710.466C513.554 710.747 517.668 712.098 521.412 714.024C523.533 715.114 539.485 716.026 544.095 717.12C546.201 717.62 548.233 717.018 550.356 717.156Q566.974 718.231 583.62 717.724Q600.265 717.217 616.787 715.133C620.771 714.665 626.799 709.481 630.423 710.336C634.82 711.374 645.603 723.612 650.096 726.948L649.966 727.738C643.124 722.647 636.833 716.263 630.491 710.547L543.229 746.166C524.864 753.617 506.167 760.65 488.05 768.651C484.682 769.973 481.117 771.797 477.667 772.769Q461.78 779.383 445.774 785.706C442.651 781.286 440.502 777.148 438.659 772.058L438.09 770.174C436.165 761.537 436.721 752.93 436.762 744.152L436.865 716.515C436.879 712.459 437.826 705.666 436.301 701.988C437.572 698.995 440.131 695.613 442.166 693.031L445.033 691.153Z"/>
	<path fill="#029BB8" d="M438.09 770.174C441.306 768.497 445.108 770.411 448.504 770.973C455.191 772.078 474.51 770.211 477.769 771.476C477.908 771.53 478.032 771.616 478.164 771.687L477.667 772.769Q461.78 779.383 445.774 785.706C442.651 781.286 440.502 777.148 438.659 772.058L438.09 770.174Z"/>
	<defs>
		<linearGradient id="gradient_18" gradientUnits="userSpaceOnUse" x1="381.16437" y1="407.31299" x2="742.76288" y2="481.04395">
			<stop offset="0" stop-color="#023348"/>
			<stop offset="1" stop-color="#005270"/>
		</linearGradient>
	</defs>
	<path fill="url(#gradient_18)" d="M431.918 592.793L431.441 322.5Q430.833 268.131 431.041 213.76C431.02 202.899 429.547 162.9 432.321 154.835C433.87 150.333 437.698 146.546 442.033 144.645C453.101 139.793 467.442 147.435 477.828 151.452C478.369 154.058 478.809 156.718 479.614 159.259C482.113 167.145 486.965 174.445 493.591 179.468C502.131 185.94 513.824 189.159 523.781 192.901L577.644 213.187C586.378 216.5 595.999 219.338 604.235 223.642C604.363 223.709 604.489 223.779 604.617 223.848C611.323 226.443 618.609 230.103 625.789 227.03C630.373 225.068 633.302 221.098 634.926 216.492C635.808 213.991 636.188 211.425 636.516 208.809C657.556 217.01 677.595 221.097 687.672 243.605Q688.033 244.42 688.333 245.26C690.8 250.103 692.214 255.285 692.926 260.664C694.09 269.449 693.526 278.733 693.516 287.597L693.347 332.645C693.497 355.206 693.928 377.914 693.414 400.462C694.31 426.744 693.513 453.286 693.474 479.593L693.419 621.199L693.36 709.184L693.345 737.104C693.337 742.551 693.597 748.229 693.096 753.65Q693.201 760.195 693.061 766.739C692.936 766.637 692.8 766.547 692.686 766.432C687.097 760.82 680.906 755.803 675.002 750.514L649.966 727.738L650.096 726.948C645.603 723.612 634.82 711.374 630.423 710.336C626.799 709.481 620.771 714.665 616.787 715.133Q600.265 717.217 583.62 717.724Q566.974 718.231 550.356 717.156C548.233 717.018 546.201 717.62 544.095 717.12C539.485 716.026 523.533 715.114 521.412 714.024C517.668 712.098 513.554 710.747 509.311 710.466C507.944 710.376 506.456 710.662 505.111 710.404C503.185 710.036 501.627 708.491 499.523 708.125C494.45 707.244 489.612 707.427 484.524 705.89C478.232 703.989 471.568 701.259 465.529 698.646C460 696.253 453.128 692.235 447.211 691.41C447.018 691.383 446.823 691.366 446.63 691.341C446.098 691.273 445.567 691.202 445.033 691.153L442.166 693.031L445.182 688.021C440.415 688.625 435.777 689.926 430.993 690.519C431.358 689.954 431.658 689.463 431.754 688.771C432.381 684.286 431.791 678.915 431.806 674.312L432.019 642.758C430.603 638.001 432.279 601.345 431.918 592.793ZM460.407 343.253C458.91 352.01 459.892 371.962 459.866 381.626C459.798 407.167 459.178 432.812 459.755 458.342L460.034 461.057C460.595 467.094 463.724 473.502 467.809 477.939C469.966 480.282 472.378 481.972 475.316 483.191C489.557 489.096 504.797 493.25 519.266 498.707C543.351 507.79 567.256 517.556 591.232 526.941C600.201 530.452 626.837 542.413 634.845 542.569C638.062 542.632 641.699 539.992 643.894 537.856C646.272 535.543 647.862 532.841 648.382 529.544C649.959 519.547 648.702 502.398 648.646 491.823Q648.331 449.71 648.553 407.597C648.423 403.269 648.518 398.911 648.506 394.58C635.944 389.036 622.863 384.523 610.038 379.622Q568.203 363.896 526.166 348.716C514.464 344.559 502.512 340.849 490.959 336.315C483.659 333.789 474.524 329.345 466.974 333.213C463.844 334.817 461.808 338.216 460.81 341.501C460.64 342.062 460.477 342.676 460.407 343.253Z"/>
	<path fill="#E9ECF1" d="M514.907 698.571C515.907 698.751 516.546 699.094 517.415 699.61C518.038 700.723 518.433 701.156 518.054 702.478C517.655 703.868 516.409 704.501 515.258 705.173C514.624 704.852 513.581 704.41 513.093 703.869C512.177 702.856 512.215 702.293 512.191 701.024C512.985 699.62 513.538 699.3 514.907 698.571Z"/>
	<path fill="#036F88" d="M432.019 642.758C432.09 643.068 432.167 643.377 432.233 643.689C433.366 649.034 431.37 676.839 433.145 678.405C433.87 679.045 434.785 679.347 435.515 680.081C439.413 684.005 438.11 687.428 445.046 687.317L445.597 687.732C445.527 688.94 445.337 689.982 445.033 691.153L442.166 693.031L445.182 688.021C440.415 688.625 435.777 689.926 430.993 690.519C431.358 689.954 431.658 689.463 431.754 688.771C432.381 684.286 431.791 678.915 431.806 674.312L432.019 642.758Z"/>
	<path fill="#05E5EE" d="M607.367 636.158C616.035 639.056 658.21 653.709 662.936 657.584C663.419 658.786 663.395 659.012 663.199 660.303C662.105 661.114 661.63 661.281 660.251 661.097C655.313 660.442 645.394 655.263 640.154 653.27C627.982 648.64 615.585 644.531 603.464 639.78C604.572 639.588 605.342 639.622 606.404 640.048C607.449 640.467 606.788 640.447 607.903 640.211C608.492 639.014 608.709 638.806 608.526 637.508L607.051 636.869L607.367 636.158Z"/>
	<path fill="#0183A2" d="M546.599 592.341C538.038 590.089 529.306 586.119 520.907 583.138C510.724 579.524 500.523 575.508 490.276 572.136C487.465 571.212 484.506 570.643 481.737 569.622C480.279 569.084 478.901 568.382 477.664 567.431C476.398 566.458 475.842 565.593 475.647 564.025L476.479 563.08C477.796 562.728 478.826 562.638 480.166 562.977C484.65 564.111 489.53 566.551 493.984 568.099Q511.289 574.214 528.53 580.504C535.158 582.908 542.367 584.995 548.626 588.216C548.333 588.222 548.04 588.236 547.747 588.234C541.163 588.189 523.255 577.131 518.35 579L517.741 579.943C518.198 581.077 518.563 581.63 519.727 582.15C521.442 582.917 523.589 583.102 525.4 583.659C529.855 585.029 544.014 589.414 546.599 592.341Z"/>
	<path fill="#036F88" d="M650.096 726.948C659.712 725.833 684.505 741.094 690.936 732.167C693.506 728.601 692.015 723.188 692.239 719.071L692.714 719.036C693.572 730.462 691.794 742.293 693.096 753.65Q693.201 760.195 693.061 766.739C692.936 766.637 692.8 766.547 692.686 766.432C687.097 760.82 680.906 755.803 675.002 750.514L649.966 727.738L650.096 726.948Z"/>
	<path fill="#02C8D4" d="M546.599 592.341C544.014 589.414 529.855 585.029 525.4 583.659C523.589 583.102 521.442 582.917 519.727 582.15C518.563 581.63 518.198 581.077 517.741 579.943L518.35 579C523.255 577.131 541.163 588.189 547.747 588.234C548.04 588.236 548.333 588.222 548.626 588.216C554.101 589.767 559.442 592.052 564.785 594.025Q576.859 598.422 588.981 602.685C612.065 610.877 635.512 618.567 658.323 627.464C660.003 628.119 661.758 628.792 663.068 630.066C663.271 631.428 663.403 632.003 662.739 633.278C661.355 633.819 660.64 633.797 659.201 633.37C656.524 632.576 653.848 631.145 651.191 630.192L626.283 621.279L546.599 592.341Z"/>
	<path fill="#029BB8" d="M603.464 639.78C597.99 639.118 584.613 632.905 578.759 630.815Q542.797 618.19 507.051 604.964C498.974 602.056 484.014 597.859 476.942 593.959C476.348 592.359 476.431 590.846 476.439 589.17L476.959 588.937C480.172 589.584 482.974 591.189 486.079 592.169C506.385 598.573 526.317 606.294 546.313 613.616L587.966 628.695C594.385 631.064 601.22 633.165 607.367 636.158L607.051 636.869L608.526 637.508C608.709 638.806 608.492 639.014 607.903 640.211C606.788 640.447 607.449 640.467 606.404 640.048C605.342 639.622 604.572 639.588 603.464 639.78Z"/>
	<path fill="#029BB8" d="M476.272 615.105C483.232 616.802 490.139 619.686 496.919 622.063Q518.555 629.641 540.044 637.628L583.875 653.659C592.773 656.889 601.909 659.858 610.609 663.579C611.348 665.163 611.01 667.424 610.971 669.149C598.37 665.124 585.943 660.211 573.496 655.706C541.063 643.967 508.852 631.753 476.064 621.021C475.999 619.028 476.113 617.092 476.272 615.105Z"/>
	<defs>
		<linearGradient id="gradient_19" gradientUnits="userSpaceOnUse" x1="493.78308" y1="350.72131" x2="700.98297" y2="314.04156">
			<stop offset="0" stop-color="#015171"/>
			<stop offset="1" stop-color="#01769C"/>
		</linearGradient>
	</defs>
	<path fill="url(#gradient_19)" d="M636.516 208.809C657.556 217.01 677.595 221.097 687.672 243.605Q688.033 244.42 688.333 245.26C690.8 250.103 692.214 255.285 692.926 260.664C694.09 269.449 693.526 278.733 693.516 287.597L693.347 332.645C693.497 355.206 693.928 377.914 693.414 400.462C692.153 416.273 693.098 432.451 692.695 448.322C691.54 444.244 692.869 438.664 692.584 434.349C692.425 431.941 690.9 429.586 690.036 427.366C687.829 421.688 686.943 415.533 681.168 412.282C677.531 410.235 673.307 408.775 669.438 407.186C666.699 406.061 665.305 403.232 662.55 402.145C659.264 400.848 653.059 395.634 649.791 395.998C648.992 399.827 649.415 403.748 648.553 407.597C648.423 403.269 648.518 398.911 648.506 394.58C635.944 389.036 622.863 384.523 610.038 379.622Q568.203 363.896 526.166 348.716C514.464 344.559 502.512 340.849 490.959 336.315C491.243 335.261 490.544 318.988 490.613 315.935L498.355 319.77L498.474 319.547C498.26 318.48 496.727 317.858 495.823 317.252C497.052 316.959 497.548 317.285 498.715 317.646L499.557 317.323C496.551 316.183 493.56 315.303 490.45 314.495L490.349 289.725C515.187 298.163 539.698 307.497 564.432 316.226C568.84 316.27 575.227 319.56 579.433 321.115C594.858 326.819 610.157 332.962 625.686 338.356C627.661 339.041 629.533 340.114 631.52 340.731C632.621 341.072 633.687 341.39 634.783 340.961C635.806 336.13 637.303 326.473 635.682 321.92C632.133 311.951 633.302 294.323 633.21 283.577C633.147 276.166 632.697 268.917 633.042 261.498C633.256 256.903 634.853 247.504 633.983 243.534C633.38 240.787 633.986 235.788 632.883 233.451C632.017 231.616 629.565 231.41 628.991 229.156C629.469 228.186 629.274 228.73 629.513 227.503L628.611 226.682C623.375 229.201 619.231 229.517 613.588 228.091C611.19 227.485 605.835 225.898 604.617 223.848C611.323 226.443 618.609 230.103 625.789 227.03C630.373 225.068 633.302 221.098 634.926 216.492C635.808 213.991 636.188 211.425 636.516 208.809Z"/>
	<path fill="#0183A2" d="M693.347 332.645C691.556 334.499 693.806 342.875 692.553 344.364C692.384 326.981 692.967 309.487 692.438 292.126C692.303 287.708 691.52 283.344 691.323 278.928C690.855 268.46 692.412 256.857 688.242 246.905C687.87 246.015 688.021 246.121 688.333 245.26C690.8 250.103 692.214 255.285 692.926 260.664C694.09 269.449 693.526 278.733 693.516 287.597L693.347 332.645Z"/>
	<defs>
		<linearGradient id="gradient_20" gradientUnits="userSpaceOnUse" x1="566.88452" y1="314.82639" x2="568.66113" y2="373.17221">
			<stop offset="0" stop-color="#01455E"/>
			<stop offset="1" stop-color="#006182"/>
		</linearGradient>
	</defs>
	<path fill="url(#gradient_20)" d="M498.355 319.77L498.474 319.547C498.26 318.48 496.727 317.858 495.823 317.252C497.052 316.959 497.548 317.285 498.715 317.646L499.557 317.323C515.879 321.956 532.005 328.557 548.036 334.169C578.87 344.962 610.103 355.698 640.337 368.059C640.356 361.045 640.12 353.912 640.555 346.916L640.912 345.889L641.521 345.822C643.272 351.191 642.179 366.587 642.146 373.041C608.256 361.921 575.003 348.514 541.554 336.142C534.401 333.496 502.013 322.807 498.355 319.77Z"/>
	<defs>
		<linearGradient id="gradient_21" gradientUnits="userSpaceOnUse" x1="487.48718" y1="318.89398" x2="642.53625" y2="338.42007">
			<stop offset="0" stop-color="#014F6D"/>
			<stop offset="1" stop-color="#0083AD"/>
		</linearGradient>
	</defs>
	<path fill="url(#gradient_21)" d="M490.349 289.725C515.187 298.163 539.698 307.497 564.432 316.226C565.751 317.772 620.329 337.428 625.501 339.373C628.947 340.668 637.45 343.044 639.928 345.218C640.302 345.546 640.486 346.469 640.555 346.916C640.12 353.912 640.356 361.045 640.337 368.059C610.103 355.698 578.87 344.962 548.036 334.169C532.005 328.557 515.879 321.956 499.557 317.323C496.551 316.183 493.56 315.303 490.45 314.495L490.349 289.725Z"/>
	<defs>
		<linearGradient id="gradient_22" gradientUnits="userSpaceOnUse" x1="459.29437" y1="446.47125" x2="650.27771" y2="426.76334">
			<stop offset="0" stop-color="#01CBD1"/>
			<stop offset="1" stop-color="#01F5F8"/>
		</linearGradient>
	</defs>
	<path fill="url(#gradient_22)" d="M460.407 343.253C460.477 342.676 460.64 342.062 460.81 341.501C461.808 338.216 463.844 334.817 466.974 333.213C474.524 329.345 483.659 333.789 490.959 336.315C502.512 340.849 514.464 344.559 526.166 348.716Q568.203 363.896 610.038 379.622C622.863 384.523 635.944 389.036 648.506 394.58C648.518 398.911 648.423 403.269 648.553 407.597Q648.331 449.711 648.646 491.823C648.702 502.398 649.959 519.547 648.382 529.544C647.862 532.841 646.272 535.543 643.894 537.856C641.699 539.992 638.062 542.632 634.845 542.569C626.837 542.413 600.201 530.452 591.232 526.941C567.256 517.556 543.351 507.79 519.266 498.707C504.797 493.25 489.557 489.096 475.316 483.191C472.378 481.972 469.966 480.282 467.809 477.939C463.724 473.502 460.595 467.094 460.034 461.057L459.755 458.342C459.178 432.812 459.798 407.167 459.866 381.626C459.892 371.962 458.91 352.01 460.407 343.253ZM459.755 458.342C467.073 456.534 474.431 452.796 481.326 449.774Q496.41 443.191 511.418 436.437C517.506 433.634 523.887 429.662 530.533 428.538L531.316 428.017C531.259 427.688 531.256 427.345 531.145 427.03C530.437 425.02 519.682 413.22 517.497 410.638C509.802 401.544 501.736 392.748 494.156 383.563C488.617 376.852 483.342 369.044 477.267 362.87C476.704 362.297 476.129 361.957 475.449 361.543C471.823 360.025 464.322 346.826 460.407 343.253C458.91 352.01 459.892 371.962 459.866 381.626C459.798 407.167 459.178 432.812 459.755 458.342Z"/>
	<path fill="#05E5EE" d="M579.838 443.712L579.517 442.414L579.949 442.09L581.473 443.023C581.582 443.188 581.69 443.353 581.801 443.517C584.017 446.762 588.15 448.964 589.139 452.859L588.773 453.993C585.447 451.499 582.448 447.203 579.968 443.861C579.929 443.808 579.881 443.762 579.838 443.712Z"/>
	<path fill="#05E5EE" d="M530.533 428.538L532.39 428.889L530.135 430.604C524.229 434.625 516.095 437.347 509.462 440.142C493.077 447.048 476.021 453.314 460.034 461.057L459.755 458.342C467.073 456.534 474.431 452.796 481.326 449.774Q496.41 443.191 511.418 436.437C517.506 433.634 523.887 429.662 530.533 428.538Z"/>
	<path fill="#036F88" d="M532.39 428.889C535.788 429.609 545.424 448.185 552.102 448.698C554.599 448.889 557.401 448.114 559.729 447.285C569.961 443.644 638.485 405.02 641.249 405.77C639.473 407.956 635.286 409.019 632.797 410.638C624.255 416.194 588.417 441.725 581.473 443.023L579.949 442.09L579.517 442.414L579.838 443.712C577.067 447.865 560.207 456.985 555.172 458.533C553.428 457.7 551.567 456.881 550.109 455.589C544.138 450.295 535.301 437.399 530.135 430.604L532.39 428.889Z"/>
	<path fill="#02C8D4" d="M459.755 458.342C459.178 432.812 459.798 407.167 459.866 381.626C459.892 371.962 458.91 352.01 460.407 343.253C464.322 346.826 471.823 360.025 475.449 361.543C476.129 361.957 476.704 362.297 477.267 362.87C483.342 369.044 488.617 376.852 494.156 383.563C501.736 392.748 509.802 401.544 517.497 410.638C519.682 413.22 530.437 425.02 531.145 427.03C531.256 427.345 531.259 427.688 531.316 428.017L530.533 428.538C523.887 429.662 517.506 433.634 511.418 436.437Q496.41 443.191 481.326 449.774C474.431 452.796 467.073 456.534 459.755 458.342ZM460.407 343.253C460.381 344.438 460.251 345.923 460.638 347.052C462.561 352.669 483.384 378.262 488.792 383.894Q489.979 385.13 491.217 386.316C487.241 377.161 477.841 371.634 475.449 361.543C471.823 360.025 464.322 346.826 460.407 343.253Z"/>
	<path fill="#05E5EE" fill-opacity="0.98823529" d="M460.407 343.253C464.322 346.826 471.823 360.025 475.449 361.543C477.841 371.634 487.241 377.161 491.217 386.316Q489.979 385.13 488.792 383.894C483.384 378.262 462.561 352.669 460.638 347.052C460.251 345.923 460.381 344.438 460.407 343.253Z"/>
</svg>
