<?xml version="1.0" encoding="utf-8" ?>
<svg xmlns="http://www.w3.org/2000/svg" xmlns:xlink="http://www.w3.org/1999/xlink" width="500" height="500">
	<path fill="#878392" d="M53.857 347.686C50.8687 347.973 40.5303 348.232 37.9852 347.5L37.9689 347.332C39.2064 346.726 41.6272 347.519 43.1094 347.397C44.8713 347.253 46.5967 346.738 48.3691 346.581C51.8025 346.277 55.3319 346.29 58.7803 346.238C57.7474 346.603 56.6681 346.621 55.7041 347.118C56.9642 347.328 58.5845 346.795 59.6979 347.326C57.7899 347.687 55.7639 347.154 53.857 347.686Z"/>
	<path fill="#878392" d="M460.87 346.471C465.342 346.349 469.773 347.048 474.232 347.263C477.431 347.417 480.633 347.101 483.825 347.373C475.758 348.06 467.736 347.768 459.646 347.691L457.855 347.368L457.781 347.166L458.412 346.922C460.162 347.37 461.528 347.289 463.305 347.083L463.273 347.022C461.614 346.689 459.903 346.725 458.218 346.687L460.87 346.471Z"/>
	<path fill="#FEFEFE" fill-opacity="0.98823529" d="M278.043 427.192L278.221 427.543C278.21 429.933 278.34 432.176 278.077 434.57C276.46 435.009 273.478 435.544 271.861 435.054C271.437 434.925 271.335 434.848 271.166 434.423C270.601 433.002 270.546 429.015 271.263 427.692C273.257 427.071 275.95 427.296 278.043 427.192Z"/>
	<path fill="#FEFEFE" d="M263.454 419.977C265.954 419.886 268.462 419.982 270.962 420.036C270.939 421.726 271.646 426.391 270.68 427.634Q267.099 427.595 263.518 427.518C263.352 425.132 262.968 422.334 263.454 419.977Z"/>
	<path fill="#FEFEFE" d="M278.043 427.192C277.948 426.427 277.845 425.653 277.814 424.882C277.762 423.548 277.713 421.604 278.811 420.645C279.597 419.958 280.616 419.886 281.609 419.945C283.035 420.029 284.386 419.628 285.734 420.19C285.823 422.196 286.567 425.234 285.373 426.929C283.51 428.187 280.418 427.401 278.221 427.543L278.043 427.192Z"/>
	<path fill="#FEFEFE" d="M256.502 397.518Q259.936 397.5 263.369 397.532C263.64 401.961 263.496 406.439 263.519 410.876C263.533 413.449 263.809 416.235 263.54 418.771C263.476 419.378 263.355 419.548 263 420.022L262.315 420.039C260.098 420.012 257.846 420.046 255.648 420.344C255.365 416.224 254.825 400.629 256.502 397.518Z"/>
	<path fill="#FEFEFE" d="M285.734 420.19C285.04 417.025 284.83 400.433 285.916 397.716C287.94 397.029 291.045 397.466 293.209 397.518C293.503 401.019 294.101 417.494 292.85 419.965C290.907 420.956 287.862 420.308 285.734 420.19Z"/>
	<path fill="#FEFEFE" d="M289.479 304.936C289.318 309.246 287.705 313.027 286.073 316.948L285.907 317.212C284.62 319.278 283.737 321.543 282.275 323.52C280.063 326.51 277.239 329.134 275.144 332.188C274.351 333.044 273.51 333.884 272.768 334.785C272.145 335.344 271.513 335.892 270.935 336.498C265.786 341.085 260.877 346.004 255.814 350.696C253.769 352.592 251.599 355.03 249.211 356.441C246.734 356.615 244.218 356.511 241.735 356.491C244.731 352.928 248.591 349.887 252.009 346.724C256.531 342.538 260.904 338.19 265.471 334.053C266.725 333.491 267.92 331.982 268.868 331.008C269.804 330.277 270.665 329.416 271.542 328.615C274.295 325.931 277.457 323.266 279.79 320.214C284.556 316.131 287.164 310.629 289.479 304.936Z"/>
	<path fill="#FEFEFE" d="M266.673 348.169C266.996 348.456 267.08 348.549 267.142 348.995C267.359 350.564 263.736 360.896 262.617 362.28C260.844 364.474 249.082 376.317 246.982 376.607C243.898 375.207 234.095 365.284 230.542 362.312C229.97 361.792 229.384 361.273 228.851 360.712C228.287 360.119 227.853 359.445 227.991 358.579C228.24 357.011 230.964 355.455 232.203 354.574C234.313 355.893 236.073 357.904 237.887 359.598L246.581 367.668C248.283 366.241 249.785 364.612 251.372 363.061C254.066 360.43 256.867 357.905 259.538 355.249C261.921 352.879 264.141 350.389 266.673 348.169Z"/>
	<path fill="#FEFEFE" d="M32.5208 397.543Q35.9362 397.487 39.3511 397.568C39.4683 399.325 38.9471 403.697 39.997 404.898C41.9843 405.423 44.8586 405.019 46.9712 405.064C46.9444 407.017 47.63 410.846 46.3666 412.348C44.5257 413.313 41.5116 412.761 39.4582 412.659C39.8642 417.72 39.5137 423.033 39.5037 428.128C39.4894 430.428 39.4672 432.717 39.6182 435.014Q35.7459 435.049 31.8739 434.992C31.5287 429.154 30.5835 401.277 32.5208 397.543Z"/>
	<path fill="#FEFEFE" d="M61.9365 397.502C64.1409 397.372 66.7475 397.21 68.9144 397.595C70.1278 399.802 69.1766 429.902 69.542 434.979C67.1104 435.056 64.2523 435.502 61.8858 435.065C60.8259 433.023 61.2925 422.08 61.2812 419.125C61.2234 416.94 61.1561 414.71 61.4483 412.541C59.1208 412.765 56.8188 412.828 54.4837 412.858C54.4902 414.782 54.9112 418.246 53.8967 419.887C52.7862 420.55 51.4156 420.418 50.1638 420.33C49.0926 420.255 47.7794 420.022 47.1285 419.059C46.1125 417.556 46.6256 414.333 46.7585 412.581C49.2001 412.299 51.7057 412.348 54.1622 412.3C54.0601 410.364 53.5096 407.331 54.4277 405.612C55.7359 404.402 59.7816 405.01 61.5934 405.024C61.2052 402.59 61.3043 399.886 61.9365 397.502Z"/>
	<path fill="#FEFEFE" d="M157.917 397.376C157.977 397.37 158.037 397.348 158.097 397.358C158.418 397.415 158.716 397.504 158.845 397.817C159.412 399.198 159.124 403.398 158.683 404.874C156.885 405.763 132.66 405.686 129.214 405.184C128.899 407.339 129.1 409.632 129.078 411.815C129.026 416.985 128.932 422.171 129.198 427.337C139.054 428.06 149.106 426.796 158.954 427.447C159.043 429.974 159.024 432.519 159.056 435.048L153.812 435.014L138.715 435.052C135.871 435.069 132.696 435.369 129.893 434.91C129.542 434.57 129.604 434.731 129.511 434.399C129.06 432.787 128.534 429.123 129.336 427.655C127.807 427.293 123.385 427.79 121.44 427.777C121.183 423.679 120.69 408.507 121.674 405.52C123.432 404.527 126.994 404.986 129.018 405.008C128.942 402.437 129.024 400.06 129.456 397.517C134.234 397.672 139.059 397.546 143.844 397.545C148.52 397.544 153.251 397.687 157.917 397.376Z"/>
	<path fill="#5D5B5F" d="M234.464 136.941C236.93 139.321 241.311 149.852 243.546 150.479C246.324 151.258 267.331 151.326 269.462 150.111C271.365 149.025 274.815 138.891 277.78 137.2C283.119 136.752 295.534 142.422 300.704 144.373L301.513 143.794C301.152 144.718 300.716 146.158 299.898 146.758L297.407 150.295L296.876 150.314C296.824 150.233 296.777 150.149 296.721 150.071C294.745 147.314 284.166 144.729 280.488 143.942C277.575 148.006 275.345 152.718 272.774 157.018C261.644 156.865 250.507 157.143 239.378 156.927C238.152 154.486 233.677 146.039 231.971 144.537C231.628 144.236 231.094 144.311 230.661 144.34C227.727 144.532 217.029 147.879 215.2 149.88C215.32 150.319 215.401 150.588 215.371 151.048C214.947 150.498 214.387 150.156 213.822 149.767C213.038 148.893 212.428 147.975 211.804 146.987C211.343 146.387 211.112 145.701 210.838 145.004C216.56 141.267 227.727 138.105 234.464 136.941ZM211.804 146.987C212.428 147.975 213.038 148.893 213.822 149.767C214.387 150.156 214.947 150.498 215.371 151.048C215.401 150.588 215.32 150.319 215.2 149.88C217.029 147.879 227.727 144.532 230.661 144.34C231.094 144.311 231.628 144.236 231.971 144.537C233.677 146.039 238.152 154.486 239.378 156.927C250.507 157.143 261.644 156.865 272.774 157.018C275.345 152.718 277.575 148.006 280.488 143.942C284.166 144.729 294.745 147.314 296.721 150.071C296.777 150.149 296.824 150.233 296.876 150.314L297.407 150.295L299.898 146.758C299.417 146.485 299.122 146.439 298.592 146.344C295.66 145.82 291.309 143.852 288.337 142.837C285.277 141.791 282.09 141.068 278.954 140.283C278.108 142.183 272.367 152.875 270.98 153.441C268.98 154.257 242.638 154.384 241.053 153.514C239.993 152.933 234.01 141.946 233.168 140.215C229.214 141.452 225.192 142.482 221.253 143.764C218.35 144.709 215.111 146.364 212.088 146.686L211.804 146.987Z"/>
	<path fill="#FEFEFE" d="M196.046 397.333C198.604 397.63 201.268 397.554 203.848 397.643C203.347 403.586 203.814 409.752 203.891 415.717C203.942 419.741 203.632 423.789 203.654 427.821C203.666 429.847 204.144 432 204.02 433.996C203.983 434.594 203.914 434.632 203.497 435.019L196.167 435.005C195.72 430.078 195.966 424.971 195.98 420.022C188.709 420.522 181.034 420.353 173.757 419.933C174.291 424.877 173.995 430.041 174.071 435.02C171.835 435.075 168.718 435.481 166.629 434.773C165.472 431.65 165.757 401.592 166.423 397.369C168.86 397.689 171.446 397.555 173.906 397.584C173.699 402.593 174.048 407.519 173.625 412.544C176.568 412.278 179.592 412.471 182.547 412.491Q189.321 412.548 196.094 412.409C195.864 407.4 195.944 402.345 196.046 397.333Z"/>
	<path fill="#FEFEFE" d="M426.906 397.376C427.202 397.338 427.33 397.446 427.599 397.561C427.748 397.819 427.795 397.869 427.879 398.199C428.273 399.758 428.442 403.744 427.332 405.036C427.062 405.35 426.815 405.409 426.405 405.455C424.125 405.711 421.486 405.424 419.176 405.405Q412.16 405.351 405.144 405.405C402.732 405.409 400.295 405.274 397.887 405.426C397.81 405.906 397.771 406.299 397.833 406.785C398.075 408.696 398.023 410.591 398.006 412.513C402.1 412.468 406.197 412.563 410.291 412.538C413.479 412.519 416.724 412.325 419.901 412.556C420.908 414.33 420.788 418.048 420.319 419.997C422.322 420.035 424.309 419.672 426.296 419.766C426.918 420.065 427.282 420.35 427.543 420.998C428.241 422.728 428.243 425.591 427.544 427.31C426.396 428.334 421.847 427.634 420.293 427.55C420.183 429.739 420.729 432.58 419.8 434.61C417.408 435.747 397.088 434.788 392.193 435.167C391.853 435.159 391.408 435.19 391.082 435.104C390.609 434.979 390.508 434.755 390.339 434.322C389.519 432.232 389.898 429.465 390.702 427.419C390.809 427.349 390.899 427.245 391.021 427.208C391.8 426.969 396.715 427.423 397.829 427.442C401.571 427.506 405.298 427.417 409.037 427.428C412.733 427.439 416.505 427.593 420.18 427.167C419.945 424.825 420.038 422.409 420.156 420.061C416.666 420.399 400.806 420.778 398.208 419.724C397.073 417.946 397.584 414.781 397.891 412.785C396.029 412.897 393.914 413.008 392.056 412.828C391.423 412.767 391.042 412.507 390.68 411.986C389.724 410.612 390.26 407.129 390.634 405.577C392.013 404.546 395.821 404.972 397.566 404.907C397.653 402.751 397.102 399.831 398.264 397.926C400.533 396.96 422.208 397.679 426.906 397.376Z"/>
	<path fill="#FEFEFE" d="M471.945 397.372C472.262 397.506 472.345 397.698 472.554 397.963C472.705 399.758 473.261 403.611 472.165 405.086C470.341 405.795 445.799 405.486 442.566 405.326C442.733 407.75 442.948 410.108 442.411 412.498C449.868 412.088 457.511 413.176 464.929 412.171Q465.098 416.105 464.968 420.04C461.866 420.453 458.646 420.239 455.522 420.232C451.203 420.223 446.886 420.292 442.567 420.241C442.573 422.629 442.957 425.105 442.428 427.454C445.231 427.225 448.065 427.417 450.874 427.444L462.794 427.474Q467.699 427.5 472.598 427.24C472.504 429.786 472.517 432.341 472.49 434.889C468.952 435.227 438.057 435.37 435.465 434.677C435.019 434.207 435.11 434.229 435.047 433.605C434.368 426.851 434.93 419.694 434.963 412.9C434.984 408.738 434.564 404.375 434.929 400.237C435.007 399.353 435.055 398.366 435.632 397.65C438.28 397.055 442.633 397.517 445.403 397.522C454.217 397.54 463.151 397.867 471.945 397.372Z"/>
	<path fill="#FEFEFE" d="M76.5482 397.414C81.3727 397.727 86.3312 397.531 91.17 397.537Q102.519 397.616 113.867 397.446C114.052 399.23 114.531 403.591 113.55 405.059C109.227 406.034 103.975 405.343 99.5263 405.289Q91.7639 405.179 84.0019 405.314L84.0364 412.536C88.0958 412.394 92.1845 412.479 96.2476 412.442C99.5215 412.413 102.969 412.165 106.222 412.516C107.308 414.11 106.771 418.165 106.561 420.067C101.653 420.799 96.1084 420.264 91.116 420.237C88.779 420.334 86.4643 420.228 84.1303 420.123C84.1586 422.6 84.0853 425.067 84.0014 427.542C86.8637 427.191 89.9555 427.435 92.848 427.45C99.8976 427.486 107.014 427.729 114.041 427.096C114.052 428.844 114.571 433.376 113.603 434.741L112.992 434.639L113.037 434.917C108.787 435.22 104.407 435.013 100.142 435.017L76.3804 435.04C75.8697 426.874 76.2595 418.436 76.2977 410.247C76.3161 406.306 75.8186 401.226 76.5482 397.414Z"/>
	<path fill="#FEFEFE" d="M337.06 397.385L337.624 397.509C338.621 398.997 338.036 403.526 337.917 405.295C331.954 405.887 324.381 405.431 318.266 405.312C314.829 405.245 311.395 405.462 307.961 405.342C308.29 407.554 308.156 409.882 308.154 412.116C310.237 413.151 327.774 412.404 330.82 412.228C330.819 414.824 330.925 417.465 330.535 420.037C327.528 420.512 324.28 420.281 321.234 420.262C316.827 420.236 312.431 420.288 308.032 419.968Q308.049 423.706 308.021 427.443C310.242 427.291 312.509 427.456 314.737 427.467L328.438 427.502C331.594 427.442 334.701 427.518 337.848 427.189C338.003 428.918 338.662 433.461 337.812 434.87C332.327 435.182 326.779 435.016 321.285 435.014L300.299 435.123C300.085 428.225 300.258 421.276 300.274 414.374C300.287 408.778 300.059 403.027 300.484 397.454C307.51 397.622 314.558 397.536 321.586 397.544C326.715 397.55 331.946 397.745 337.06 397.385Z"/>
	<path fill="#5D5B5F" d="M280.488 143.942C284.166 144.729 294.745 147.314 296.721 150.071C296.777 150.149 296.824 150.233 296.876 150.314L297.407 150.295C294.577 156.541 286.954 163.653 281.723 168.121C277.288 165.226 264.624 163.987 259.171 163.804C250.84 163.525 242.932 164.38 234.835 166.366C233.292 166.744 231.23 166.992 230.037 168.105C223.52 163.283 218.046 156.64 213.822 149.767C214.387 150.156 214.947 150.498 215.371 151.048C215.401 150.588 215.32 150.319 215.2 149.88C217.029 147.879 227.727 144.532 230.661 144.34C231.094 144.311 231.628 144.236 231.971 144.537C233.677 146.039 238.152 154.486 239.378 156.927C250.507 157.143 261.644 156.865 272.774 157.018C275.345 152.718 277.575 148.006 280.488 143.942Z"/>
	<path fill="#FEFEFE" d="M218.589 397.518C222.882 397.51 237.343 397.017 240.509 397.819C241.78 399.218 240.819 403.139 241.319 405.047C243.512 405.478 246.121 404.941 248.404 405.11L248.827 405.143C248.414 410.031 248.606 415.05 248.589 419.954C248.572 424.908 248.251 430.14 248.908 435.043C246.267 434.974 243.675 435.124 241.027 434.938C240.727 432.432 240.33 429.966 240.827 427.465C237.467 428.116 233.398 427.655 229.955 427.631C226.138 427.605 222.326 427.74 218.509 427.647C218.592 430.103 218.557 432.627 219.018 435.045L211.165 435.017C210.442 425.121 210.827 414.951 211.01 405.03L218.362 404.919C218.432 402.446 218.201 399.974 218.589 397.518ZM218.588 405.351C218.667 408.261 218.277 417.688 218.739 419.732C221.189 420.409 236.936 419.904 240.693 420.02C241.016 419.238 240.627 407.898 240.884 405.362C233.471 405.38 225.991 405.194 218.588 405.351Z"/>
	<path fill="#FEFEFE" d="M345.614 397.261C348.806 397.899 352.585 397.547 355.863 397.544Q365.578 397.48 375.292 397.584C375.529 400.035 375.751 402.618 375.658 405.078C377.453 405 381.021 404.425 382.549 405.362C383.469 408.257 383.294 415.419 382.934 418.543C382.882 418.998 382.872 419.758 382.47 420.026C380.92 421.06 377.509 420.264 375.795 419.936C375.617 422.428 375.8 424.978 375.774 427.482C378.19 427.433 380.62 427.272 383.036 427.166C382.989 429.767 383.283 432.458 382.987 435.039C380.989 434.998 377.619 435.626 375.922 434.553C374.773 432.984 375.242 429.69 375.26 427.778C367.848 427.358 360.438 427.914 353.033 427.626L353.086 435.014C350.539 434.978 347.978 435.102 345.431 435.167C345.327 430.205 344.728 399.784 345.614 397.261ZM353.038 405.227C353.121 410.076 352.909 414.985 353.195 419.821C357.794 420.527 364.674 419.95 369.503 419.899C371.277 419.881 372.947 419.712 374.708 420.018C375.195 419.582 375.207 419.575 375.25 418.897C375.533 414.48 375.215 409.895 375.328 405.453C368.015 404.994 360.425 406.092 353.175 405.242C353.129 405.237 353.083 405.232 353.038 405.227Z"/>
	<path fill="#5D5B5F" d="M329.08 140.524C326.788 131.803 328.812 121.976 333.29 114.253Q333.736 113.471 334.219 112.711Q334.703 111.952 335.224 111.218Q335.745 110.483 336.301 109.775Q336.858 109.068 337.449 108.388Q338.04 107.709 338.663 107.06Q339.287 106.41 339.942 105.793Q340.598 105.175 341.283 104.591Q341.968 104.007 342.681 103.457Q343.394 102.907 344.133 102.394Q344.873 101.88 345.636 101.403Q346.4 100.927 347.187 100.489Q347.974 100.051 348.781 99.6522Q349.588 99.2537 350.414 98.8956Q351.241 98.5375 352.083 98.2208Q352.926 97.904 353.784 97.6294Q354.641 97.3548 355.511 97.123C361.207 95.6138 366.91 95.9497 372.736 96.0154C369.839 99.4545 366.582 102.372 363.395 105.52C360.346 108.533 357.428 111.677 354.365 114.678C351.584 117.404 348.537 120.08 346.179 123.19C348.108 131.004 350.055 139.048 352.698 146.649L366.191 150.153C369.315 150.984 372.443 151.94 375.626 152.508L375.946 152.253C381.022 148.164 399.33 127.852 402.218 126.896C402.726 127.149 402.721 127.198 402.885 127.725C403.262 128.94 403.181 130.478 403.206 131.742C403.346 138.786 401.75 145.652 398.224 151.784Q397.754 152.59 397.246 153.373Q396.737 154.155 396.191 154.911Q395.645 155.668 395.062 156.397Q394.479 157.126 393.861 157.825Q393.244 158.524 392.592 159.193Q391.941 159.861 391.258 160.496Q390.575 161.132 389.861 161.733Q389.148 162.335 388.406 162.9Q387.664 163.466 386.895 163.995Q386.126 164.523 385.332 165.014Q384.538 165.504 383.721 165.955Q382.904 166.406 382.066 166.816Q381.228 167.226 380.371 167.595Q379.514 167.964 378.639 168.29Q377.765 168.617 376.876 168.9Q375.987 169.183 375.085 169.422C369.522 170.904 364.006 170.529 358.35 169.975C354.213 174.148 349.965 178.24 345.898 182.478C353.842 193.958 359.277 207.694 362.229 221.291C358.148 223.636 351.691 226.757 348.282 229.701C347.467 237.77 348.201 246.031 347.728 254.147L347.18 255.334L347.033 255.355L347.398 254.994L346.948 255.181L346.84 254.844L346.546 254.793C345.029 249.928 343.811 244.918 342.386 240.016C342.166 239.07 341.764 238.105 341.458 237.179C342.392 235.52 341.864 228.356 341.938 226.033L342.029 225.716C338.692 222.815 334.694 220.893 331.245 218.174L331.477 217.614C331.036 216.66 330.771 216.111 330.941 215.056C334.496 216.164 337.928 217.704 341.25 219.382C343.621 220.579 347.923 223.811 350.278 224.17C350.124 223.153 349.661 222.603 349.049 221.793C349.803 220.586 352.237 219.74 353.513 219.11C353.957 218.891 354.693 218.508 354.801 217.984C355.523 214.492 346.571 194.751 344.281 191.33C344.106 191.068 343.754 190.541 343.501 190.359C341.922 189.218 334.04 193.356 331.9 192.674C331.562 192.566 331.372 191.981 331.209 191.677C331.238 190.977 331.098 190.325 330.972 189.64C329.367 182.99 328.308 176.214 326.884 169.523C325.902 164.906 324.379 160.208 323.81 155.531Q323.351 153.173 322.808 150.833C322.073 148.771 321.631 146.821 321.475 144.636C321.629 145.237 321.828 146.799 322.305 147.106C324.759 145.186 326.766 142.629 329.08 140.524ZM330.972 189.64C331.098 190.325 331.238 190.977 331.209 191.677C331.372 191.981 331.562 192.566 331.9 192.674C334.04 193.356 341.922 189.218 343.501 190.359C343.754 190.541 344.106 191.068 344.281 191.33C346.571 194.751 355.523 214.492 354.801 217.984C354.693 218.508 353.957 218.891 353.513 219.11C352.237 219.74 349.803 220.586 349.049 221.793C349.661 222.603 350.124 223.153 350.278 224.17C351.756 224.147 356.854 220.626 358.435 219.715C356.404 207.944 350.468 196.642 344.668 186.353C342.324 187.104 337.096 188.942 334.835 188.698C335.181 188.242 335.001 188.414 335.412 188.096C338.169 185.963 340.47 182.869 342.925 180.367C346.651 176.57 350.555 173.058 354.173 169.136C353.28 168.656 352.242 167.932 351.199 167.958C350.653 167.972 350.406 168.143 350.001 168.488C346.463 171.497 343.301 175.28 339.995 178.564C337.309 181.232 333.577 184.316 331.288 187.096C330.756 187.742 330.942 188.851 330.972 189.64ZM329.685 143.782C328.281 145.435 323.196 149.386 322.808 150.833Q323.351 153.173 323.81 155.531C325.361 154.988 329.969 149.071 331.139 147.569C330.537 146.336 330.115 145.081 329.685 143.782ZM344.387 228.391C343.857 230.645 342.877 233.561 342.905 235.866C343.328 236.224 343.377 236.168 343.897 236.242L343.797 236.611L342.766 236.894C342.418 237.626 342.544 238.129 342.648 238.894L342.783 239.882C343.385 242.38 344.163 244.781 345.008 247.204Q345.038 239.799 344.628 232.406C344.559 231.07 344.527 229.721 344.387 228.391Z"/>
	<path d="M342.029 225.716L342.424 225.52C344.018 224.715 346.319 222.78 348.265 223.507C348.9 223.744 349.202 224.034 349.587 224.574C349.111 225.142 348.558 225.38 347.918 225.723C344.125 227.759 344.612 228.292 344.628 232.406C344.559 231.07 344.527 229.721 344.387 228.391C343.857 230.645 342.877 233.561 342.905 235.866C343.328 236.224 343.377 236.168 343.897 236.242L343.797 236.611L342.766 236.894C342.418 237.626 342.544 238.129 342.648 238.894L342.783 239.882L342.386 240.016C342.166 239.07 341.764 238.105 341.458 237.179C342.392 235.52 341.864 228.356 341.938 226.033L342.029 225.716Z"/>
	<path fill="#5D5B5F" d="M348.83 256.486C351.646 257.094 359.413 261.979 362.03 263.806C359.212 275.662 355.948 285.363 349.998 296.062C348.814 298.19 347.524 300.96 345.688 302.575C349.444 306.015 355.369 311.052 358.226 315.134C368.711 313.655 379.255 315.166 387.883 321.709C395.149 327.22 399.552 334.409 402.262 343.02C405.657 343.074 409.084 343.053 412.473 343.26C415.097 343.42 417.708 343.791 420.333 343.93C423.359 344.089 426.392 344.067 429.418 344.274C432.22 344.465 435.004 344.841 437.81 344.996C443.501 345.311 449.145 345.716 454.829 346.126C456.809 346.269 458.923 346.124 460.87 346.471L458.218 346.687C459.903 346.725 461.614 346.689 463.273 347.022L463.305 347.083C461.528 347.289 460.162 347.37 458.412 346.922L457.781 347.166L457.855 347.368L459.646 347.691L393.529 348.014C371.876 347.981 350.17 347.675 328.524 348.054C328.676 347.313 328.928 346.46 328.946 345.707C328.984 344.079 318.388 334.125 316.558 332.189C314.322 333.652 311.939 334.947 309.615 336.265C304.488 339.173 282.578 349.247 277.738 347.627C275.474 346.869 272.009 338.847 270.935 336.498C271.513 335.892 272.145 335.344 272.768 334.785C273.51 333.884 274.351 333.044 275.144 332.188C277.239 329.134 280.063 326.51 282.275 323.52C283.737 321.543 284.62 319.278 285.907 317.212L286.073 316.948C286.175 316.971 286.274 317.006 286.378 317.015C288.454 317.195 295.219 313.32 297.182 312.002C297.17 312.151 297.153 312.299 297.144 312.448C296.91 316.365 294.292 320.794 293.032 324.537Q297.971 319.623 302.438 314.278Q306.906 308.933 310.866 303.201C312.874 300.282 313.939 296.639 316.292 293.946L316.89 294.182C319.235 293.41 324.82 283.97 326.26 281.304C327.026 279.886 327.566 278.378 328.348 276.973L328.48 276.738C330.188 280.212 331.752 283.379 332.218 287.289C332.517 289.808 331.287 297.92 331.623 298.639L331.788 298.662C333.191 297.108 334.219 294.887 335.112 292.989L335.623 292.841C337.881 293.931 340.664 294.65 343.152 294.951C349.151 286.617 352.393 276.471 355.123 266.697C353.02 265.911 350.694 264.701 349.018 263.19C348.477 262.703 348.363 262.47 348.302 261.756L347.704 259.888C347.71 258.259 348.45 257.904 348.83 256.486ZM360.906 323.909C358.011 327.164 355.655 330.079 351.123 330.859C349.158 331.197 347.295 331.473 345.398 332.111C345.055 334.447 344.855 336.85 344.306 339.146C349.389 339.821 354.248 339.87 359.338 340.171C362.232 340.343 365.107 340.767 368 340.932C370.899 341.098 373.836 341.03 376.74 341.028L377.145 341.032C379.833 341.071 389.162 342.849 390.915 341.537C391.099 340.871 391.205 340.371 390.898 339.696C390.018 337.767 386.231 336.659 384.444 335.579C381.526 333.818 380.238 329.417 378.376 326.651C375.542 327.311 372.486 327.457 369.6 327.869C367.736 327.08 362.545 323.89 360.906 323.909ZM308.949 329.469C304.508 332.188 285.862 341.407 281.23 340.916C278.271 340.602 277.279 334.363 275.421 332.458C275.331 332.366 275.236 332.278 275.144 332.188C274.351 333.044 273.51 333.884 272.768 334.785L272.216 335.913C272.558 335.903 272.871 335.923 273.211 335.952C275.623 337.818 277.308 342.079 278.965 344.691C279.061 344.677 279.157 344.664 279.253 344.648C287.79 343.268 299.345 338.354 307.029 334.178C308.442 333.41 310.735 332.419 311.556 331.021C312.49 329.431 310.236 323.063 309.715 321.077C316.659 327.47 323.273 334.555 329.78 341.393C330.049 339.822 330.499 338.48 331.122 337.025C329.032 334.727 308.813 314.336 306.865 313.472C306.376 313.615 306.429 313.497 306.194 313.874C304.638 316.372 308.148 326.524 308.949 329.469ZM348.302 261.756C348.363 262.47 348.477 262.703 349.018 263.19C350.694 264.701 353.02 265.911 355.123 266.697C352.393 276.471 349.151 286.617 343.152 294.951C340.664 294.65 337.881 293.931 335.623 292.841L335.112 292.989C334.219 294.887 333.191 297.108 331.788 298.662C338.263 304.774 344.826 310.979 350.779 317.602C351.982 317.092 353.121 316.459 354.269 315.84L342.661 304.241C340.004 301.593 337.12 299.108 335.077 295.936C338.205 297.259 341.575 297.581 344.738 298.754C349.64 290.22 353.477 281.976 356.538 272.609C357.168 270.679 358.407 267.72 357.989 265.712C357.891 265.238 357.792 264.88 357.383 264.585C356.179 263.715 354.44 263.19 353.109 262.477C351.568 261.651 350.068 260.493 348.585 259.547L348.407 259.687Q348.383 260.723 348.302 261.756Z"/>
	<path d="M328.581 291.445Q329.359 291.442 330.116 291.621Q330.873 291.801 331.567 292.153C331.871 293.22 331.27 295.734 330.869 296.81L330.624 296.87C329.728 295.907 328.486 295.378 327.526 294.5C327.02 294.037 326.966 293.738 326.9 293.077C327.227 292.259 327.884 291.918 328.581 291.445Z"/>
	<path fill="#5D5B5F" d="M139.827 96.1362C144.099 95.7962 148.914 95.6693 153.139 96.389Q154.04 96.5438 154.932 96.7424Q155.824 96.9411 156.706 97.183Q157.587 97.4249 158.456 97.7095Q159.324 97.9941 160.178 98.3208Q161.032 98.6474 161.869 99.0154Q162.705 99.3833 163.523 99.7916Q164.341 100.2 165.138 100.648Q165.935 101.095 166.709 101.581Q167.483 102.067 168.232 102.591Q168.982 103.114 169.705 103.673Q170.428 104.232 171.123 104.826Q171.818 105.42 172.483 106.047Q173.148 106.674 173.782 107.333Q174.415 107.991 175.016 108.68Q175.617 109.369 176.184 110.087Q176.75 110.804 177.281 111.548C183.323 120.176 185.222 130.316 183.379 140.618C185.209 142.762 188.637 145.14 189.555 147.759L189.16 149.689C188.915 151.224 188.48 152.703 188.213 154.222C188.181 157.664 185.983 164.763 185.236 168.57C183.985 174.946 183.438 181.845 181.584 188.053L181.038 190.779C180.659 191.481 180.601 191.924 179.76 192.145C177.172 192.823 171.24 189.539 169.284 190.368C168.774 190.584 168.316 191.165 167.994 191.594C166.909 193.033 166.145 194.811 165.351 196.423C161.887 203.455 159.592 210.515 157.143 217.927C158.442 219.059 162.449 220.716 162.923 221.806L161.804 223.256C162.003 223.683 162.019 223.874 162.415 224.149C163.308 223.789 164.113 223.28 164.937 222.787C167.212 223.948 168.404 225.45 169.173 227.875C170.284 231.38 170.224 235.228 169.659 238.818L169.102 240.694C168.286 247.148 164.878 253.199 164.032 259.592C163.962 260.119 163.877 260.675 164.309 261.073C164.381 261.139 164.475 261.178 164.557 261.23C166.341 259.742 167.9 258.011 169.493 256.326C170.413 254.622 174.164 251.923 175.813 250.641C176.721 252.829 176.406 258.727 177.914 260.08C173.472 271.699 172.977 281.26 177.182 293.115C177.314 293.181 177.441 293.257 177.578 293.314C178.219 293.583 178.272 293.522 178.866 293.233C179.346 292.476 179.439 291.823 179.568 290.946C179.385 285.744 181 281.35 183.485 276.869C184.791 280.27 190.824 291.839 194 293.363C194.29 293.501 194.441 293.326 194.708 293.204C196.969 295.553 198.71 299.938 200.534 302.769C205.6 310.63 211.99 318.469 218.941 324.724C217.4 320.785 215.741 316.784 214.753 312.662C217.365 312.297 223.919 318.356 226.17 317.324C227.64 319.829 228.961 322.52 230.821 324.767C232.667 326.998 236.074 329.637 237.372 332.061C238.048 332.876 238.709 333.699 239.457 334.45C240.089 335.032 240.752 335.59 241.302 336.252C240.123 338.973 237.135 346.438 234.502 347.624C231.293 349.069 216.557 343.043 212.941 341.452C207.039 338.854 201.727 335.413 196.053 332.423C193.763 334 184.199 342.904 183.916 345.171C183.832 345.845 183.938 346.579 183.99 347.253L184.055 348.136C178.077 347.84 172.019 348.017 166.032 348.011L134.878 347.992Q94.3664 348.209 53.857 347.686C55.7639 347.154 57.7899 347.687 59.6979 347.326C58.5845 346.795 56.9642 347.328 55.7041 347.118C56.6681 346.621 57.7474 346.603 58.7803 346.238C62.1911 344.982 70.3434 345.266 74.3418 345.057C77.0448 344.916 79.7245 344.468 82.4231 344.263C85.575 344.024 88.7471 344.117 91.9013 343.926C94.1581 343.79 96.3943 343.398 98.6483 343.245C101.585 343.046 104.597 343.354 107.516 342.996C108.23 342.909 109.152 342.76 109.722 342.28C111.138 341.086 112.558 336.18 113.537 334.306C115.791 329.991 118.717 326.189 122.489 323.092C132.031 315.258 141.965 313.846 153.897 315.033C157.538 312.284 163.043 306.056 166.598 302.511C161.485 297.227 155.219 282.134 152.951 274.839C151.861 271.333 151.197 267.715 150.072 264.226C152.853 261.628 157.058 259.774 160.362 257.859C161.37 257.275 162.757 256.635 163.572 255.82C164.069 255.323 164.046 254.587 164.096 253.924C164.26 251.755 164.067 249.481 164.1 247.296Q164.274 238.311 164.227 229.324C160.491 227.353 153.201 223.667 150.215 221.049C153.047 207.827 158.136 193.165 166.572 182.438C162.328 178.366 158.356 173.777 153.746 170.135C148.726 170.733 143.836 170.896 138.849 169.833Q137.942 169.64 137.045 169.403Q136.148 169.166 135.264 168.885Q134.38 168.604 133.51 168.281Q132.641 167.957 131.789 167.591Q130.936 167.225 130.103 166.818Q129.269 166.411 128.457 165.963Q127.644 165.515 126.854 165.029Q126.065 164.542 125.3 164.017Q124.535 163.492 123.797 162.93Q123.058 162.368 122.349 161.771Q121.639 161.174 120.959 160.543Q120.279 159.911 119.631 159.248Q118.983 158.584 118.369 157.889Q117.754 157.194 117.174 156.47Q116.594 155.746 116.05 154.995Q115.506 154.243 115 153.466C109.902 145.527 107.695 135.526 109.74 126.28C112.675 129.428 115.887 132.382 118.946 135.417L136.433 152.871C141.708 151.11 147.293 149.919 152.674 148.504C154.681 147.976 157.228 147.583 159.041 146.587C159.647 146.254 159.878 145.837 160.144 145.222C161.194 142.798 161.695 139.912 162.354 137.349Q164.179 130.15 166.1 122.976C162.944 119.418 159.444 116.119 156.076 112.758Q147.822 104.573 139.827 96.1362ZM150.588 323.975C142.793 328.098 142.121 327.929 133.604 326.598C132.379 329.071 131.163 332.259 129.325 334.318C127.127 336.779 120.582 337.425 121.446 341.514C122.187 342.199 123.651 342.031 124.629 341.99C128.565 341.821 132.493 341.063 136.438 341.062C142.253 341.023 147.874 340.438 153.657 340.145C158.398 339.905 163.229 340.005 167.922 339.195C167.503 336.764 167.103 334.349 166.845 331.894C164.253 331.352 160.609 331.563 158.303 330.415C156.031 329.283 152.522 324.068 150.588 323.975ZM201.542 317.119C197.081 321.334 192.661 325.555 188.301 329.875C185.854 332.3 183.259 334.679 181.117 337.379C181.585 338.626 182.076 339.866 182.419 341.154C186.864 336.472 191.44 331.924 195.979 327.334C198.163 325.126 200.513 323.009 202.53 320.648C201.694 323.98 201.225 327.727 200.018 330.916C207.599 336.96 223.723 342.584 233.219 344.558C234.429 342.605 238.954 336.27 239.457 334.45C238.709 333.699 238.048 332.876 237.372 332.061C235.336 333.417 234.271 337.445 232.83 339.523C232.385 340.164 231.777 340.872 230.954 340.954C229.168 341.132 226.805 340.021 225.126 339.439C217.833 336.914 209.852 334.087 203.579 329.497C204.226 325.407 205.42 321.265 206.412 317.238L206.259 316.519C206.055 316.367 206.061 316.352 205.78 316.25C204.471 315.774 202.66 316.458 201.542 317.119ZM161.514 167.673C160.45 168.057 159.408 168.335 158.581 169.14L158.459 169.601C160.306 172.386 163.312 174.842 165.7 177.204L177.791 189.142C174.472 188.196 171.135 187.181 167.728 186.608C162.163 193.615 156.61 207.842 154.587 216.592C154.404 217.381 153.925 218.42 153.999 219.239C154.097 220.32 156.473 221.409 157.33 221.89C158.351 222.463 160.464 223.903 161.619 223.818L161.804 223.256L162.923 221.806C162.449 220.716 158.442 219.059 157.143 217.927C159.592 210.515 161.887 203.455 165.351 196.423C166.145 194.811 166.909 193.033 167.994 191.594C168.316 191.165 168.774 190.584 169.284 190.368C171.24 189.539 177.172 192.823 179.76 192.145C180.601 191.924 180.659 191.481 181.038 190.779L181.584 188.053C181.447 187.648 181.352 187.358 181.087 187.016C179.931 185.53 177.62 183.793 176.202 182.385C171.293 177.51 166.322 172.645 161.514 167.673ZM153.786 265.392C157.288 277.679 160.825 288.019 167.703 298.92C170.704 297.455 174.129 297.396 177.126 295.968L176.896 296.28C174.535 299.446 158.49 314.386 158.218 315.987C158.917 316.872 160.487 317.207 161.545 317.513C165.095 313.698 168.829 310.037 172.55 306.388C174.995 303.989 177.921 301.543 179.865 298.709C178.391 297.294 177.931 295.172 176.708 293.553C174.907 293.032 172.41 294.842 170.464 294.903C169.661 294.928 169.029 294.698 168.498 294.088C165.3 290.415 157.131 271.697 157.499 267.37C158.739 264.902 163.058 263.481 165.343 261.943C164.938 261.828 164.498 261.783 164.082 261.714Q163.701 260.666 163.34 259.611C162.85 259.758 162.632 259.979 162.254 260.305C159.787 262.44 156.545 263.678 153.786 265.392ZM164.937 222.787C164.113 223.28 163.308 223.789 162.415 224.149L162.207 224.473C162.987 225.644 165.779 226.479 167.012 227.326C167.095 233.765 167.158 240.261 166.924 246.696C167.885 244.759 168.204 242.624 169.102 240.694L169.659 238.818C170.224 235.228 170.284 231.38 169.173 227.875C168.404 225.45 167.212 223.948 164.937 222.787ZM182.445 144.053C182.056 145.403 181.679 146.755 181.221 148.083C182.393 149.584 186.049 153.942 187.537 154.687C187.811 154.542 188.011 154.462 188.213 154.222C188.48 152.703 188.915 151.224 189.16 149.689L188.828 149.251C188.669 149.238 188.51 149.235 188.353 149.212C186.738 148.975 183.705 145.303 182.445 144.053Z"/>
	<path d="M205.379 312.589C205.998 313.309 206.644 314.017 207.236 314.758C207.034 315.509 206.888 316.629 206.412 317.238L206.259 316.519C206.055 316.367 206.061 316.352 205.78 316.25C204.471 315.774 202.66 316.458 201.542 317.119C202.649 315.496 203.912 313.902 205.379 312.589Z"/>
	<path d="M179.669 292.141C181.023 291.954 182.309 291.645 183.63 291.304C184.319 292.101 184.987 292.899 185.767 293.61C184.568 294.455 181.776 297.867 180.552 297.592C180.532 297.587 180.516 297.574 180.498 297.566C180.138 295.758 179.866 293.973 179.669 292.141Z"/>
	<path fill="#5D5B5F" d="M175.813 250.641C176.721 252.829 176.406 258.727 177.914 260.08C173.472 271.699 172.977 281.26 177.182 293.115C177.314 293.181 177.441 293.257 177.578 293.314C178.219 293.583 178.272 293.522 178.866 293.233C179.346 292.476 179.439 291.823 179.568 290.946L179.669 292.141C179.866 293.973 180.138 295.758 180.498 297.566L180.666 298.935L180.401 299.094L179.865 298.709C178.391 297.294 177.931 295.172 176.708 293.553C174.907 293.032 172.41 294.842 170.464 294.903C169.661 294.928 169.029 294.698 168.498 294.088C165.3 290.415 157.131 271.697 157.499 267.37C158.739 264.902 163.058 263.481 165.343 261.943C164.938 261.828 164.498 261.783 164.082 261.714L164.557 261.23C166.341 259.742 167.9 258.011 169.493 256.326C170.413 254.622 174.164 251.923 175.813 250.641Z"/>
	<path fill="#E2E3E1" d="M179.568 290.946L179.669 292.141C179.866 293.973 180.138 295.758 180.498 297.566L180.666 298.935L180.401 299.094L179.865 298.709C179.153 296.791 177.918 295.059 177.182 293.115C177.314 293.181 177.441 293.257 177.578 293.314C178.219 293.583 178.272 293.522 178.866 293.233C179.346 292.476 179.439 291.823 179.568 290.946Z"/>
	<path d="M169.493 256.326C170.159 256.872 170.295 258.223 170.494 259.039C168.999 260.037 167.102 261.605 165.343 261.943C164.938 261.828 164.498 261.783 164.082 261.714L164.557 261.23C166.341 259.742 167.9 258.011 169.493 256.326Z"/>
	<path fill="#FEFEFE" d="M301.513 143.794C305.069 136.956 310.117 128.038 311.059 120.386C311.429 117.389 310.871 114.356 311.259 111.382C313.258 116.505 314.655 121.873 316.256 127.128C318.03 132.951 319.934 138.745 321.475 144.636C321.631 146.821 322.073 148.771 322.808 150.833Q323.351 153.173 323.81 155.531C324.379 160.208 325.902 164.906 326.884 169.523C328.308 176.214 329.367 182.99 330.972 189.64C331.098 190.325 331.238 190.977 331.209 191.677C331.372 191.981 331.562 192.566 331.9 192.674C334.04 193.356 341.922 189.218 343.501 190.359C343.754 190.541 344.106 191.068 344.281 191.33C346.571 194.751 355.523 214.492 354.801 217.984C354.693 218.508 353.957 218.891 353.513 219.11C352.237 219.74 349.803 220.586 349.049 221.793C349.661 222.603 350.124 223.153 350.278 224.17C347.923 223.811 343.621 220.579 341.25 219.382C337.928 217.704 334.496 216.164 330.941 215.056C330.771 216.111 331.036 216.66 331.477 217.614L331.245 218.174C334.694 220.893 338.692 222.815 342.029 225.716L341.938 226.033C341.864 228.356 342.392 235.52 341.458 237.179C341.764 238.105 342.166 239.07 342.386 240.016C343.811 244.918 345.029 249.928 346.546 254.793L346.84 254.844L346.948 255.181L347.398 254.994L347.033 255.355L347.18 255.334L347.728 254.147C347.918 255.221 347.988 255.737 348.83 256.486C348.45 257.904 347.71 258.259 347.704 259.888L348.302 261.756C348.363 262.47 348.477 262.703 349.018 263.19C350.694 264.701 353.02 265.911 355.123 266.697C352.393 276.471 349.151 286.617 343.152 294.951C340.664 294.65 337.881 293.931 335.623 292.841L335.112 292.989C334.219 294.887 333.191 297.108 331.788 298.662L331.623 298.639C331.287 297.92 332.517 289.808 332.218 287.289C331.752 283.379 330.188 280.212 328.48 276.738L328.348 276.973C327.566 278.378 327.026 279.886 326.26 281.304C324.82 283.97 319.235 293.41 316.89 294.182L316.292 293.946C313.939 296.639 312.874 300.282 310.866 303.201Q306.906 308.933 302.438 314.278Q297.971 319.623 293.032 324.537C294.292 320.794 296.91 316.365 297.144 312.448C297.153 312.299 297.17 312.151 297.182 312.002C295.219 313.32 288.454 317.195 286.378 317.015C286.274 317.006 286.175 316.971 286.073 316.948C287.705 313.027 289.318 309.246 289.479 304.936C287.164 310.629 284.556 316.131 279.79 320.214C277.457 323.266 274.295 325.931 271.542 328.615C270.665 329.416 269.804 330.277 268.868 331.008C267.92 331.982 266.725 333.491 265.471 334.053L264.964 333.809Q262.872 334.189 260.746 334.236C258.654 334.271 247.15 333.679 246.717 333.829C248.605 335.669 250.78 337.318 252.56 339.245C251.589 340.448 250.334 342.375 248.611 342.368C246.754 342.361 242.792 337.577 241.302 336.252C240.752 335.59 240.089 335.032 239.457 334.45C238.709 333.699 238.048 332.876 237.372 332.061C236.074 329.637 232.667 326.998 230.821 324.767C228.961 322.52 227.64 319.829 226.17 317.324C223.919 318.356 217.365 312.297 214.753 312.662C215.741 316.784 217.4 320.785 218.941 324.724C211.99 318.469 205.6 310.63 200.534 302.769C198.71 299.938 196.969 295.553 194.708 293.204C194.441 293.326 194.29 293.501 194 293.363C190.824 291.839 184.791 280.27 183.485 276.869C181 281.35 179.385 285.744 179.568 290.946C179.439 291.823 179.346 292.476 178.866 293.233C178.272 293.522 178.219 293.583 177.578 293.314C177.441 293.257 177.314 293.181 177.182 293.115C172.977 281.26 173.472 271.699 177.914 260.08C176.406 258.727 176.721 252.829 175.813 250.641C174.164 251.923 170.413 254.622 169.493 256.326C167.9 258.011 166.341 259.742 164.557 261.23C164.475 261.178 164.381 261.139 164.309 261.073C163.877 260.675 163.962 260.119 164.032 259.592C164.878 253.199 168.286 247.148 169.102 240.694L169.659 238.818C170.224 235.228 170.284 231.38 169.173 227.875C168.404 225.45 167.212 223.948 164.937 222.787C164.113 223.28 163.308 223.789 162.415 224.149C162.019 223.874 162.003 223.683 161.804 223.256L162.923 221.806C162.449 220.716 158.442 219.059 157.143 217.927C159.592 210.515 161.887 203.455 165.351 196.423C166.145 194.811 166.909 193.033 167.994 191.594C168.316 191.165 168.774 190.584 169.284 190.368C171.24 189.539 177.172 192.823 179.76 192.145C180.601 191.924 180.659 191.481 181.038 190.779L181.584 188.053C183.438 181.845 183.985 174.946 185.236 168.57C185.983 164.763 188.181 157.664 188.213 154.222C188.48 152.703 188.915 151.224 189.16 149.689L189.555 147.759C189.722 146.88 190.14 145.971 190.389 145.102C191.1 142.618 191.746 140.113 192.428 137.621C194.714 129.264 196.705 119.642 200.48 111.83C200.68 114.799 200.358 117.794 200.658 120.769C201.555 129.687 206.13 137.589 210.838 145.004C211.112 145.701 211.343 146.387 211.804 146.987C212.428 147.975 213.038 148.893 213.822 149.767C218.046 156.64 223.52 163.283 230.037 168.105C231.23 166.992 233.292 166.744 234.835 166.366C242.932 164.38 250.84 163.525 259.171 163.804C264.624 163.987 277.288 165.226 281.723 168.121C286.954 163.653 294.577 156.541 297.407 150.295L299.898 146.758C300.716 146.158 301.152 144.718 301.513 143.794ZM310.119 148.548C305.773 158.301 302.769 165.791 296.499 174.548C298.463 175.95 300.576 177.137 302.392 178.731L303.154 179.396L306.229 174.877C306.117 176.935 305.866 178.781 305.215 180.747C307.977 182.749 310.203 185.636 313.004 187.505C313.028 185.842 314.314 182.528 314.662 180.673C315.851 174.34 316.275 166.94 315.601 160.524C315.31 157.75 313.322 143.933 311.769 142.668C310.609 143.49 310.373 147.102 310.119 148.548ZM201.561 147.88C201.608 148.431 201.767 149.183 201.368 149.628C200.586 150.498 199.441 151.085 198.408 151.597C198.063 151.3 198.183 151.488 198.065 151.022C196.893 153.179 196.431 158.401 196.511 160.91C195.251 168.27 196.486 180.711 199.069 187.473C199.273 187.121 199.14 187.3 199.532 186.939C201.95 184.711 204.171 182.431 206.734 180.345C206.185 178.644 205.865 176.996 205.602 175.23C206.675 176.412 207.595 177.772 208.546 179.054C209.816 177.509 213.323 175.771 215.096 174.534C214.127 172.623 212.614 170.763 211.495 168.896C208.556 163.989 205.759 158.9 203.407 153.683C203.47 151.863 202.242 149.525 201.561 147.88ZM200.19 142.303C199.258 145.147 198.707 148.103 198.065 151.022C198.183 151.488 198.063 151.3 198.408 151.597C199.441 151.085 200.586 150.498 201.368 149.628C201.767 149.183 201.608 148.431 201.561 147.88C200.82 146.044 200.482 144.253 200.19 142.303Z"/>
	<path fill="#878392" d="M347.728 254.147C347.918 255.221 347.988 255.737 348.83 256.486C348.45 257.904 347.71 258.259 347.704 259.888C347.398 258.168 346.681 256.539 346.546 254.793L346.84 254.844L346.948 255.181L347.398 254.994L347.033 255.355L347.18 255.334L347.728 254.147Z"/>
	<path fill="#1F1E20" d="M181.105 214.923C182.982 214.234 184.836 213.745 186.804 213.388C184.647 215.197 182.502 217.059 180.059 218.477C180.44 217.211 181.014 216.291 181.105 214.923Z"/>
	<path fill="#1F1E20" d="M331.245 218.174C329.79 217.14 326.119 215.059 325.493 213.485C326.975 213.12 329.545 214.495 330.941 215.056C330.771 216.111 331.036 216.66 331.477 217.614L331.245 218.174Z"/>
	<path fill="#5D5B5F" d="M337.216 227.117C338.783 226.718 340.378 226.469 341.938 226.033C341.864 228.356 342.392 235.52 341.458 237.179Q339.191 232.21 337.216 227.117Z"/>
	<path d="M183.485 276.869C183.938 276.281 184.285 275.721 184.998 275.433C185.399 275.712 193.78 291.589 194.708 293.204C194.441 293.326 194.29 293.501 194 293.363C190.824 291.839 184.791 280.27 183.485 276.869Z"/>
	<path d="M316.292 293.946C318.252 290.718 325.406 277.109 327.366 275.726C328.037 275.888 328.094 276.202 328.48 276.738L328.348 276.973C327.566 278.378 327.026 279.886 326.26 281.304C324.82 283.97 319.235 293.41 316.89 294.182L316.292 293.946Z"/>
	<path d="M333.861 259.336C332.252 256.426 330.392 253.572 328.415 250.895C326.947 248.908 325.25 247.012 324.008 244.874L324.12 244.586C327.273 244.639 333.126 248.487 335.674 250.329C334.649 252.669 335.525 257.583 333.861 259.336Z"/>
	<path d="M175.813 250.641C179.811 247.413 183.698 245.46 188.679 244.215C184.525 249.158 180.348 254.012 177.914 260.08C176.406 258.727 176.721 252.829 175.813 250.641Z"/>
	<path fill="#5D5B5F" d="M164.937 222.787C168.521 219.316 176.32 216.533 181.105 214.923C181.014 216.291 180.44 217.211 180.059 218.477C178.908 219.552 177.399 220.388 176.092 221.273C173.84 222.798 171.762 224.371 169.79 226.25C171.451 226.48 173.077 226.748 174.713 227.113C172.933 230.958 171.531 235.04 169.659 238.818C170.224 235.228 170.284 231.38 169.173 227.875C168.404 225.45 167.212 223.948 164.937 222.787Z"/>
	<path d="M243.238 303.92C246.909 305.173 250.209 307.587 253.808 309.039C254.656 309.381 255.509 309.547 256.42 309.397C258.805 309.005 265.956 305.241 268.617 304.082C268.44 305.35 268.248 306.598 267.977 307.85C267.681 308.489 267.358 309.121 266.846 309.615C264.459 311.919 258.711 313.324 255.423 313.121C251.645 312.889 246.285 311.446 243.758 308.525C243.415 306.94 243.227 305.544 243.238 303.92Z"/>
	<path d="M269.891 282.672C269.924 282.703 269.965 282.727 269.99 282.764C270.562 283.638 269.105 298.059 268.877 300.69C266.92 302.495 258.28 308.703 255.895 308.636C253.276 308.562 246.008 303.421 243.9 301.595C242.024 299.969 242.047 298.4 241.895 296.062C241.36 292.056 241.893 286.819 242.219 282.747C242.857 284.069 243.535 292.426 243.847 294.71C252 294.05 259.521 293.792 267.668 294.925C268.66 290.934 269.118 286.724 269.891 282.672Z"/>
	<path fill="#5D5B5F" d="M201.561 147.88C202.242 149.525 203.47 151.863 203.407 153.683C205.759 158.9 208.556 163.989 211.495 168.896C212.614 170.763 214.127 172.623 215.096 174.534C213.323 175.771 209.816 177.509 208.546 179.054C207.595 177.772 206.675 176.412 205.602 175.23C205.865 176.996 206.185 178.644 206.734 180.345C204.171 182.431 201.95 184.711 199.532 186.939C199.14 187.3 199.273 187.121 199.069 187.473C196.486 180.711 195.251 168.27 196.511 160.91C196.431 158.401 196.893 153.179 198.065 151.022C198.183 151.488 198.063 151.3 198.408 151.597C199.441 151.085 200.586 150.498 201.368 149.628C201.767 149.183 201.608 148.431 201.561 147.88ZM196.94 159.198C197.122 160.89 196.882 163.045 197.88 164.472C198.009 164.551 198.14 164.627 198.269 164.708C200.091 165.842 203.149 170.092 205.649 169.244C205.998 169.125 206.201 168.875 206.431 168.608L206.574 167.601L206.333 167.322C206.05 165.499 205.505 163.674 205.044 161.888C205.018 161.959 204.991 162.03 204.968 162.102C204.691 162.96 205.141 161.567 204.862 162.815C204.84 162.915 204.662 163.187 204.602 163.282L203.774 162.135C203.445 162.735 203.439 163.05 202.764 163.29L202.781 163.499C202.714 163.517 202.65 163.546 202.581 163.555C201.204 163.723 198.425 160.137 197.414 159.159L196.94 159.198ZM202.764 163.29C203.439 163.05 203.445 162.735 203.774 162.135L204.602 163.282C204.662 163.187 204.84 162.915 204.862 162.815C205.141 161.567 204.691 162.96 204.968 162.102C204.991 162.03 205.018 161.959 205.044 161.888C204.351 159.186 203.903 156.427 203.407 153.683C203.099 153.229 202.964 152.764 202.4 152.66C201.971 152.582 201.788 152.594 201.383 152.707C200.749 153.263 200.506 153.726 200.436 154.554C200.24 156.871 201.619 161.235 202.764 163.29Z"/>
	<path d="M197.88 164.472C198.009 164.551 198.14 164.627 198.269 164.708C200.091 165.842 203.149 170.092 205.649 169.244C205.998 169.125 206.201 168.875 206.431 168.608L206.574 167.601C206.795 168.138 207.131 168.818 207.107 169.41C207.054 170.688 206.196 171.409 205.371 172.265C202.862 170.002 199.826 167.227 197.88 164.472Z"/>
	<path d="M196.94 159.198L197.414 159.159C198.425 160.137 201.204 163.723 202.581 163.555C202.65 163.546 202.714 163.517 202.781 163.499L202.764 163.29C203.439 163.05 203.445 162.735 203.774 162.135L204.602 163.282C204.662 163.187 204.84 162.915 204.862 162.815C205.141 161.567 204.691 162.96 204.968 162.102C204.991 162.03 205.018 161.959 205.044 161.888C205.505 163.674 206.05 165.499 206.333 167.322L206.574 167.601L206.431 168.608C206.201 168.875 205.998 169.125 205.649 169.244C203.149 170.092 200.091 165.842 198.269 164.708C198.14 164.627 198.009 164.551 197.88 164.472C196.882 163.045 197.122 160.89 196.94 159.198ZM202.764 163.29L202.781 163.499L203.335 163.689C203.541 164.198 203.677 164.641 203.788 165.178C204.022 166.308 204.297 167.056 205.285 167.697L205.943 167.787L206.333 167.322C206.05 165.499 205.505 163.674 205.044 161.888C205.018 161.959 204.991 162.03 204.968 162.102C204.691 162.96 205.141 161.567 204.862 162.815C204.84 162.915 204.662 163.187 204.602 163.282L203.774 162.135C203.445 162.735 203.439 163.05 202.764 163.29Z"/>
	<path fill="#1F1E20" fill-opacity="0.019607844" d="M202.764 163.29C203.439 163.05 203.445 162.735 203.774 162.135L204.602 163.282C204.662 163.187 204.84 162.915 204.862 162.815C205.141 161.567 204.691 162.96 204.968 162.102C204.991 162.03 205.018 161.959 205.044 161.888C205.505 163.674 206.05 165.499 206.333 167.322L205.943 167.787L205.285 167.697C204.297 167.056 204.022 166.308 203.788 165.178C203.677 164.641 203.541 164.198 203.335 163.689L202.781 163.499L202.764 163.29Z"/>
	<path fill="#5D5B5F" d="M310.119 148.548C310.373 147.102 310.609 143.49 311.769 142.668C313.322 143.933 315.31 157.75 315.601 160.524C316.275 166.94 315.851 174.34 314.662 180.673C314.314 182.528 313.028 185.842 313.004 187.505C310.203 185.636 307.977 182.749 305.215 180.747C305.866 178.781 306.117 176.935 306.229 174.877L303.154 179.396L302.392 178.731C300.576 177.137 298.463 175.95 296.499 174.548C302.769 165.791 305.773 158.301 310.119 148.548ZM311.718 144.822L310.119 148.548C310.367 149.51 312.994 151.03 313.905 151.772L313.241 149.211C312.896 147.723 312.253 146.253 311.718 144.822Z"/>
	<path d="M309.143 152.098C309.792 152.497 310.469 152.945 310.776 153.651L310.11 154.552L310.23 155.032C310.935 155.178 311.068 154.169 311.805 153.908C312.422 155.286 310.556 159.772 310.218 161.438C310.087 162.078 309.929 162.532 310.295 163.103C311.565 162.721 312.277 161.115 313.493 160.498C313.994 160.243 314.077 160.293 314.579 160.459C314.797 160.887 314.892 161.209 314.878 161.686C314.817 163.794 314.067 164.955 312.623 166.375C310.639 168.28 308.823 170.403 306.922 172.394L304.967 170.501C305.397 166.608 306.942 162.685 307.828 158.864C308.347 156.626 308.472 154.274 309.143 152.098Z"/>
	<path fill="#5D5B5F" d="M157.143 217.927C159.592 210.515 161.887 203.455 165.351 196.423C166.145 194.811 166.909 193.033 167.994 191.594C168.316 191.165 168.774 190.584 169.284 190.368C171.24 189.539 177.172 192.823 179.76 192.145C180.601 191.924 180.659 191.481 181.038 190.779C181.007 192.045 180.988 193.307 180.864 194.568C182.803 195.009 192.025 195.862 192.783 196.6C192.335 197.952 185.938 200.834 184.363 201.798C178.855 205.171 173.614 209.912 169.296 214.697C167.199 217.021 165.215 219.692 162.923 221.806C162.449 220.716 158.442 219.059 157.143 217.927Z"/>
	<path fill="#5D5B5F" d="M331.209 191.677C331.372 191.981 331.562 192.566 331.9 192.674C334.04 193.356 341.922 189.218 343.501 190.359C343.754 190.541 344.106 191.068 344.281 191.33C346.571 194.751 355.523 214.492 354.801 217.984C354.693 218.508 353.957 218.891 353.513 219.11C352.237 219.74 349.803 220.586 349.049 221.793C347.076 220.211 345.413 217.344 343.69 215.419C339.291 210.503 333.996 205.944 328.459 202.367C326.807 201.301 319.843 197.894 319.313 196.722C320.891 195.746 328.884 194.964 331.236 194.563L331.209 191.677Z"/>
	<path fill="#5D5B5F" d="M335.674 250.329C337.992 252.12 340.329 253.903 342.292 256.092C344.044 257.921 345.76 259.761 347.416 261.68C347.835 261.817 347.869 261.91 348.302 261.756C348.363 262.47 348.477 262.703 349.018 263.19C350.694 264.701 353.02 265.911 355.123 266.697C352.393 276.471 349.151 286.617 343.152 294.951C340.664 294.65 337.881 293.931 335.623 292.841L335.112 292.989C335.307 290.865 336.546 288.598 336.96 286.448C338.782 276.993 337.821 268.071 333.861 259.336C335.525 257.583 334.649 252.669 335.674 250.329Z"/>
	<path d="M342.292 256.092C344.044 257.921 345.76 259.761 347.416 261.68C347.077 261.73 346.846 261.768 346.505 261.701C345.009 261.407 342.591 260.164 342 258.701C341.686 257.924 342.046 256.839 342.292 256.092Z"/>
	<path d="M189.974 234.411C192.289 233.778 194.652 233.489 197.032 233.223C198.813 235.649 200.178 238.441 201.382 241.19C203.383 245.76 205.627 252.396 201.01 256.151C199.55 257.338 197.681 257.947 196.371 259.328C194.446 261.358 193.472 264.044 192.473 266.601C195.503 267.912 198.704 268.818 201.754 270.098C212.556 274.634 220.193 281.197 226.508 290.993C224.509 282.247 221.469 273.407 215.01 266.868C213.012 264.844 210.308 263.013 208.972 260.47C206.295 255.373 207.929 247.918 209.648 242.76C209.445 246.002 209.223 249.681 210.351 252.792C212.14 257.724 217.06 260.278 221.555 262.264C224.007 259.66 225.924 256.567 227.863 253.576C226.893 261.318 226.767 269.345 229.16 276.857C230.097 279.797 231.655 282.712 232.16 285.759C232.907 290.26 232.128 294.928 232.273 299.459C232.326 301.126 232.564 303.168 233.417 304.613C235.155 307.557 238.908 309.752 241.42 312.058C243.002 313.51 244.413 315.139 245.987 316.597C246.444 317.021 246.948 317.428 247.574 317.555C250.945 318.239 258.304 317.765 261.962 317.58C263.148 317.52 264.537 317.486 265.58 316.872C267.465 315.763 268.878 313.42 270.536 311.934C272.733 309.964 275.468 308.667 277.427 306.396C278.219 305.478 278.785 304.467 279.074 303.285C280.281 298.336 278.673 291.068 279.771 285.414C280.267 282.862 281.418 280.44 282.313 278.007Q283.159 275.663 283.717 273.235Q284.276 270.807 284.539 268.329C285.078 263.445 284.774 258.607 284.318 253.736C286.281 256.563 288.034 259.554 290.263 262.183C293.171 261.009 296.08 259.524 298.454 257.449C302.982 253.49 302.251 249.001 302.625 243.632C304.045 248.22 304.939 256.464 302.623 260.856C301.554 262.885 298.868 264.417 297.274 266.104C290.427 273.345 286.863 281.984 285.282 291.7C287.276 288.857 288.98 285.914 291.228 283.236C298.559 274.507 309.184 270.16 319.675 266.52C317.366 260.827 315.19 258.548 309.745 255.679C308.943 253.7 308.451 251.799 308.37 249.655C308.154 243.931 311.095 237.461 314.905 233.302C317.255 233.437 319.514 234.047 321.839 234.377C319.148 240.078 315.963 246.142 318.724 252.447C319.792 254.886 321.242 257.14 322.271 259.606C323.799 263.27 324.444 267.112 325.159 270.993C322.877 271.016 320.637 271.05 318.368 271.325C315.548 276.63 312.079 281.69 308.989 286.848C307.485 284.625 305.596 282.715 303.765 280.765C302.025 282.989 299.749 285.457 298.771 288.13C296.659 293.902 300.903 304.562 297.182 312.002C295.219 313.32 288.454 317.195 286.378 317.015C286.274 317.006 286.175 316.971 286.073 316.948C287.705 313.027 289.318 309.246 289.479 304.936C287.164 310.629 284.556 316.131 279.79 320.214C277.457 323.266 274.295 325.931 271.542 328.615C270.665 329.416 269.804 330.277 268.868 331.008C267.92 331.982 266.725 333.491 265.471 334.053L264.964 333.809Q262.872 334.189 260.746 334.236C258.654 334.271 247.15 333.679 246.717 333.829C248.605 335.669 250.78 337.318 252.56 339.245C251.589 340.448 250.334 342.375 248.611 342.368C246.754 342.361 242.792 337.577 241.302 336.252C240.752 335.59 240.089 335.032 239.457 334.45C238.709 333.699 238.048 332.876 237.372 332.061C236.074 329.637 232.667 326.998 230.821 324.767C228.961 322.52 227.64 319.829 226.17 317.324C223.919 318.356 217.365 312.297 214.753 312.662C213.673 309.713 213.48 306.464 212.253 303.564C210.228 298.775 206.822 294.191 204.19 289.689L197.32 277.79C196.053 275.602 194.87 273.245 193.307 271.254L186.459 271.256C186.548 266.856 187.962 261.816 190.096 257.966C191.44 255.542 193.024 253.165 193.755 250.463C195.34 244.61 192.775 239.379 189.974 234.411Z"/>
	<path fill="#FEFEFE" d="M222.404 306.872C225.596 311.512 227.871 316.312 231.983 320.306C233.855 322.448 238.058 327.385 240.304 328.787C241.275 329.628 242.223 330.491 243.291 331.21C244.325 332.26 245.361 333.207 246.717 333.829C248.605 335.669 250.78 337.318 252.56 339.245C251.589 340.448 250.334 342.375 248.611 342.368C246.754 342.361 242.792 337.577 241.302 336.252C240.752 335.59 240.089 335.032 239.457 334.45C238.709 333.699 238.048 332.876 237.372 332.061C236.074 329.637 232.667 326.998 230.821 324.767C228.961 322.52 227.64 319.829 226.17 317.324C224.641 314.001 223.211 310.448 222.404 306.872Z"/>
	<path fill="#5D5B5F" d="M231.983 320.306C233.232 320.065 234.35 320.508 235.548 320.825Q239.943 321.992 244.449 322.595Q248.955 323.198 253.502 323.229C258.866 323.315 264.672 323.195 269.979 322.302C272.77 321.833 277.239 319.823 279.79 320.214C277.457 323.266 274.295 325.931 271.542 328.615C270.665 329.416 269.804 330.277 268.868 331.008C267.92 331.982 266.725 333.491 265.471 334.053L264.964 333.809Q262.872 334.189 260.746 334.236C258.654 334.271 247.15 333.679 246.717 333.829C245.361 333.207 244.325 332.26 243.291 331.21C242.223 330.491 241.275 329.628 240.304 328.787C238.058 327.385 233.855 322.448 231.983 320.306Z"/>
	<path d="M240.304 328.787C240.452 328.564 240.66 328.443 240.872 328.285C246.941 327.699 253.412 328.157 259.526 328.167C262.876 328.173 266.404 327.794 269.721 328.049C270.396 328.101 270.943 328.312 271.542 328.615C270.665 329.416 269.804 330.277 268.868 331.008C267.92 331.982 266.725 333.491 265.471 334.053L264.964 333.809Q262.872 334.189 260.746 334.236C258.654 334.271 247.15 333.679 246.717 333.829C245.361 333.207 244.325 332.26 243.291 331.21C242.223 330.491 241.275 329.628 240.304 328.787Z"/>
	<path fill="#5D5B5F" d="M243.291 331.21C246.549 330.687 250.529 331.164 253.885 331.171C258.875 331.181 263.894 330.964 268.868 331.008C267.92 331.982 266.725 333.491 265.471 334.053L264.964 333.809Q262.872 334.189 260.746 334.236C258.654 334.271 247.15 333.679 246.717 333.829C245.361 333.207 244.325 332.26 243.291 331.21Z"/>
	<path d="M230.037 168.105C231.23 166.992 233.292 166.744 234.835 166.366C242.932 164.38 250.84 163.525 259.171 163.804C264.624 163.987 277.288 165.226 281.723 168.121C280.09 169.712 278.297 171.369 278.284 173.833C278.265 177.34 281.691 187.198 283.293 190.611C288.137 185.713 292.539 180.184 296.499 174.548C298.463 175.95 300.576 177.137 302.392 178.731L303.154 179.396L306.229 174.877C306.117 176.935 305.866 178.781 305.215 180.747C307.977 182.749 310.203 185.636 313.004 187.505C312.054 189.994 310.921 192.536 310.416 195.157C313.907 199.049 318.709 201.624 322.335 205.389C315.898 203.136 308.668 201.505 301.833 201.16C304.05 206.871 309.714 210.318 314.258 214.036Q317.763 216.899 320.88 220.181C325.416 224.957 329.27 230.201 332.968 235.643C333.558 236.512 334.901 238.169 334.699 239.234L334.347 239.279C330.92 236.512 323.742 232.437 319.518 231.348C314.397 230.026 310.12 234.562 306.033 237.073C307.144 231.42 308.207 225.963 308.548 220.193C306.416 223.957 304.015 227.477 300.961 230.563C298.823 232.723 296.449 234.674 294.516 237.029C292.632 239.323 291.803 242.322 289.841 244.626C286.292 248.794 281.858 248.684 276.912 249.002C275.442 250.43 273.399 252.074 272.502 253.944C270.209 258.721 268.457 285.003 265.227 286.781C263.309 287.837 249.894 287.692 247.381 287.113C246.48 286.905 246.027 286.56 245.591 285.734C244.479 283.624 244.211 280.818 243.78 278.484C242.718 272.734 240.599 256.713 237.967 252.5C235.227 248.115 232.13 249.528 227.983 248.517Q227.237 248.328 226.522 248.044Q225.807 247.76 225.135 247.386Q224.463 247.012 223.845 246.554Q223.226 246.095 222.673 245.561C221.577 244.495 220.784 243.258 220.056 241.929C219.168 240.31 218.37 238.612 217.267 237.126C215.855 235.222 213.978 233.535 212.321 231.841C208.888 228.329 205.938 224.973 203.361 220.758C204.33 226.092 204.704 231.549 205.67 236.896C202.779 235.241 198.717 231.548 195.414 231.282C189.551 230.811 180.017 237.502 175.634 241.232C178.699 233.033 189.093 221.043 195.701 215.294C200.77 210.884 206.981 207.27 210.229 201.202C203.335 201.63 196.264 203.34 189.678 205.374C193.028 201.143 198.024 198.58 201.747 194.69C201.109 192.286 199.883 189.846 199.069 187.473C199.273 187.121 199.14 187.3 199.532 186.939C201.95 184.711 204.171 182.431 206.734 180.345C206.185 178.644 205.865 176.996 205.602 175.23C206.675 176.412 207.595 177.772 208.546 179.054C209.816 177.509 213.323 175.771 215.096 174.534C219.55 180.042 223.833 185.455 228.632 190.686C228.676 190.585 228.718 190.483 228.762 190.383C229.857 187.919 230.457 185.321 231.245 182.751C232.152 179.794 233.157 176.87 233.834 173.849C233.143 171.258 231.99 169.853 230.037 168.105Z"/>
	<path fill="#FEFEFE" d="M222.688 236.987C223.917 237.362 225.128 237.788 226.342 238.211C226.879 239.33 227.295 240.558 227.754 241.714C228.339 242.105 229.105 242.592 229.801 242.736C231.114 243.008 232.174 242.096 233.186 241.411C233.818 242.265 234.341 243.207 234.888 244.117L234.894 244.289L234.594 244.583C232.13 244.506 228.479 244.744 226.388 243.323C224.292 241.899 223.08 239.425 222.688 236.987Z"/>
	<path fill="#FEFEFE" d="M289.188 236.213C289.566 236.902 289.496 237.31 289.343 238.089C288.946 240.109 287.475 241.831 285.803 242.952C283.273 244.648 279.761 244.853 276.824 244.331L278.578 241.56C279.226 241.854 279.887 242.15 280.558 242.385C283.48 243.406 284.698 239.337 286.336 237.773C287.063 237.08 288.282 236.638 289.188 236.213Z"/>
	<path fill="#FEFEFE" d="M255.867 173.153C256.261 173.425 256.392 173.496 256.484 173.983C256.897 176.166 256.438 186.339 256.43 189.358C256.403 200.579 256.839 211.937 256.436 223.145C256.401 224.136 256.347 225.004 255.882 225.895C254.324 221.365 254.738 178.75 255.867 173.153Z"/>
	<path fill="#FEFEFE" d="M205.602 175.23C206.675 176.412 207.595 177.772 208.546 179.054C209.668 180.684 210.792 182.255 212.237 183.619C215.004 186.229 218.323 187.457 217.415 191.965C217.109 193.484 216.612 195 216.205 196.498C212.449 191.43 208.731 186.422 206.734 180.345C206.185 178.644 205.865 176.996 205.602 175.23Z"/>
	<path fill="#FEFEFE" d="M303.154 179.396L306.229 174.877C306.117 176.935 305.866 178.781 305.215 180.747C302.844 186.633 299.59 191.622 295.672 196.57L293.789 189.797C296.286 185.786 300.468 183.297 303.154 179.396Z"/>
	<path fill="#FEFEFE" d="M231.145 211.65C232.483 212.816 236.104 218.823 237.68 220.858C240.294 224.236 243.24 227.353 245.957 230.65Q246.278 242.428 245.575 254.189L245.411 254.367L245.134 254.206C244.174 249.084 243.353 243.939 242.357 238.816C241.89 236.414 241.544 233.821 240.655 231.534C239.861 229.49 238.567 227.734 237.358 225.923C234.374 221.454 231.947 217.032 231.145 211.65Z"/>
	<path fill="#FEFEFE" d="M280.225 211.644L280.547 212.031C280.217 219.742 273.759 225.015 271.333 231.369C268.059 239.945 268.657 249.777 266.375 258.616C266.354 258.695 266.332 258.774 266.311 258.853C265.14 255.89 265.738 235.357 265.773 231.025C267.592 228.354 269.903 225.978 271.981 223.504C275.114 219.775 277.834 215.892 280.225 211.644Z"/>
	<path fill="#FEFEFE" d="M204.742 216.145C206.276 216.625 211.284 221.086 213.087 222.313C216.479 224.619 219.951 226.62 223.728 228.239C222.769 224.77 222.244 221.391 221.838 217.826C223.938 221.156 225.985 224.603 228.784 227.401C231.772 230.387 235.342 232.743 237.734 236.276C239.321 239.413 239.515 242.529 239.746 245.964C235.298 238.257 233.153 237.834 225.232 234.266C222.226 232.912 219.362 231.077 216.697 229.146C211.802 225.601 208.37 220.883 204.742 216.145Z"/>
	<path fill="#FEFEFE" d="M308.497 212.988L308.708 213.373C308.396 214.567 307.174 215.86 306.444 216.85C301.382 223.715 294.977 230.05 287.39 234.069C284.235 235.741 280.334 236.35 277.547 238.641C275.079 240.67 273.556 243.583 271.941 246.281C271.999 243.056 272.266 240.269 273.498 237.266C275.98 232.93 280.355 230.356 283.636 226.715C286.072 224.012 287.862 220.635 289.802 217.563C289.731 221.158 289.17 224.447 288.199 227.909Q289.673 227.309 291.106 226.618Q292.54 225.928 293.928 225.151Q295.317 224.374 296.654 223.512Q297.992 222.651 299.274 221.708Q300.556 220.766 301.777 219.746Q302.999 218.726 304.155 217.633Q305.311 216.54 306.398 215.378Q307.484 214.215 308.497 212.988Z"/>
</svg>
