<?xml version="1.0" encoding="utf-8" ?>
<svg xmlns="http://www.w3.org/2000/svg" xmlns:xlink="http://www.w3.org/1999/xlink" width="32" height="32">
	<path fill="#5C5B5F" transform="matrix(0.106667 0 0 0.106667 3.8147e-06 9.53674e-07)" d="M131.464 60.9418C133.874 63.2648 138.419 73.6904 140.35 74.4201C142.834 75.3592 149.428 74.9349 152.37 74.9439C155.308 74.953 163.967 75.418 166.465 74.1045C168.356 73.1099 171.929 62.6434 174.755 61.2138C180.116 60.7617 192.28 66.3244 197.704 68.3722L198.515 67.7903C198.163 68.6973 197.717 70.1624 196.898 70.7598L194.407 74.2945C194.269 74.312 194.178 74.1937 194.068 74.1144L194.136 74.3909C194.089 74.3735 194.033 74.3714 193.996 74.3388C189.703 70.6174 182.952 69.112 177.487 67.9424C174.555 72.0002 172.347 76.7087 169.774 81.0182C158.645 80.8613 147.507 81.1424 136.378 80.9265C135.45 79.049 129.951 68.9034 128.619 68.3789C126.71 67.6271 116.473 71.5153 114.302 72.5356C113.458 72.932 112.449 73.3594 112.118 74.2743L112.439 74.7579L112.367 75.0442C111.954 74.5142 111.365 74.1553 110.822 73.767C110.041 72.8962 109.427 71.9757 108.804 70.9876C108.343 70.3877 108.111 69.7015 107.838 69.0035C113.461 65.3312 124.688 62.0929 131.464 60.9418ZM108.804 70.9876C109.427 71.9757 110.041 72.8962 110.822 73.767C111.365 74.1553 111.954 74.5142 112.367 75.0442L112.439 74.7579L112.118 74.2743C112.449 73.3594 113.458 72.932 114.302 72.5356C116.473 71.5153 126.71 67.6271 128.619 68.3789C129.951 68.9034 135.45 79.049 136.378 80.9265C147.507 81.1424 158.645 80.8613 169.774 81.0182C172.347 76.7087 174.555 72.0002 177.487 67.9424C182.952 69.112 189.703 70.6174 193.996 74.3388C194.033 74.3714 194.089 74.3735 194.136 74.3909L194.068 74.1144C194.178 74.1937 194.269 74.312 194.407 74.2945L196.898 70.7598C196.044 70.2516 194.69 70.0805 193.7 69.7378C187.79 67.6902 182.029 65.8033 175.954 64.2828C175.134 66.1458 169.264 76.9421 167.979 77.4405C165.761 78.3005 139.587 78.3371 138.054 77.5138C136.971 76.9326 131.078 66.119 130.168 64.2149C126.277 65.4356 122.325 66.46 118.442 67.7032C115.527 68.6364 112.1 70.4273 109.088 70.687L108.804 70.9876Z"/>
	<path fill="#5C5B5F" transform="matrix(0.106667 0 0 0.106667 3.8147e-06 9.53674e-07)" d="M177.487 67.9424C182.952 69.112 189.703 70.6174 193.996 74.3388C194.033 74.3714 194.089 74.3735 194.136 74.3909L194.068 74.1144C194.178 74.1937 194.269 74.312 194.407 74.2945C191.509 80.6914 184.081 87.5624 178.722 92.1209C173.807 88.9015 159.402 87.7645 153.467 87.7561C146.024 87.7456 139.058 88.5992 131.835 90.3658C130.341 90.7311 128.15 90.9948 127.037 92.1053C120.533 87.5157 114.946 80.4839 110.822 73.767C111.365 74.1553 111.954 74.5142 112.367 75.0442L112.439 74.7579L112.118 74.2743C112.449 73.3594 113.458 72.932 114.302 72.5356C116.473 71.5153 126.71 67.6271 128.619 68.3789C129.951 68.9034 135.45 79.049 136.378 80.9265C147.507 81.1424 158.645 80.8613 169.774 81.0182C172.347 76.7087 174.555 72.0002 177.487 67.9424Z"/>
	<path fill="#5C5B5F" transform="matrix(0.106667 0 0 0.106667 3.8147e-06 9.53674e-07)" d="M226.079 64.5263Q225.562 62.6867 225.311 60.7924Q225.061 58.898 225.082 56.9872C225.136 47.4671 229.39 37.103 236.192 30.4171C242.028 24.6798 250.207 20.839 258.346 20.0576C262.052 19.7019 266.018 19.974 269.749 20.0071C267.283 23.0617 264.361 25.6665 261.556 28.3943C258.472 31.3928 255.542 34.5432 252.489 37.5727C249.331 40.7073 246.015 43.7005 243.185 47.1453C243.729 50.1381 244.737 53.1648 245.528 56.1068C246.839 60.9807 248.053 65.8745 249.699 70.6493C257.292 72.5613 264.94 75.0988 272.629 76.4971C275.755 74.0908 278.47 70.9622 281.239 68.1492L292.051 57.3505C293.996 55.3955 296.014 53.0229 298.238 51.3986C298.761 51.0165 299.382 50.8315 300 50.6633L300 62.904C299.976 62.9577 299.951 63.0109 299.928 63.0649C298.756 65.7898 298.369 68.8999 297.261 71.7001C293.759 80.5516 285.86 88.1089 277.105 91.6899C269.708 94.7158 263.204 94.7643 255.351 93.975C251.215 98.1462 246.952 102.229 242.9 106.477C250.841 117.973 256.27 131.675 259.229 145.29C255.079 147.675 248.745 150.712 245.283 153.7C244.413 161.766 245.375 169.993 244.72 178.095L244.14 179.541L243.741 178.83L243.956 178.909L243.543 178.786C241.981 173.949 240.808 168.906 239.386 164.016C239.167 163.071 238.764 162.104 238.458 161.179C239.339 159.744 238.864 152.199 238.939 150.033L239.029 149.716C240.689 149.058 241.832 147.919 243.663 147.436C244.196 147.277 244.461 147.263 245 147.407C245.724 147.836 246.336 148.137 247.156 148.357C247.293 147.258 246.676 146.609 246.049 145.793C246.899 144.433 249.594 143.686 250.977 142.869C251.379 142.631 251.778 142.298 251.839 141.813C252.279 138.281 243.754 118.572 241.028 114.971C239.108 112.434 231.912 117.342 229.05 116.726C228.56 116.62 228.426 116.082 228.21 115.679C228.238 114.987 228.087 114.305 227.973 113.625C226.334 106.988 225.308 100.202 223.883 93.5169C222.901 88.9047 221.381 84.2026 220.81 79.5319Q220.35 77.1734 219.807 74.8327C219.078 72.7851 218.609 70.8142 218.48 68.6335C218.651 69.3375 218.792 70.6415 219.305 71.1054C221.739 69.2355 223.825 66.6357 226.079 64.5263ZM227.973 113.625C228.087 114.305 228.238 114.987 228.21 115.679C228.426 116.082 228.56 116.62 229.05 116.726C231.912 117.342 239.108 112.434 241.028 114.971C243.754 118.572 252.279 138.281 251.839 141.813C251.778 142.298 251.379 142.631 250.977 142.869C249.594 143.686 246.899 144.433 246.049 145.793C246.676 146.609 247.293 147.258 247.156 148.357C249.617 147.68 253.095 145.065 255.434 143.715C253.411 131.991 247.439 120.595 241.667 110.352C239.598 111.053 233.805 112.976 231.846 112.69L231.866 112.688L231.784 112.464C232.537 112.237 249.463 94.98 251.175 93.1349C250.371 92.7039 249.342 91.9828 248.411 91.9536C247.911 91.9378 247.585 92.0021 247.188 92.3279C243.842 95.0716 240.845 98.7211 237.765 101.799C234.68 104.881 231.159 107.837 228.286 111.096C227.754 111.7 227.942 112.867 227.973 113.625ZM226.685 67.7823C225.37 69.3466 220.106 73.4185 219.807 74.8327Q220.35 77.1734 220.81 79.5319C222.533 78.9261 226.867 73.2023 228.14 71.5661C227.536 70.3366 227.112 69.0794 226.685 67.7823ZM241.387 152.392C240.85 154.663 239.821 157.569 239.906 159.866C240.286 160.189 240.416 160.174 240.896 160.243L240.797 160.611L239.767 160.895C239.314 161.752 239.647 162.954 239.783 163.882C240.385 166.379 241.163 168.784 242.008 171.209Q242.037 163.794 241.628 156.391C241.559 155.06 241.526 153.716 241.387 152.392ZM243.663 147.436C243.221 148.416 242.078 150.054 242.224 151.051Q244.814 149.93 247.156 148.357C246.336 148.137 245.724 147.836 245 147.407C244.461 147.263 244.196 147.277 243.663 147.436Z"/>
	<path transform="matrix(0.106667 0 0 0.106667 3.8147e-06 9.53674e-07)" d="M239.029 149.716C240.689 149.058 241.832 147.919 243.663 147.436C243.221 148.416 242.078 150.054 242.224 151.051C241.599 152.835 241.646 154.524 241.628 156.391C241.559 155.06 241.526 153.716 241.387 152.392C240.85 154.663 239.821 157.569 239.906 159.866C240.286 160.189 240.416 160.174 240.896 160.243L240.797 160.611L239.767 160.895C239.314 161.752 239.647 162.954 239.783 163.882L239.386 164.016C239.167 163.071 238.764 162.104 238.458 161.179C239.339 159.744 238.864 152.199 238.939 150.033L239.029 149.716Z"/>
	<path fill="#5C5B5F" transform="matrix(0.106667 0 0 0.106667 3.8147e-06 9.53674e-07)" d="M36.8267 20.136C41.1682 19.7891 45.9758 19.663 50.2638 20.4107Q51.1602 20.5679 52.048 20.7684Q52.9357 20.969 53.8127 21.2124Q54.6896 21.4558 55.5537 21.7416Q56.4178 22.0273 57.267 22.3547Q58.1162 22.6821 58.9484 23.0504Q59.7807 23.4186 60.5941 23.8269Q61.4075 24.2352 62.2001 24.6825Q62.9927 25.1298 63.7627 25.615Q64.5326 26.1003 65.2781 26.6224Q66.0235 27.1445 66.7427 27.7022Q67.462 28.2599 68.1532 28.8519Q68.8445 29.4439 69.5062 30.0688Q70.1679 30.6937 70.7984 31.3499Q71.429 32.0062 72.0269 32.6924Q72.6248 33.3785 73.1887 34.0929Q73.7526 34.8073 74.2811 35.5482C80.325 44.1784 82.2192 54.3133 80.3794 64.6188C82.2073 66.7593 85.6149 69.0952 86.5583 71.7501L86.1598 73.6896C85.9177 75.2277 85.4805 76.7016 85.2124 78.2222C85.2522 81.305 82.9238 89.0541 82.2282 92.6113C81.015 98.8151 80.4246 106.107 78.5847 112.048L78.0379 114.779C77.7512 115.31 77.6055 115.864 76.9972 116.076C74.3658 116.991 68.3461 113.511 66.2845 114.368C65.3687 114.749 64.5376 116.196 64.0811 117.023C59.6588 125.032 56.9968 133.317 54.1414 141.928C55.4397 143.07 59.3835 144.566 59.9231 145.806L58.8037 147.256C58.9921 147.661 59.0426 147.891 59.415 148.149C60.3095 147.804 61.1171 147.277 61.937 146.786C62.7806 147.198 63.4912 147.741 64.2367 148.304C65.334 148.766 66.2513 149.293 67.2226 149.981L67.2932 150.282C67.3578 152.251 67.4333 154.364 67.0259 156.302C67.0906 158.542 66.9826 160.596 66.6597 162.819L66.1021 164.694C65.3217 170.865 61.5979 178.112 61.0064 183.792C60.956 184.276 60.9161 184.716 61.307 185.073C61.3798 185.14 61.4743 185.178 61.5579 185.23C63.3432 183.752 64.9036 182.008 66.4933 180.326C67.3993 178.647 71.2009 175.89 72.8127 174.641C73.8052 176.863 73.3549 182.68 74.9135 184.08C70.419 195.83 69.9976 205.355 74.2484 217.31C75.0662 217.459 75.1689 217.532 75.8947 217.156C76.3959 216.477 76.4523 215.754 76.5691 214.946C76.3192 209.807 78.045 205.278 80.4847 200.867C81.8269 204.358 87.6966 215.53 90.8619 217.289C90.9598 217.343 91.1025 217.384 91.203 217.417L91.7046 217.207C93.5486 219.083 96.3876 224.954 98.1123 227.554Q101.93 233.353 106.403 238.664Q110.876 243.975 115.941 248.724C114.398 244.782 112.741 240.786 111.753 236.661C114.243 236.164 120.901 242.364 123.169 241.323C124.553 243.669 125.789 246.171 127.467 248.327C128.982 250.274 133.589 254.269 134.371 256.061C135.046 256.874 135.705 257.707 136.457 258.449C137.078 259.021 137.789 259.582 138.302 260.252C137.038 263.153 134.284 270.561 131.28 271.725C127.335 273.255 107.89 264.594 103.854 262.504C100.182 260.602 96.7124 258.329 93.0546 256.422C90.8597 257.935 81.197 266.92 80.9152 269.171C80.7985 270.104 80.976 271.194 81.0549 272.136C73.4967 271.751 65.7999 272.013 58.2254 272.004C38.8344 271.983 19.3812 272.365 0 271.97L0 267.146C1.85309 267.118 4.83813 267.423 6.48547 266.481C8.0807 265.569 9.38482 260.665 10.2135 258.892C12.3197 254.386 15.658 250.238 19.4987 247.092C29.0525 239.266 38.9497 237.838 50.8969 239.033C52.9214 237.504 54.6468 235.511 56.4197 233.703L63.5978 226.511C58.4548 221.196 52.3093 206.331 50.0648 199.199C48.9243 195.576 48.2438 191.83 47.072 188.226C50.4378 185.081 57.8391 182.472 60.5723 179.82C61.0557 179.351 61.0479 178.562 61.096 177.924C61.2596 175.757 61.0668 173.478 61.0996 171.296Q61.2721 162.311 61.2269 153.324C57.3758 151.292 50.2871 147.742 47.2142 145.049C49.9213 132.11 55.3201 116.932 63.5717 106.438C59.327 102.365 55.354 97.7756 50.7461 94.1352C45.6659 94.7407 40.7189 94.9026 35.6825 93.7971Q34.7755 93.6001 33.8792 93.3588Q32.9829 93.1175 32.0995 92.8326Q31.2162 92.5477 30.3478 92.2199Q29.4795 91.892 28.6282 91.5219Q27.777 91.1519 26.9449 90.7406Q26.1129 90.3293 25.302 89.8777Q24.491 89.4261 23.7032 88.9352Q22.9155 88.4444 22.1527 87.9156Q21.3899 87.3867 20.6539 86.8212Q19.918 86.2556 19.2106 85.6546Q18.5033 85.0536 17.8263 84.4186Q17.1492 83.7837 16.5041 83.1163Q15.859 82.4489 15.2474 81.7508Q14.6358 81.0526 14.0592 80.3253Q13.4825 79.5979 12.9423 78.8432Q12.402 78.0885 11.8993 77.3082C6.8722 69.3912 4.70297 59.4595 6.73666 50.2687C9.60573 53.3977 12.8247 56.3211 15.8414 59.3144L33.4329 76.871C38.683 75.0836 44.3056 73.9157 49.6741 72.5036C51.6397 71.9865 54.2913 71.5935 56.0406 70.5866C56.6537 70.2336 56.8691 69.8544 57.1439 69.2222C58.2216 66.7429 58.7275 63.7862 59.4023 61.1601Q61.2043 54.0552 63.101 46.9751C59.9817 43.4655 56.5284 40.203 53.2053 36.8876Q44.8878 28.6371 36.8267 20.136ZM47.5903 247.972C39.8347 252.081 39.3132 251.961 30.6035 250.598C29.3828 253.065 28.154 256.275 26.3251 258.318C24.1676 260.728 17.563 261.52 18.3722 265.519C19.1028 266.184 20.8362 266.018 21.7976 265.973C25.6751 265.791 29.5523 265.063 33.4375 265.062C39.1951 265.023 44.7721 264.46 50.4994 264.153C55.2616 263.898 60.2122 264.058 64.9212 263.192C64.5023 260.763 64.1032 258.347 63.8448 255.894C61.258 255.347 57.2437 255.578 55.0421 254.268C53.2941 253.228 49.0102 247.911 47.5903 247.972ZM98.745 240.91C94.0683 245.564 89.179 250.026 84.4883 254.681C82.3041 256.848 80.0322 258.965 78.1165 261.378C78.5855 262.625 79.0766 263.865 79.4188 265.155C83.909 260.423 88.5307 255.823 93.1218 251.19C95.2599 249.033 97.5579 246.957 99.5302 244.647C98.689 247.998 98.2282 251.716 97.018 254.916C104.513 260.938 120.85 266.603 130.219 268.558C131.347 266.738 136.193 259.79 136.457 258.449C135.705 257.707 135.046 256.874 134.371 256.061C132.606 257.125 131.087 261.839 129.709 263.691C129.269 264.282 128.726 264.878 127.954 264.954C126.176 265.131 123.793 264.016 122.126 263.439C114.814 260.908 106.87 258.093 100.578 253.499C101.228 249.408 102.42 245.265 103.412 241.237L103.324 240.622L102.884 240.292C101.461 239.971 100.031 240.254 98.745 240.91ZM74.7978 113.145C71.4761 112.198 68.14 111.172 64.7282 110.609C60.9842 115.276 50.5438 137.884 51.1076 143C51.1696 143.562 51.2364 143.902 51.6861 144.265C52.9101 145.251 56.9674 147.794 58.5555 147.854L58.8037 147.256L59.9231 145.806C59.3835 144.566 55.4397 143.07 54.1414 141.928C56.9968 133.317 59.6588 125.032 64.0811 117.023C64.5376 116.196 65.3687 114.749 66.2845 114.368C68.3461 113.511 74.3658 116.991 76.9972 116.076C77.6055 115.864 77.7512 115.31 78.0379 114.779L78.5847 112.048C78.4805 111.685 78.3384 111.308 78.0868 111.018C76.7736 109.507 74.974 108.163 73.5283 106.724C70.8163 104.025 61.2172 93.6248 58.6396 92.0599C57.8847 91.9389 56.5378 92.2358 55.93 92.7261C55.5573 93.0268 55.6214 93.2694 55.5997 93.693C56.3421 95.4812 71.8149 110.285 74.7978 113.145ZM50.786 189.392C54.2656 201.598 57.8371 212.073 64.7053 222.919C67.6903 221.434 71.1283 221.398 74.122 219.969C72.4735 222.234 70.3965 224.146 68.4334 226.133L59.7701 234.86C58.4145 236.222 56.0233 238.119 55.1959 239.838C55.8996 240.895 57.3804 241.169 58.5458 241.511C62.0956 237.698 65.8299 234.037 69.5496 230.388C71.9984 227.986 74.9219 225.54 76.8648 222.709C75.3657 221.456 74.9193 219.094 73.7076 217.553C71.7987 217.001 69.2774 219.001 67.1802 218.898C66.3831 218.858 65.8723 218.568 65.3834 217.95C62.4055 214.183 54.0084 195.553 54.4989 191.37C55.6303 188.97 60.1076 187.454 62.3425 185.943C61.9406 185.828 61.4959 185.783 61.0821 185.714Q60.6989 184.667 60.3402 183.611C59.4074 183.891 58.5036 184.955 57.6475 185.493C55.4204 186.893 53.0158 188.007 50.786 189.392ZM61.937 146.786C61.1171 147.277 60.3095 147.804 59.415 148.149L59.2065 148.473C60.026 149.701 62.7162 150.435 64.0114 151.326Q64.1158 161.113 63.9408 170.898C64.7292 168.878 65.1991 166.636 66.1021 164.694L66.6597 162.819C66.9826 160.596 67.0906 158.542 67.0259 156.302C67.4333 154.364 67.3578 152.251 67.2932 150.282L67.2226 149.981C66.2513 149.293 65.334 148.766 64.2367 148.304C63.4912 147.741 62.7806 147.198 61.937 146.786ZM79.446 68.052C79.0564 69.4012 78.6847 70.7584 78.222 72.0848C79.3616 73.5447 83.0865 77.9612 84.5373 78.6865C84.8219 78.5361 85.0044 78.469 85.2124 78.2222C85.4805 76.7016 85.9177 75.2277 86.1598 73.6896L85.8276 73.252C85.7631 73.2504 85.6984 73.2525 85.6341 73.2472C83.8547 73.0988 80.791 69.3874 79.446 68.052Z"/>
	<path transform="matrix(0.106667 0 0 0.106667 3.8147e-06 9.53674e-07)" d="M102.379 236.59C102.998 237.309 103.645 238.017 104.237 238.758C104.068 239.384 103.84 240.808 103.412 241.237L103.324 240.622L102.884 240.292C101.461 239.971 100.031 240.254 98.745 240.91C99.7488 239.355 100.979 237.811 102.379 236.59Z"/>
	<path transform="matrix(0.106667 0 0 0.106667 3.8147e-06 9.53674e-07)" d="M76.6679 216.141C78.0225 215.955 79.309 215.646 80.6298 215.304C81.3152 216.098 81.9816 216.91 82.7664 217.609C81.5954 218.435 78.7642 221.859 77.5515 221.591C77.532 221.586 77.5156 221.573 77.4976 221.564C77.1383 219.757 76.866 217.973 76.6679 216.141Z"/>
	<path transform="matrix(0.106667 0 0 0.106667 3.8147e-06 9.53674e-07)" d="M64.2367 148.304C65.334 148.766 66.2513 149.293 67.2226 149.981L67.2932 150.282C67.3578 152.251 67.4333 154.364 67.0259 156.302C66.4772 153.489 66.0016 150.644 64.2367 148.304Z"/>
	<path fill="#5C5B5F" transform="matrix(0.106667 0 0 0.106667 3.8147e-06 9.53674e-07)" d="M72.8127 174.641C73.8052 176.863 73.3549 182.68 74.9135 184.08C70.419 195.83 69.9976 205.355 74.2484 217.31C75.0662 217.459 75.1689 217.532 75.8947 217.156C76.3959 216.477 76.4523 215.754 76.5691 214.946L76.6679 216.141C76.866 217.973 77.1383 219.757 77.4976 221.564L77.6664 222.936L77.4014 223.095L76.8648 222.709C75.3657 221.456 74.9193 219.094 73.7076 217.553C71.7987 217.001 69.2774 219.001 67.1802 218.898C66.3831 218.858 65.8723 218.568 65.3834 217.95C62.4055 214.183 54.0084 195.553 54.4989 191.37C55.6303 188.97 60.1076 187.454 62.3425 185.943C61.9406 185.828 61.4959 185.783 61.0821 185.714L61.5579 185.23C63.3432 183.752 64.9036 182.008 66.4933 180.326C67.3993 178.647 71.2009 175.89 72.8127 174.641Z"/>
	<path fill="#E2E3E1" transform="matrix(0.106667 0 0 0.106667 3.8147e-06 9.53674e-07)" d="M76.5691 214.946L76.6679 216.141C76.866 217.973 77.1383 219.757 77.4976 221.564L77.6664 222.936L77.4014 223.095L76.8648 222.709C76.2709 220.882 74.9834 219.136 74.2484 217.31C75.0662 217.459 75.1689 217.532 75.8947 217.156C76.3959 216.477 76.4523 215.754 76.5691 214.946Z"/>
	<path transform="matrix(0.106667 0 0 0.106667 3.8147e-06 9.53674e-07)" d="M66.4933 180.326C67.1402 180.857 67.2976 182.231 67.4937 183.037C66.1541 183.934 63.9555 185.776 62.3425 185.943C61.9406 185.828 61.4959 185.783 61.0821 185.714L61.5579 185.23C63.3432 183.752 64.9036 182.008 66.4933 180.326Z"/>
	<path fill="#FEFEFE" transform="matrix(0.106667 0 0 0.106667 3.8147e-06 9.53674e-07)" d="M186.479 228.935C186.319 233.256 184.708 237.023 183.073 240.949C183.049 240.986 183.024 241.023 183 241.061C181.701 243.12 180.855 245.284 179.38 247.289C177.735 249.525 173.074 254.35 172.144 256.188C171.351 257.046 170.476 257.889 169.753 258.804C169.197 259.305 168.623 259.793 168.105 260.333C162.885 265.013 157.881 269.993 152.736 274.765C150.703 276.65 148.6 279.029 146.212 280.441C143.737 280.614 141.219 280.51 138.738 280.491C141.724 276.928 145.596 273.883 149.009 270.724C153.532 266.538 157.904 262.19 162.471 258.053C163.717 257.493 164.913 255.99 165.865 255.012C166.801 254.278 167.664 253.417 168.543 252.615C171.281 249.944 174.49 247.253 176.792 244.212C181.558 240.161 184.175 234.607 186.479 228.935Z"/>
	<path fill="#FEFEFE" transform="matrix(0.106667 0 0 0.106667 3.8147e-06 9.53674e-07)" d="M143.578 291.673C146.439 289.184 162.696 272.692 163.498 272.387C163.648 272.33 163.815 272.35 163.974 272.331C164.402 273.871 161.587 282.906 160.625 284.598C158.87 287.686 148.602 297.646 145.651 300L142.699 300C139.921 297.74 125.671 284.816 124.642 283.001C125.009 281.47 127.727 279.485 129.069 278.676L129.252 278.567C131.575 280.159 133.57 282.333 135.605 284.271Q139.563 288.003 143.578 291.673Z"/>
	<path fill="#5C5B5F" transform="matrix(0.106667 0 0 0.106667 3.8147e-06 9.53674e-07)" d="M245.804 180.457C248.712 181.151 256.364 185.944 259.031 187.807C256.195 199.736 252.901 209.523 246.879 220.273C245.743 222.302 244.451 225.025 242.689 226.575C246.438 230.009 252.397 235.103 255.228 239.134C265.642 237.664 276.134 239.144 284.732 245.595C289.468 249.148 294.217 254.384 296.52 259.887C297.474 262.168 298.349 265.509 300 267.34L300 272.058L250.724 271.993Q238.124 271.936 225.524 272.053C225.683 271.287 225.987 270.283 225.953 269.502C225.89 268.047 215.263 257.995 213.558 256.189C203.162 262.595 189.312 269.658 177.197 271.66C176.231 271.82 175.031 272 174.204 271.377C172.528 270.114 168.37 262.531 168.105 260.333C168.623 259.793 169.197 259.305 169.753 258.804C170.476 257.889 171.351 257.046 172.144 256.188C173.074 254.35 177.735 249.525 179.38 247.289C180.855 245.284 181.701 243.12 183 241.061C183.024 241.023 183.049 240.986 183.073 240.949C183.113 240.96 183.153 240.973 183.194 240.982C185.034 241.386 192.442 237.173 194.184 236C194.237 239.59 191.221 244.981 190.033 248.536C196.622 242.087 202.895 234.693 207.997 227.009C209.899 224.145 210.975 220.52 213.291 217.945L213.89 218.183C216.298 217.386 221.968 207.696 223.26 205.303C224.069 203.805 224.643 202.219 225.48 200.737C227.187 204.227 228.75 207.367 229.217 211.288C229.352 212.422 229.408 213.594 229.328 214.734C229.199 216.543 227.947 221.192 228.621 222.638L228.787 222.661C230.188 221.182 231.248 218.836 232.111 216.989L232.623 216.841C234.895 217.938 237.646 218.661 240.152 218.95C246.154 210.642 249.4 200.451 252.122 190.697C250.05 189.922 247.886 188.758 246.185 187.334C245.56 186.811 245.37 186.548 245.303 185.756L244.68 183.886C244.685 183.826 244.693 183.766 244.695 183.706C244.751 182.27 245.626 181.739 245.804 180.457ZM257.906 247.909C255.025 251.149 252.639 254.083 248.123 254.859C246.172 255.195 244.287 255.471 242.4 256.109C242.055 258.443 241.858 260.854 241.305 263.146C246.386 263.821 251.25 263.87 256.338 264.171C259.153 264.338 261.947 264.738 264.758 264.918C267.752 265.109 270.795 265.031 273.795 265.029C276.512 265.046 286.206 266.82 287.913 265.536C288.135 264.797 288.196 264.174 287.783 263.481C286.462 261.264 282.434 260.629 280.483 258.9C278.236 256.907 277.063 253.16 275.375 250.65C272.53 251.317 269.497 251.455 266.597 251.87C264.552 251.007 259.706 247.951 257.906 247.909ZM205.949 253.471C201.11 256.393 183.351 265.205 178.18 264.922C175.532 264.778 174.014 258.06 172.265 256.302C172.226 256.263 172.185 256.226 172.144 256.188C171.351 257.046 170.476 257.889 169.753 258.804L169.222 259.928L170.147 259.916C172.615 261.614 174.342 266.136 175.965 268.691Q176.728 268.581 177.481 268.419C186.644 266.363 195.789 262.656 204.03 258.178C205.413 257.426 207.732 256.418 208.556 255.021C209.491 253.437 207.232 247.047 206.714 245.076C213.655 251.464 220.289 258.544 226.779 265.394C227.048 263.828 227.494 262.486 228.122 261.025C225.663 258.321 205.489 238.126 203.864 237.472C203.395 237.61 203.317 237.626 203.079 238.063C201.704 240.592 205.101 250.346 205.949 253.471ZM245.303 185.756C245.37 186.548 245.56 186.811 246.185 187.334C247.886 188.758 250.05 189.922 252.122 190.697C249.4 200.451 246.154 210.642 240.152 218.95C237.646 218.661 234.895 217.938 232.623 216.841L232.111 216.989C231.248 218.836 230.188 221.182 228.787 222.661C235.259 228.769 241.842 234.973 247.779 241.602C248.983 241.093 250.121 240.459 251.27 239.839L239.805 228.384C237.109 225.692 234.141 223.162 232.074 219.935C235.189 221.281 238.576 221.582 241.738 222.754C243.603 219.511 245.5 216.278 247.141 212.914C249.17 208.752 255.512 193.849 255 189.813C254.951 189.424 254.759 188.902 254.441 188.645C253.435 187.832 251.603 187.211 250.419 186.581C248.739 185.686 247.282 184.675 245.756 183.537L245.422 183.728Q245.375 184.743 245.303 185.756Z"/>
	<path transform="matrix(0.106667 0 0 0.106667 3.8147e-06 9.53674e-07)" d="M225.582 215.446C226.593 215.436 227.67 215.688 228.567 216.154C228.861 217.178 228.274 219.786 227.87 220.81L227.624 220.871C226.823 219.902 225.487 219.321 224.526 218.499C224.005 218.054 223.964 217.714 223.9 217.077C224.17 216.282 224.92 215.891 225.582 215.446Z"/>
	<path fill="#FEFEFE" transform="matrix(0.106667 0 0 0.106667 3.8147e-06 9.53674e-07)" d="M198.515 67.7903C202.095 60.9347 207.19 51.9267 208.077 44.2355C208.416 41.2964 207.841 38.2829 208.258 35.3796C210.215 40.3593 211.59 45.5943 213.13 50.7128C214.927 56.6854 216.834 62.6155 218.48 68.6335C218.609 70.8142 219.078 72.7851 219.807 74.8327Q220.35 77.1734 220.81 79.5319C221.381 84.2026 222.901 88.9047 223.883 93.5169C225.308 100.202 226.334 106.988 227.973 113.625C228.087 114.305 228.238 114.987 228.21 115.679C228.426 116.082 228.56 116.62 229.05 116.726C231.912 117.342 239.108 112.434 241.028 114.971C243.754 118.572 252.279 138.281 251.839 141.813C251.778 142.298 251.379 142.631 250.977 142.869C249.594 143.686 246.899 144.433 246.049 145.793C246.676 146.609 247.293 147.258 247.156 148.357C246.336 148.137 245.724 147.836 245 147.407C244.461 147.263 244.196 147.277 243.663 147.436C241.832 147.919 240.689 149.058 239.029 149.716L238.939 150.033C238.864 152.199 239.339 159.744 238.458 161.179C238.764 162.104 239.167 163.071 239.386 164.016C240.808 168.906 241.981 173.949 243.543 178.786L243.956 178.909L243.741 178.83L244.14 179.541L244.72 178.095C244.857 178.888 244.898 179.639 245.521 180.208C245.579 180.261 245.633 180.318 245.692 180.37C245.728 180.401 245.767 180.428 245.804 180.457C245.626 181.739 244.751 182.27 244.695 183.706C244.693 183.766 244.685 183.826 244.68 183.886L245.303 185.756C245.37 186.548 245.56 186.811 246.185 187.334C247.886 188.758 250.05 189.922 252.122 190.697C249.4 200.451 246.154 210.642 240.152 218.95C237.646 218.661 234.895 217.938 232.623 216.841L232.111 216.989C231.248 218.836 230.188 221.182 228.787 222.661L228.621 222.638C227.947 221.192 229.199 216.543 229.328 214.734C229.408 213.594 229.352 212.422 229.217 211.288C228.75 207.367 227.187 204.227 225.48 200.737C224.643 202.219 224.069 203.805 223.26 205.303C221.968 207.696 216.298 217.386 213.89 218.183L213.291 217.945C210.975 220.52 209.899 224.145 207.997 227.009C202.895 234.693 196.622 242.087 190.033 248.536C191.221 244.981 194.237 239.59 194.184 236C192.442 237.173 185.034 241.386 183.194 240.982C183.153 240.973 183.113 240.96 183.073 240.949C184.708 237.023 186.319 233.256 186.479 228.935C184.175 234.607 181.558 240.161 176.792 244.212C174.49 247.253 171.281 249.944 168.543 252.615C167.664 253.417 166.801 254.278 165.865 255.012C164.913 255.99 163.717 257.493 162.471 258.053C161.445 257.559 159.031 258.216 157.746 258.236C156.167 258.261 144.082 257.703 143.717 257.829C145.602 259.67 147.804 261.302 149.557 263.244C148.617 264.414 147.456 266.179 145.849 266.355C144.882 266.46 144.072 265.881 143.392 265.267C141.629 263.675 140.095 261.847 138.302 260.252C137.789 259.582 137.078 259.021 136.457 258.449C135.705 257.707 135.046 256.874 134.371 256.061C133.589 254.269 128.982 250.274 127.467 248.327C125.789 246.171 124.553 243.669 123.169 241.323C120.901 242.364 114.243 236.164 111.753 236.661C112.741 240.786 114.398 244.782 115.941 248.724Q110.876 243.975 106.403 238.664Q101.93 233.353 98.1123 227.554C96.3876 224.954 93.5486 219.083 91.7046 217.207L91.203 217.417C91.1025 217.384 90.9598 217.343 90.8619 217.289C87.6966 215.53 81.8269 204.358 80.4847 200.867C78.045 205.278 76.3192 209.807 76.5691 214.946C76.4523 215.754 76.3959 216.477 75.8947 217.156C75.1689 217.532 75.0662 217.459 74.2484 217.31C69.9976 205.355 70.419 195.83 74.9135 184.08C73.3549 182.68 73.8052 176.863 72.8127 174.641C71.2009 175.89 67.3993 178.647 66.4933 180.326C64.9036 182.008 63.3432 183.752 61.5579 185.23C61.4743 185.178 61.3798 185.14 61.307 185.073C60.9161 184.716 60.956 184.276 61.0064 183.792C61.5979 178.112 65.3217 170.865 66.1021 164.694L66.6597 162.819C66.9826 160.596 67.0906 158.542 67.0259 156.302C67.4333 154.364 67.3578 152.251 67.2932 150.282L67.2226 149.981C66.2513 149.293 65.334 148.766 64.2367 148.304C63.4912 147.741 62.7806 147.198 61.937 146.786C61.1171 147.277 60.3095 147.804 59.415 148.149C59.0426 147.891 58.9921 147.661 58.8037 147.256L59.9231 145.806C59.3835 144.566 55.4397 143.07 54.1414 141.928C56.9968 133.317 59.6588 125.032 64.0811 117.023C64.5376 116.196 65.3687 114.749 66.2845 114.368C68.3461 113.511 74.3658 116.991 76.9972 116.076C77.6055 115.864 77.7512 115.31 78.0379 114.779L78.5847 112.048C80.4246 106.107 81.015 98.8151 82.2282 92.6113C82.9238 89.0541 85.2522 81.305 85.2124 78.2222C85.4805 76.7016 85.9177 75.2277 86.1598 73.6896L86.5583 71.7501C87.0189 69.2863 88.4726 65.1207 89.1879 62.4968C91.479 54.0933 93.7011 43.6027 97.4809 35.8284C97.6749 38.7433 97.3706 41.6879 97.6418 44.6088C98.473 53.5626 103.11 61.5738 107.838 69.0035C108.111 69.7015 108.343 70.3877 108.804 70.9876C109.427 71.9757 110.041 72.8962 110.822 73.767C114.946 80.4839 120.533 87.5157 127.037 92.1053C128.15 90.9948 130.341 90.7311 131.835 90.3658C139.058 88.5992 146.024 87.7456 153.467 87.7561C159.402 87.7645 173.807 88.9015 178.722 92.1209C184.081 87.5624 191.509 80.6914 194.407 74.2945L196.898 70.7598C197.717 70.1624 198.163 68.6973 198.515 67.7903ZM207.118 72.5453C203.142 81.7238 199.363 90.3484 193.499 98.5484C195.761 100.166 198.071 101.531 200.154 103.396L203.228 98.8748C203.122 100.92 202.863 102.789 202.215 104.747C204.996 106.72 207.182 109.688 210.005 111.506C210.534 108.972 211.338 106.492 211.8 103.945C213.086 96.8641 213.225 88.8536 212.227 81.7308C211.92 79.5414 210.066 67.5639 208.759 66.578C207.654 67.3487 207.378 71.1091 207.118 72.5453ZM98.7889 72.5575C98.4435 73.9816 97.5214 74.3675 96.295 75.1352C96.0104 75.3134 95.7064 75.4621 95.4027 75.6041C95.1889 75.3779 95.1407 75.3367 95.0642 75.0223C93.9756 77.0236 93.7321 80.8495 93.5609 83.1153C92.8798 91.9616 92.6871 103.114 96.0697 111.473C97.0892 109.706 101.998 105.746 103.737 104.352C103.182 102.651 102.865 100.998 102.602 99.2301C103.685 100.4 104.596 101.774 105.546 103.053C106.392 101.815 110.612 99.5706 112.096 98.5341C111.096 96.5605 109.549 94.6592 108.399 92.7348C105.497 87.8795 102.733 82.8417 100.406 77.6835C100.428 76.0289 99.4688 74.0381 98.7889 72.5575ZM97.1902 66.3026C96.251 69.1403 95.7065 72.1067 95.0642 75.0223C95.1407 75.3367 95.1889 75.3779 95.4027 75.6041C95.7064 75.4621 96.0104 75.3134 96.295 75.1352C97.5214 74.3675 98.4435 73.9816 98.7889 72.5575C97.9535 70.4982 97.4966 68.5057 97.1902 66.3026Z"/>
	<path fill="#747478" transform="matrix(0.106667 0 0 0.106667 3.8147e-06 9.53674e-07)" d="M244.72 178.095C244.857 178.888 244.898 179.639 245.521 180.208C245.579 180.261 245.633 180.318 245.692 180.37C245.728 180.401 245.767 180.428 245.804 180.457C245.626 181.739 244.751 182.27 244.695 183.706C244.693 183.766 244.685 183.826 244.68 183.886C244.442 182.152 243.682 180.543 243.543 178.786L243.956 178.909L243.741 178.83L244.14 179.541L244.72 178.095Z"/>
	<path fill="#1C1A1C" transform="matrix(0.106667 0 0 0.106667 3.8147e-06 9.53674e-07)" d="M78.1037 138.923C79.9784 138.231 81.8338 137.734 83.8047 137.388C81.6592 139.187 79.5032 141.091 77.0584 142.477C77.3973 141.209 78.0133 140.289 78.1037 138.923Z"/>
	<path fill="#1C1A1C" transform="matrix(0.106667 0 0 0.106667 3.8147e-06 9.53674e-07)" d="M228.245 142.175C226.759 141.12 223.126 139.073 222.495 137.486C223.649 137.005 226.775 138.587 227.939 139.055C227.689 140.328 228.669 141.141 228.245 142.175Z"/>
	<path fill="#5C5B5F" transform="matrix(0.106667 0 0 0.106667 3.8147e-06 9.53674e-07)" d="M67.2932 150.282C68.7645 150.544 70.2639 150.758 71.7157 151.112C69.9323 154.956 68.5283 159.038 66.6597 162.819C66.9826 160.596 67.0906 158.542 67.0259 156.302C67.4333 154.364 67.3578 152.251 67.2932 150.282Z"/>
	<path fill="#5C5B5F" transform="matrix(0.106667 0 0 0.106667 3.8147e-06 9.53674e-07)" d="M234.237 151.108C235.797 150.711 237.392 150.49 238.939 150.033C238.864 152.199 239.339 159.744 238.458 161.179C236.967 157.849 235.535 154.52 234.237 151.108Z"/>
	<path transform="matrix(0.106667 0 0 0.106667 3.8147e-06 9.53674e-07)" d="M80.4847 200.867C80.9388 200.279 81.2881 199.722 81.9963 199.427C82.4702 199.701 90.604 215.283 91.7046 217.207L91.203 217.417C91.1025 217.384 90.9598 217.343 90.8619 217.289C87.6966 215.53 81.8269 204.358 80.4847 200.867Z"/>
	<path transform="matrix(0.106667 0 0 0.106667 3.8147e-06 9.53674e-07)" d="M213.291 217.945C215.172 214.861 222.324 201.166 224.366 199.727C225.002 199.879 225.116 200.232 225.48 200.737C224.643 202.219 224.069 203.805 223.26 205.303C221.968 207.696 216.298 217.386 213.89 218.183L213.291 217.945Z"/>
	<path transform="matrix(0.106667 0 0 0.106667 3.8147e-06 9.53674e-07)" d="M230.861 183.336Q228.339 178.88 225.31 174.753C223.87 172.82 222.218 170.958 221.008 168.874L221.119 168.585C224.197 168.54 230.056 172.429 232.674 174.329C231.546 176.706 232.578 181.527 230.861 183.336Z"/>
	<path fill="#5C5B5F" transform="matrix(0.106667 0 0 0.106667 3.8147e-06 9.53674e-07)" d="M227.939 139.055C233.57 140.778 240.376 143.682 245 147.407C244.461 147.263 244.196 147.277 243.663 147.436C241.832 147.919 240.689 149.058 239.029 149.716C235.806 146.746 231.69 144.862 228.245 142.175C228.669 141.141 227.689 140.328 227.939 139.055Z"/>
	<path transform="matrix(0.106667 0 0 0.106667 3.8147e-06 9.53674e-07)" d="M72.8127 174.641C76.7669 171.438 80.724 169.406 85.6766 168.218C81.5336 173.149 77.3275 178.019 74.9135 184.08C73.3549 182.68 73.8052 176.863 72.8127 174.641Z"/>
	<path fill="#5C5B5F" transform="matrix(0.106667 0 0 0.106667 3.8147e-06 9.53674e-07)" d="M61.937 146.786C65.4774 143.363 73.4911 140.475 78.1037 138.923C78.0133 140.289 77.3973 141.209 77.0584 142.477C74.1116 145.342 70.1117 146.721 67.2226 149.981C66.2513 149.293 65.334 148.766 64.2367 148.304C63.4912 147.741 62.7806 147.198 61.937 146.786Z"/>
	<path transform="matrix(0.106667 0 0 0.106667 3.8147e-06 9.53674e-07)" d="M140.237 227.92C143.875 229.007 147.263 231.605 150.809 233.039C151.652 233.381 152.512 233.549 153.42 233.397C155.886 232.986 162.904 229.263 165.616 228.083C165.441 229.351 165.248 230.599 164.977 231.851C164.623 232.614 164.249 233.287 163.601 233.838C161.058 235.998 155.487 237.376 152.19 237.105C148.464 236.798 143.238 235.412 140.759 232.526C140.398 230.953 140.222 229.534 140.237 227.92Z"/>
	<path transform="matrix(0.106667 0 0 0.106667 3.8147e-06 9.53674e-07)" d="M166.892 206.672C166.925 206.703 166.966 206.727 166.991 206.764C167.57 207.649 166.055 222.638 165.877 224.69C163.797 226.658 155.806 232.328 153.128 232.626C150.854 232.879 142.808 227.247 140.9 225.595C139.026 223.971 139.044 222.36 138.895 220.062C138.325 216.783 138.94 210.23 139.219 206.747C139.8 207.952 140.57 216.684 140.847 218.71C149.013 218.049 156.521 217.792 164.668 218.924C165.66 214.934 166.112 210.722 166.892 206.672Z"/>
	<path fill="#5C5B5F" transform="matrix(0.106667 0 0 0.106667 3.8147e-06 9.53674e-07)" d="M98.7889 72.5575C99.4688 74.0381 100.428 76.0289 100.406 77.6835C102.733 82.8417 105.497 87.8795 108.399 92.7348C109.549 94.6592 111.096 96.5605 112.096 98.5341C110.612 99.5706 106.392 101.815 105.546 103.053C104.596 101.774 103.685 100.4 102.602 99.2301C102.865 100.998 103.182 102.651 103.737 104.352C101.998 105.746 97.0892 109.706 96.0697 111.473C92.6871 103.114 92.8798 91.9616 93.5609 83.1153C93.7321 80.8495 93.9756 77.0236 95.0642 75.0223C95.1407 75.3367 95.1889 75.3779 95.4027 75.6041C95.7064 75.4621 96.0104 75.3134 96.295 75.1352C97.5214 74.3675 98.4435 73.9816 98.7889 72.5575ZM94.098 83.1123C94.0879 84.8057 93.8084 87.045 94.8727 88.4654C94.9252 88.4958 94.9783 88.5253 95.0301 88.5568C97.0447 89.782 99.8526 93.8356 102.473 93.2922C102.913 93.2009 103.149 92.9341 103.431 92.6081L103.574 91.6014L103.333 91.3224C103.113 89.5278 102.483 87.6478 102.038 85.888C101.924 86.3675 101.798 86.847 101.696 87.3292L101.498 87.3058L102.069 86.9984L101.346 87.0434L101.027 86.2964L100.686 86.1696C100.442 86.4742 100.397 86.6894 100.314 87.0605L99.7637 87.2897L99.7811 87.4986C97.8808 88.0297 95.7252 83.7077 94.098 83.1123ZM99.7637 87.2897L100.314 87.0605C100.397 86.6894 100.442 86.4742 100.686 86.1696L101.027 86.2964L101.346 87.0434L102.069 86.9984L101.498 87.3058L101.696 87.3292C101.798 86.847 101.924 86.3675 102.038 85.888C101.351 83.1869 100.903 80.4246 100.406 77.6835C100.151 77.2308 99.9296 76.8362 99.5561 76.4713C98.8473 76.7381 98.001 77.0216 97.6482 77.7451C96.6826 79.7247 98.4947 84.1961 99.232 86.1223C99.3831 86.5172 99.5407 86.93 99.7637 87.2897Z"/>
	<path transform="matrix(0.106667 0 0 0.106667 3.8147e-06 9.53674e-07)" d="M94.8727 88.4654C94.9252 88.4958 94.9783 88.5253 95.0301 88.5568C97.0447 89.782 99.8526 93.8356 102.473 93.2922C102.913 93.2009 103.149 92.9341 103.431 92.6081L103.574 91.6014C103.806 92.1636 104.101 92.7941 104.107 93.4104C104.12 94.6395 103.16 95.4513 102.371 96.2652C99.9121 94.0714 96.7254 91.1803 94.8727 88.4654Z"/>
	<path transform="matrix(0.106667 0 0 0.106667 3.8147e-06 9.53674e-07)" d="M94.098 83.1123C95.7252 83.7077 97.8808 88.0297 99.7811 87.4986L99.7637 87.2897L100.314 87.0605C100.397 86.6894 100.442 86.4742 100.686 86.1696L101.027 86.2964L101.346 87.0434L102.069 86.9984L101.498 87.3058L101.696 87.3292C101.798 86.847 101.924 86.3675 102.038 85.888C102.483 87.6478 103.113 89.5278 103.333 91.3224L103.574 91.6014L103.431 92.6081C103.149 92.9341 102.913 93.2009 102.473 93.2922C99.8526 93.8356 97.0447 89.782 95.0301 88.5568C94.9783 88.5253 94.9252 88.4958 94.8727 88.4654C93.8084 87.045 94.0879 84.8057 94.098 83.1123ZM99.7637 87.2897L99.7811 87.4986L100.335 87.6895C100.948 89.1422 100.784 90.7858 102.287 91.6864L102.941 91.7864L103.333 91.3224C103.113 89.5278 102.483 87.6478 102.038 85.888C101.924 86.3675 101.798 86.847 101.696 87.3292L101.498 87.3058L102.069 86.9984L101.346 87.0434L101.027 86.2964L100.686 86.1696C100.442 86.4742 100.397 86.6894 100.314 87.0605L99.7637 87.2897Z"/>
	<path fill="#1C1A1C" fill-opacity="0.019607844" transform="matrix(0.106667 0 0 0.106667 3.8147e-06 9.53674e-07)" d="M99.7637 87.2897L100.314 87.0605C100.397 86.6894 100.442 86.4742 100.686 86.1696L101.027 86.2964L101.346 87.0434L102.069 86.9984L101.498 87.3058L101.696 87.3292C101.798 86.847 101.924 86.3675 102.038 85.888C102.483 87.6478 103.113 89.5278 103.333 91.3224L102.941 91.7864L102.287 91.6864C100.784 90.7858 100.948 89.1422 100.335 87.6895L99.7811 87.4986L99.7637 87.2897Z"/>
	<path fill="#5C5B5F" transform="matrix(0.106667 0 0 0.106667 3.8147e-06 9.53674e-07)" d="M207.118 72.5453C207.378 71.1091 207.654 67.3487 208.759 66.578C210.066 67.5639 211.92 79.5414 212.227 81.7308C213.225 88.8536 213.086 96.8641 211.8 103.945C211.338 106.492 210.534 108.972 210.005 111.506C207.182 109.688 204.996 106.72 202.215 104.747C202.863 102.789 203.122 100.92 203.228 98.8748L200.154 103.396C198.071 101.531 195.761 100.166 193.499 98.5484C199.363 90.3484 203.142 81.7238 207.118 72.5453ZM205.706 79.0084C206.601 79.9934 206.727 80.5036 206.663 81.8469C206.548 84.2498 204.96 91.2987 205.912 93.1182C206.265 93.1846 206.511 93.2083 206.866 93.1465C207.919 91.8568 209.329 90.8297 210.44 89.577C212.191 87.605 211.948 85.7184 211.793 83.2774C209.919 84.6671 208.349 86.4434 206.819 88.1903C206.957 84.0872 208.325 81.9683 209.069 78.3592C208.348 77.5641 207.301 76.4907 206.206 76.3131L205.816 76.5972C205.59 77.5895 205.373 78.0312 205.706 79.0084ZM208.719 68.8224L207.118 72.5453C207.365 73.4961 209.994 75.0202 210.903 75.7695L210.241 73.2061C209.912 71.7227 209.248 70.2486 208.719 68.8224Z"/>
	<path transform="matrix(0.106667 0 0 0.106667 3.8147e-06 9.53674e-07)" d="M205.706 79.0084C206.601 79.9934 206.727 80.5036 206.663 81.8469C206.548 84.2498 204.96 91.2987 205.912 93.1182C206.265 93.1846 206.511 93.2083 206.866 93.1465C205.986 94.311 204.931 95.3417 203.922 96.3936L201.967 94.5009C202.539 89.4251 204.703 84.1147 205.706 79.0084Z"/>
	<path fill="#1C1A1C" fill-opacity="0.16078432" transform="matrix(0.106667 0 0 0.106667 3.8147e-06 9.53674e-07)" d="M205.706 79.0084C205.373 78.0312 205.59 77.5895 205.816 76.5972L206.206 76.3131C207.301 76.4907 208.348 77.5641 209.069 78.3592C208.325 81.9683 206.957 84.0872 206.819 88.1903C208.349 86.4434 209.919 84.6671 211.793 83.2774C211.948 85.7184 212.191 87.605 210.44 89.577C209.329 90.8297 207.919 91.8568 206.866 93.1465C206.511 93.2083 206.265 93.1846 205.912 93.1182C204.96 91.2987 206.548 84.2498 206.663 81.8469C206.727 80.5036 206.601 79.9934 205.706 79.0084Z"/>
	<path fill="#5C5B5F" transform="matrix(0.106667 0 0 0.106667 3.8147e-06 9.53674e-07)" d="M54.1414 141.928C56.9968 133.317 59.6588 125.032 64.0811 117.023C64.5376 116.196 65.3687 114.749 66.2845 114.368C68.3461 113.511 74.3658 116.991 76.9972 116.076C77.6055 115.864 77.7512 115.31 78.0379 114.779C78.0075 116.044 77.9881 117.307 77.865 118.567C80.4443 119.173 88.0651 119.701 89.6043 120.372L89.7965 120.688C88.7315 122.414 82.763 124.878 80.7663 126.164C79.0123 127.294 77.337 128.578 75.7062 129.878Q70.3347 134.192 65.7353 139.321C63.8448 141.433 62.0165 143.918 59.9231 145.806C59.3835 144.566 55.4397 143.07 54.1414 141.928Z"/>
	<path fill="#5C5B5F" transform="matrix(0.106667 0 0 0.106667 3.8147e-06 9.53674e-07)" d="M228.21 115.679C228.426 116.082 228.56 116.62 229.05 116.726C231.912 117.342 239.108 112.434 241.028 114.971C243.754 118.572 252.279 138.281 251.839 141.813C251.778 142.298 251.379 142.631 250.977 142.869C249.594 143.686 246.899 144.433 246.049 145.793C244.338 144.543 242.475 141.38 240.926 139.687Q237.532 135.947 233.713 132.644Q229.893 129.34 225.703 126.521C224.124 125.459 216.711 121.842 216.185 120.805C216.804 120.049 226.497 118.861 228.236 118.563L228.21 115.679Z"/>
	<path fill="#5C5B5F" transform="matrix(0.106667 0 0 0.106667 3.8147e-06 9.53674e-07)" d="M232.674 174.329C234.992 176.119 237.33 177.902 239.291 180.092C241.044 181.92 242.761 183.762 244.416 185.68C244.808 185.808 244.905 185.897 245.303 185.756C245.37 186.548 245.56 186.811 246.185 187.334C247.886 188.758 250.05 189.922 252.122 190.697C249.4 200.451 246.154 210.642 240.152 218.95C237.646 218.661 234.895 217.938 232.623 216.841L232.111 216.989C232.306 214.856 233.559 212.549 233.971 210.387C235.773 200.944 234.815 192.058 230.861 183.336C232.578 181.527 231.546 176.706 232.674 174.329Z"/>
	<path transform="matrix(0.106667 0 0 0.106667 3.8147e-06 9.53674e-07)" d="M239.291 180.092C241.044 181.92 242.761 183.762 244.416 185.68C244.117 185.739 243.805 185.774 243.505 185.701C241.919 185.317 239.951 184.366 239.094 182.895C238.635 182.106 239.017 180.895 239.291 180.092Z"/>
	<path transform="matrix(0.106667 0 0 0.106667 3.8147e-06 9.53674e-07)" d="M86.9743 158.412C89.2904 157.778 91.6509 157.489 94.0313 157.223C95.8337 159.587 97.1947 162.478 98.3821 165.19C100.448 169.909 102.673 176.549 97.8272 180.297C96.4009 181.4 94.6295 182 93.3715 183.328C91.4432 185.363 90.4741 188.04 89.4729 190.602C92.4905 191.93 95.7071 192.819 98.7541 194.098C109.562 198.635 117.185 205.176 123.507 214.991C121.51 206.241 118.464 197.415 112.01 190.868C109.959 188.787 107.201 186.939 105.875 184.28C103.35 179.217 104.947 171.863 106.643 166.773C106.427 170.066 106.222 173.885 107.433 177.01C109.295 181.814 114.12 184.304 118.555 186.264C121.008 183.659 122.925 180.568 124.864 177.576Q124.765 178.354 124.685 179.134C123.928 186.526 123.901 194.064 126.27 201.195C127.269 204.202 128.826 207.148 129.242 210.307C129.862 215.005 127.941 225.728 130.791 229.13C133.037 231.811 135.868 233.71 138.42 236.058C140.129 237.63 141.642 239.605 143.471 241.011C143.968 241.393 144.441 241.562 145.066 241.617C149.813 242.034 155.119 241.91 159.875 241.521C160.932 241.435 161.919 241.321 162.818 240.718C164.592 239.528 165.921 237.381 167.535 235.934C169.789 233.914 172.603 232.606 174.568 230.229C177.806 226.312 175.837 215.665 176.627 210.251C177.105 206.981 178.676 203.986 179.714 200.873C182.227 193.329 182.052 185.549 181.318 177.738C183.283 180.558 185.027 183.567 187.263 186.183C190.162 185.035 193.095 183.511 195.454 181.449C199.959 177.51 199.247 172.988 199.625 167.632C201.097 172.304 201.991 180.373 199.624 184.856C198.531 186.925 195.889 188.393 194.274 190.104C187.427 197.353 183.862 205.968 182.282 215.7C184.154 213.032 185.757 210.254 187.832 207.714C195.208 198.69 205.938 194.243 216.676 190.52C214.317 184.71 212.25 182.579 206.744 179.68C205.94 177.706 205.451 175.795 205.371 173.655C205.157 167.996 208.104 161.451 211.904 157.303C214.255 157.428 216.514 158.05 218.839 158.378C216.122 164.117 212.988 170.104 215.724 176.447C216.777 178.89 218.242 181.14 219.27 183.606C220.797 187.268 221.445 191.114 222.16 194.992C219.879 195.015 217.633 195.045 215.368 195.325C212.548 200.627 209.077 205.692 205.989 210.848C204.511 208.623 202.588 206.705 200.765 204.765C199.052 206.952 196.872 209.353 195.843 211.942C193.563 217.675 197.942 228.486 194.184 236C192.442 237.173 185.034 241.386 183.194 240.982C183.153 240.973 183.113 240.96 183.073 240.949C184.708 237.023 186.319 233.256 186.479 228.935C184.175 234.607 181.558 240.161 176.792 244.212C174.49 247.253 171.281 249.944 168.543 252.615C167.664 253.417 166.801 254.278 165.865 255.012C164.913 255.99 163.717 257.493 162.471 258.053C161.445 257.559 159.031 258.216 157.746 258.236C156.167 258.261 144.082 257.703 143.717 257.829C145.602 259.67 147.804 261.302 149.557 263.244C148.617 264.414 147.456 266.179 145.849 266.355C144.882 266.46 144.072 265.881 143.392 265.267C141.629 263.675 140.095 261.847 138.302 260.252C137.789 259.582 137.078 259.021 136.457 258.449C135.705 257.707 135.046 256.874 134.371 256.061C133.589 254.269 128.982 250.274 127.467 248.327C125.789 246.171 124.553 243.669 123.169 241.323C120.901 242.364 114.243 236.164 111.753 236.661C110.673 233.712 110.479 230.464 109.253 227.564C107.208 222.726 103.751 218.082 101.093 213.524L94.4415 202C93.138 199.747 91.9151 197.302 90.3067 195.254L83.4585 195.256C83.5519 190.748 85.0162 185.692 87.2109 181.76C88.5234 179.408 90.0453 177.087 90.7552 174.464C92.3439 168.593 89.7761 163.378 86.9743 158.412Z"/>
	<path fill="#FEFEFE" transform="matrix(0.106667 0 0 0.106667 3.8147e-06 9.53674e-07)" d="M119.403 230.871C122.607 235.508 124.873 240.302 128.982 244.306C130.901 246.507 134.968 251.327 137.304 252.787C138.27 253.625 139.22 254.508 140.292 255.21C141.263 256.201 142.403 257.313 143.717 257.829C145.602 259.67 147.804 261.302 149.557 263.244C148.617 264.414 147.456 266.179 145.849 266.355C144.882 266.46 144.072 265.881 143.392 265.267C141.629 263.675 140.095 261.847 138.302 260.252C137.789 259.582 137.078 259.021 136.457 258.449C135.705 257.707 135.046 256.874 134.371 256.061C133.589 254.269 128.982 250.274 127.467 248.327C125.789 246.171 124.553 243.669 123.169 241.323C121.645 238.023 120.175 234.431 119.403 230.871Z"/>
	<path fill="#5C5B5F" transform="matrix(0.106667 0 0 0.106667 3.8147e-06 9.53674e-07)" d="M128.982 244.306C129.347 244.227 129.754 244.149 130.13 244.188C131.369 244.316 132.757 244.954 134.003 245.243C137.463 246.047 140.961 246.681 144.507 246.936C151.575 247.445 159.077 247.39 166.097 246.433C168.475 246.109 174.95 243.81 176.792 244.212C174.49 247.253 171.281 249.944 168.543 252.615C167.664 253.417 166.801 254.278 165.865 255.012C164.913 255.99 163.717 257.493 162.471 258.053C161.445 257.559 159.031 258.216 157.746 258.236C156.167 258.261 144.082 257.703 143.717 257.829C142.403 257.313 141.263 256.201 140.292 255.21C139.22 254.508 138.27 253.625 137.304 252.787C134.968 251.327 130.901 246.507 128.982 244.306Z"/>
	<path transform="matrix(0.106667 0 0 0.106667 3.8147e-06 9.53674e-07)" d="M137.304 252.787C137.452 252.564 137.658 252.445 137.872 252.285C143.512 251.687 150.198 252.149 155.944 252.166C159.44 252.176 163.059 251.834 166.538 252.036C167.293 252.08 167.871 252.276 168.543 252.615C167.664 253.417 166.801 254.278 165.865 255.012C164.913 255.99 163.717 257.493 162.471 258.053C161.445 257.559 159.031 258.216 157.746 258.236C156.167 258.261 144.082 257.703 143.717 257.829C142.403 257.313 141.263 256.201 140.292 255.21C139.22 254.508 138.27 253.625 137.304 252.787Z"/>
	<path fill="#5C5B5F" transform="matrix(0.106667 0 0 0.106667 3.8147e-06 9.53674e-07)" d="M140.292 255.21C143.568 254.686 147.538 255.165 150.885 255.171C155.87 255.181 160.897 254.953 165.865 255.012C164.913 255.99 163.717 257.493 162.471 258.053C161.445 257.559 159.031 258.216 157.746 258.236C156.167 258.261 144.082 257.703 143.717 257.829C142.403 257.313 141.263 256.201 140.292 255.21Z"/>
	<path transform="matrix(0.106667 0 0 0.106667 3.8147e-06 9.53674e-07)" d="M127.037 92.1053C128.15 90.9948 130.341 90.7311 131.835 90.3658C139.058 88.5992 146.024 87.7456 153.467 87.7561C159.402 87.7645 173.807 88.9015 178.722 92.1209C177.089 93.709 175.298 95.3726 175.284 97.8331C175.264 101.446 178.679 111.168 180.293 114.61C185.137 109.739 189.555 104.16 193.499 98.5484C195.761 100.166 198.071 101.531 200.154 103.396L203.228 98.8748C203.122 100.92 202.863 102.789 202.215 104.747C204.996 106.72 207.182 109.688 210.005 111.506C209.052 113.972 207.901 116.556 207.416 119.156C210.907 123.055 215.727 125.607 219.335 129.39C212.923 127.135 205.634 125.487 198.833 125.16C200.967 130.824 206.77 134.364 211.258 138.036Q214.547 140.725 217.497 143.781C222.34 148.813 226.522 154.433 230.374 160.248C230.942 161.104 231.854 162.212 231.644 163.254C230.172 162.668 228.772 161.535 227.418 160.682C224.125 158.609 220.094 156.194 216.287 155.29C211.31 154.109 207.007 158.632 203.031 161.073C204.141 155.416 205.202 149.972 205.549 144.193C203.369 148.039 200.909 151.626 197.766 154.759C195.638 156.88 193.237 158.831 191.378 161.2C189.529 163.556 188.707 166.51 186.68 168.814C183.185 172.785 178.73 172.693 173.913 173C172.434 174.436 170.397 176.075 169.498 177.954C168.292 180.473 168.133 184.224 167.656 187.002C166.574 193.317 165.617 199.69 164.336 205.968C164.048 207.377 163.535 209.917 162.194 210.69C160.209 211.834 146.821 211.707 144.343 211.083C143.337 210.83 142.851 210.329 142.416 209.415C141.414 207.314 141.175 204.66 140.753 202.369C139.762 196.995 137.451 180.447 135.04 176.603C132.28 172.204 129.116 173.423 124.777 172.418C122.814 171.963 121.133 171.032 119.71 169.605C117.208 167.097 116.241 163.678 114.112 160.924C112.673 159.064 110.846 157.402 109.201 155.717C105.808 152.245 102.905 148.918 100.36 144.759C101.36 150.08 101.697 155.552 102.669 160.895C99.771 159.254 95.612 155.543 92.4139 155.282C86.5646 154.806 76.953 161.554 72.6346 165.231C75.4676 157.39 86.4356 144.673 92.8796 139.139C97.8919 134.835 104.046 131.178 107.229 125.202C100.408 125.554 93.1812 127.364 86.6796 129.373C90.0138 125.129 95.0363 122.593 98.7468 118.691C98.1058 116.274 96.889 113.865 96.0697 111.473C97.0892 109.706 101.998 105.746 103.737 104.352C103.182 102.651 102.865 100.998 102.602 99.2301C103.685 100.4 104.596 101.774 105.546 103.053C106.392 101.815 110.612 99.5706 112.096 98.5341C116.545 104.035 120.838 109.461 125.632 114.685L125.681 114.572C127.47 110.395 129.849 102.305 130.834 97.8487C130.145 95.2626 129 93.8541 127.037 92.1053Z"/>
	<path fill="#FEFEFE" transform="matrix(0.106667 0 0 0.106667 3.8147e-06 9.53674e-07)" d="M119.688 160.988C120.917 161.362 122.128 161.788 123.342 162.21C123.88 163.334 124.293 164.553 124.754 165.713C125.337 166.104 126.107 166.592 126.801 166.736C128.117 167.009 129.171 166.102 130.186 165.411C130.817 166.264 131.341 167.208 131.889 168.117L131.76 168.515C131.667 168.542 131.518 168.591 131.415 168.607C128.982 168.977 124.663 168.255 122.652 166.796C121.006 165.602 119.996 162.928 119.688 160.988Z"/>
	<path fill="#FEFEFE" transform="matrix(0.106667 0 0 0.106667 3.8147e-06 9.53674e-07)" d="M186.189 160.213C186.557 160.885 186.489 161.339 186.343 162.088C185.949 164.108 184.473 165.832 182.803 166.952C180.319 168.617 176.715 168.894 173.824 168.332L175.577 165.561C176.223 165.857 176.888 166.148 177.558 166.385C180.527 167.434 181.649 163.302 183.336 161.773C184.094 161.086 185.26 160.646 186.189 160.213Z"/>
	<path fill="#FEFEFE" transform="matrix(0.106667 0 0 0.106667 3.8147e-06 9.53674e-07)" d="M152.867 97.1525C153.141 97.3422 153.321 97.4309 153.432 97.7683C153.685 98.5367 153.545 143.568 153.443 146.952C153.412 147.967 153.396 148.991 152.881 149.895C151.298 145.674 151.818 102.351 152.867 97.1525Z"/>
	<path fill="#FEFEFE" transform="matrix(0.106667 0 0 0.106667 3.8147e-06 9.53674e-07)" d="M102.602 99.2301C103.685 100.4 104.596 101.774 105.546 103.053C106.671 104.688 107.79 106.244 109.237 107.619C111.992 110.235 115.324 111.453 114.415 115.965C114.109 117.482 113.611 119.003 113.205 120.497C109.445 115.425 105.736 110.437 103.737 104.352C103.182 102.651 102.865 100.998 102.602 99.2301Z"/>
	<path fill="#FEFEFE" transform="matrix(0.106667 0 0 0.106667 3.8147e-06 9.53674e-07)" d="M200.154 103.396L203.228 98.8748C203.122 100.92 202.863 102.789 202.215 104.747C199.844 110.634 196.595 115.618 192.672 120.571L190.79 113.797C193.286 109.785 197.479 107.304 200.154 103.396Z"/>
	<path fill="#FEFEFE" transform="matrix(0.106667 0 0 0.106667 3.8147e-06 9.53674e-07)" d="M128.145 135.65C129.227 136.439 131.932 141.115 132.889 142.447C135.975 146.744 139.594 150.576 142.957 154.649Q143.278 166.427 142.576 178.189L142.412 178.365L142.134 178.201C141.149 173.101 140.357 167.953 139.362 162.846C138.893 160.437 138.546 157.827 137.656 155.534C136.843 153.439 135.491 151.623 134.252 149.766C131.313 145.359 128.921 140.957 128.145 135.65Z"/>
	<path fill="#FEFEFE" transform="matrix(0.106667 0 0 0.106667 3.8147e-06 9.53674e-07)" d="M177.225 135.644L177.547 136.031C177.221 143.646 170.653 149.174 168.232 155.637C165.054 164.123 165.669 173.9 163.375 182.616L163.311 182.853C162.174 179.976 162.735 159.767 162.773 155.024C164.63 152.275 167.037 149.823 169.17 147.279C172.244 143.611 174.878 139.814 177.225 135.644Z"/>
	<path fill="#FEFEFE" transform="matrix(0.106667 0 0 0.106667 3.8147e-06 9.53674e-07)" d="M101.745 140.146C103.42 140.67 108.23 145.05 110.087 146.313C113.49 148.627 116.945 150.617 120.728 152.238C119.768 148.77 119.243 145.393 118.838 141.826C120.907 145.106 122.924 148.495 125.658 151.273C128.657 154.32 132.327 156.695 134.735 160.279C136.323 163.419 136.516 166.523 136.747 169.963C135.507 167.817 134.419 165.789 132.641 164.01C129.445 160.811 125.196 159.748 121.258 157.808C118.435 156.418 115.696 154.649 113.179 152.765C108.536 149.292 105.233 144.704 101.745 140.146Z"/>
	<path fill="#FEFEFE" transform="matrix(0.106667 0 0 0.106667 3.8147e-06 9.53674e-07)" d="M205.497 136.988L205.652 137.177C205.732 138.391 203.371 140.965 202.57 142.005C197.606 148.453 190.918 155.156 183.4 158.558C180.564 159.841 177.191 160.561 174.721 162.501C172.157 164.514 170.587 167.531 168.941 170.281C168.994 167.086 169.258 164.266 170.497 161.268C172.959 156.983 177.233 154.431 180.505 150.858C183.024 148.108 184.819 144.704 186.802 141.562C186.731 145.166 186.171 148.442 185.198 151.909C193.049 148.843 200.175 143.463 205.497 136.988Z"/>
</svg>
